<svg xmlns="http://www.w3.org/2000/svg" xmlns:xlink="http://www.w3.org/1999/xlink" xmlns:lucid="lucid" width="1531.97" height="907.01"><g transform="translate(0 14.607874015747996)" lucid:page-tab-id="0_0"><path d="M0 0h1870.87v1322.83H0z" fill="#fff"/><path d="M389.66 102.35l-83.14 131.8" stroke="#5e5e5e" stroke-width="2" fill="none"/><path d="M390.2 101.5l1.2-.04-.9 1.44-1.7-1.07.24-.37zM307.38 234.67l-.2.33h-2.38l.9-1.4z" fill="#5e5e5e"/><path d="M225.98 242.5c0-3.3 2.7-6 6-6h148c3.32 0 6 2.7 6 6v48c0 3.32-2.68 6-6 6h-148c-3.3 0-6-2.68-6-6z" stroke="#0c7cba" stroke-width="3" fill="#fff"/><use xlink:href="#a" transform="matrix(1,0,0,1,230.98425196850394,241.50393700787401) translate(37.06797709876544 30.27774222222222)"/><path d="M185.98 131.5c0 17.4-28.2 31.5-63 31.5C88.2 163 60 148.9 60 131.5S88.2 100 123 100c34.78 0 62.98 14.1 62.98 31.5z" stroke="#fcc438" stroke-width="3" fill="#fff"/><use xlink:href="#b" transform="matrix(1,0,0,1,65,105) translate(49.36302469135802 31.027777777777775)"/><path d="M183.38 144.8l121.8 89.6" stroke="#5e5e5e" stroke-width="2" fill="none"/><path d="M184 144.02l-1.2 1.6-.85-.62 1.25-1.57zM307.67 235h-2.96l1.05-1.4z" fill="#5e5e5e"/><path d="M311.97 91.5c0 17.4-28.2 31.5-63 31.5-34.78 0-63-14.1-63-31.5s28.22-31.5 63-31.5c34.8 0 63 14.1 63 31.5z" stroke="#fcc438" stroke-width="3" fill="#fff"/><use xlink:href="#c" transform="matrix(1,0,0,1,190.98425196850394,65) translate(18.005000000000006 31.027777777777775)"/><path d="M249.43 125.38l56.1 108.74" stroke="#5e5e5e" stroke-width="2" fill="none"/><path d="M248.97 124.5l1.1-.04.27.5-1.78.9-.73-1.4zM307.1 235h-2.24l-.23-.45 1.77-.92z" fill="#5e5e5e"/><path d="M468.98 151.5c0 17.4-42.3 31.5-94.5 31.5-52.18 0-94.48-14.1-94.48-31.5s42.3-31.5 94.5-31.5c52.17 0 94.48 14.1 94.48 31.5z" stroke="#fcc438" stroke-width="3" fill="#fff"/><use xlink:href="#d" transform="matrix(1,0,0,1,285,125) translate(22.437098765432104 31.027777777777775)"/><path d="M373.68 185.1l-66.9 49.3" stroke="#5e5e5e" stroke-width="2" fill="none"/><path d="M374.48 184.5l1.74-.04-1.96 1.45-1.07-1.44zM307.26 235h-2.96l1.92-1.4z" fill="#5e5e5e"/><path d="M625.98 223.1c0 17.4-28.2 31.5-63 31.5-34.78 0-62.98-14.1-62.98-31.5s28.2-31.5 63-31.5c34.78 0 62.98 14.1 62.98 31.5z" stroke="#fcc438" stroke-width="3" fill="#fff"/><use xlink:href="#e" transform="matrix(1,0,0,1,505,196.59999999999997) translate(33.99265432098766 31.027777777777775)"/><path d="M497.5 223.2l-113.37 12.5" stroke="#5e5e5e" stroke-width="2" fill="none"/><path d="M498.5 223.1l.03 1-.94.1-.23-2 1.17-.1zM384.23 236.42l-.44-.44-3.3-.9 3.54-.38z" fill="#5e5e5e"/><path d="M594.4 91.5c0 17.4-28.2 31.5-63 31.5-34.78 0-62.98-14.1-62.98-31.5s28.2-31.5 63-31.5c34.78 0 62.98 14.1 62.98 31.5z" stroke="#fcc438" stroke-width="3" fill="#fff"/><use xlink:href="#f" transform="matrix(1,0,0,1,473.41851851851857,65) translate(13.0975925925926 31.027777777777775)"/><path d="M530.6 125.08L381.5 234.55" stroke="#5e5e5e" stroke-width="2" fill="none"/><path d="M531.18 125.9l-1.08-1.46 1.3.05 1.78-.06zM382.1 235.34l-.18.13-1.74-.47h-1l1.74-1.27z" fill="#5e5e5e"/><path d="M757.63 242.68c2.96-1.48 7.76-1.48 10.73 0l86.27 43.14c2.97 1.48 2.97 3.9 0 5.37l-86.27 43.12c-2.97 1.5-7.77 1.5-10.73 0l-86.28-43.13c-2.96-1.5-2.96-3.9 0-5.38z" stroke="#83bbe5" stroke-width="3" fill="#fff"/><use xlink:href="#g" transform="matrix(1,0,0,1,670.9842519685039,245) translate(79.02907407407407 46.86666666666666)"/><path d="M1060 266c0-3.3 2.7-6 6-6h148c3.3 0 6 2.7 6 6v48c0 3.3-2.7 6-6 6h-148c-3.3 0-6-2.7-6-6z" stroke="#0c7cba" stroke-width="3" fill="#fff"/><use xlink:href="#h" transform="matrix(1,0,0,1,1065,265) translate(44.78401104938273 30.27774222222222)"/><path d="M1165.98 154.5c0 17.38-28.2 31.48-63 31.48-34.78 0-62.98-14.1-62.98-31.5s28.2-31.5 63-31.5c34.78 0 62.98 14.1 62.98 31.5z" stroke="#fcc438" stroke-width="3" fill="#fff"/><use xlink:href="#b" transform="matrix(1,0,0,1,1045,127.99212598425197) translate(49.36302469135802 31.027777777777775)"/><path d="M1103.45 188.37l36.1 69.24" stroke="#5e5e5e" stroke-width="2" fill="none"/><path d="M1103 187.5l1.1-.05.25.48-1.77.93-.74-1.42zM1141.13 258.5h-2.26l-.23-.45 1.77-.92z" fill="#5e5e5e"/><path d="M1307.98 160.1c0 17.4-28.2 31.5-63 31.5-34.78 0-62.98-14.1-62.98-31.5s28.2-31.5 63-31.5c34.78 0 62.98 14.1 62.98 31.5z" stroke="#fcc438" stroke-width="3" fill="#fff"/><use xlink:href="#e" transform="matrix(1,0,0,1,1187,133.607874015748) translate(33.99265432098766 31.027777777777775)"/><path d="M1244.14 193.63l-103.3 64.34" stroke="#5e5e5e" stroke-width="2" fill="none"/><path d="M1244.65 194.5l-.9-1.45 1.24.05 1.98-.06zM1141.2 258.5h-3.1l2.24-1.4z" fill="#5e5e5e"/><path d="M407.48 288.5h259.4" stroke="#5e5e5e" stroke-width="2" fill="none"/><path d="M387.93 278.5l20 10-20 10M387.93 288.5h20M407.93 298.5v-20" stroke="#5e5e5e" stroke-width="2" fill="#fff"/><path d="M667.7 289.5h-.84v-2h1.2z" fill="#5e5e5e"/><path d="M859.1 288.5h179.4" stroke="#5e5e5e" stroke-width="2" fill="none"/><path d="M859.13 289.5h-1.2l.35-2h.85z" fill="#5e5e5e"/><path d="M1048.5 278.5v20M1058.5 288.5h-20M1038.5 278.5v20" stroke="#5e5e5e" stroke-width="2" fill="#fff"/><path d="M440 320h208.42v51.6H440z" fill="#fff" fill-opacity="0"/><use xlink:href="#i" transform="matrix(1,0,0,1,445,325) translate(6.935185185185233 13.86666666666666)"/><use xlink:href="#j" transform="matrix(1,0,0,1,445,325) translate(28.60185185185189 13.86666666666666)"/><use xlink:href="#k" transform="matrix(1,0,0,1,445,325) translate(94.46851851851854 13.86666666666666)"/><use xlink:href="#l" transform="matrix(1,0,0,1,445,325) translate(113.19814814814815 13.86666666666666)"/><use xlink:href="#m" transform="matrix(1,0,0,1,445,325) translate(146.42037037037034 13.86666666666666)"/><use xlink:href="#n" transform="matrix(1,0,0,1,445,325) translate(167.0759259259259 13.86666666666666)"/><use xlink:href="#o" transform="matrix(1,0,0,1,445,325) translate(78.41111111111113 34.66666666666665)"/><path d="M860 320h208.42v51.6H860z" fill="#fff" fill-opacity="0"/><use xlink:href="#p" transform="matrix(1,0,0,1,865,325) translate(7.007407407407442 13.86666666666666)"/><use xlink:href="#q" transform="matrix(1,0,0,1,865,325) translate(36.32962962962965 13.86666666666666)"/><use xlink:href="#r" transform="matrix(1,0,0,1,865,325) translate(82.84074074074074 13.86666666666666)"/><use xlink:href="#s" transform="matrix(1,0,0,1,865,325) translate(120.78148148148146 13.86666666666666)"/><use xlink:href="#t" transform="matrix(1,0,0,1,865,325) translate(151.1148148148148 13.86666666666666)"/><use xlink:href="#u" transform="matrix(1,0,0,1,865,325) translate(164.1148148148148 13.86666666666666)"/><use xlink:href="#v" transform="matrix(1,0,0,1,865,325) translate(65.36296296296297 34.66666666666665)"/><path d="M1100 745c0-3.3 2.7-6 6-6h148c3.3 0 6 2.7 6 6v48c0 3.3-2.7 6-6 6h-148c-3.3 0-6-2.7-6-6z" stroke="#0c7cba" stroke-width="3" fill="#fff"/><use xlink:href="#w" transform="matrix(1,0,0,1,1105,744) translate(31.296383703703718 30.27774222222222)"/><path d="M1385.98 630.5c0 17.4-28.2 31.5-63 31.5-34.78 0-62.98-14.1-62.98-31.5s28.2-31.5 63-31.5c34.78 0 62.98 14.1 62.98 31.5z" stroke="#fcc438" stroke-width="3" fill="#fff"/><use xlink:href="#b" transform="matrix(1,0,0,1,1265,604) translate(49.36302469135802 31.027777777777775)"/><path d="M1322.5 664.36L1262 768.14" stroke="#5e5e5e" stroke-width="2" fill="none"/><path d="M1323 663.5l1.17-.04-.83 1.42-1.73-1 .26-.43zM1262.88 768.62l-1.38 2.37v-3.2z" fill="#5e5e5e"/><path d="M1463.98 693.5c0 17.38-28.2 31.48-63 31.48-34.78 0-62.98-14.1-62.98-31.5s28.2-31.5 63-31.5c34.78 0 62.98 14.1 62.98 31.5z" stroke="#fcc438" stroke-width="3" fill="#fff"/><use xlink:href="#e" transform="matrix(1,0,0,1,1343,666.992125984252) translate(33.99265432098766 31.027777777777775)"/><path d="M1400.04 726.78l-137.58 41.93" stroke="#5e5e5e" stroke-width="2" fill="none"/><path d="M1404.15 726.57l-3.85 1.17-.4-1.3 1.1.05 3.1-.1zM1262.77 769.66l-1.27.4v-2.1l.7-.22z" fill="#5e5e5e"/><path d="M880 800.5h208.42v51.6H880z" fill="#fff" fill-opacity="0"/><use xlink:href="#p" transform="matrix(1,0,0,1,885,805.507874015748) translate(10.883333333333368 13.86666666666666)"/><use xlink:href="#x" transform="matrix(1,0,0,1,885,805.507874015748) translate(40.20555555555558 13.86666666666666)"/><use xlink:href="#r" transform="matrix(1,0,0,1,885,805.507874015748) translate(112.18703703703703 13.86666666666666)"/><use xlink:href="#y" transform="matrix(1,0,0,1,885,805.507874015748) translate(150.12777777777774 13.86666666666666)"/><use xlink:href="#z" transform="matrix(1,0,0,1,885,805.507874015748) translate(179.45 13.86666666666666)"/><use xlink:href="#A" transform="matrix(1,0,0,1,885,805.507874015748) translate(36.329629629629665 34.66666666666665)"/><use xlink:href="#B" transform="matrix(1,0,0,1,885,805.507874015748) translate(68.54074074074076 34.66666666666665)"/><path d="M420 800h208.42v72.4H420z" fill="#fff" fill-opacity="0"/><use xlink:href="#p" transform="matrix(1,0,0,1,425,805) translate(3.733333333333377 13.86666666666666)"/><use xlink:href="#C" transform="matrix(1,0,0,1,425,805) translate(33.055555555555586 13.86666666666666)"/><use xlink:href="#D" transform="matrix(1,0,0,1,425,805) translate(129.1111111111111 13.86666666666666)"/><use xlink:href="#l" transform="matrix(1,0,0,1,425,805) translate(30.575925925925958 34.66666666666665)"/><use xlink:href="#E" transform="matrix(1,0,0,1,425,805) translate(63.798148148148165 34.66666666666665)"/><use xlink:href="#y" transform="matrix(1,0,0,1,425,805) translate(75.78703703703705 34.66666666666665)"/><use xlink:href="#F" transform="matrix(1,0,0,1,425,805) translate(105.10925925925926 34.66666666666665)"/><path d="M751.64 722.68c2.97-1.48 7.77-1.48 10.73 0l86.28 43.14c2.96 1.48 2.96 3.9 0 5.37l-86.28 43.12c-2.96 1.5-7.76 1.5-10.73 0l-86.27-43.13c-2.97-1.5-2.97-3.9 0-5.38z" stroke="#83bbe5" stroke-width="3" fill="#fff"/><use xlink:href="#g" transform="matrix(1,0,0,1,665,725) translate(79.02907407407407 46.86666666666666)"/><path d="M685.98 151.5c0 17.4-28.2 31.5-63 31.5-34.78 0-62.98-14.1-62.98-31.5s28.2-31.5 63-31.5c34.78 0 62.98 14.1 62.98 31.5z" stroke="#fcc438" stroke-width="3" fill="#fff"/><use xlink:href="#G" transform="matrix(1,0,0,1,565,125) translate(18.560555555555563 31.027777777777775)"/><path d="M569.36 170.95l-182.94 66.37" stroke="#5e5e5e" stroke-width="2" fill="none"/><path d="M569.94 170.37l1.4.93-1.66.6-.68-1.88.35-.13zM386.78 238.26l-.52.2-1.56-1.58 1.4-.5z" fill="#5e5e5e"/><path d="M208.98 746.5c0-3.3 2.68-6 6-6h148c3.3 0 6 2.7 6 6v48c0 3.32-2.7 6-6 6h-148c-3.32 0-6-2.68-6-6z" stroke="#0c7cba" stroke-width="3" fill="#fff"/><use xlink:href="#H" transform="matrix(1,0,0,1,213.9763779527559,745.507874015748) translate(15.864315802469143 30.27774222222222)"/><path d="M291.97 656.6c0 17.4-28.2 31.5-63 31.5-34.78 0-63-14.1-63-31.5s28.22-31.5 63-31.5c34.8 0 63 14.1 63 31.5z" stroke="#fcc438" stroke-width="3" fill="#fff"/><use xlink:href="#b" transform="matrix(1,0,0,1,170.98425196850394,630.107874015748) translate(49.36302469135802 31.027777777777775)"/><path d="M229.46 690.48l26.4 47.65" stroke="#5e5e5e" stroke-width="2" fill="none"/><path d="M228.97 689.6l1.13-.03.25.44-1.75.98-.8-1.42zM257.5 739h-2.3l-.22-.4 1.75-.97z" fill="#5e5e5e"/><path d="M145.98 656.6c0 17.4-28.2 31.5-63 31.5C48.2 688.1 20 674 20 656.6s28.2-31.5 63-31.5c34.78 0 62.98 14.1 62.98 31.5z" stroke="#fcc438" stroke-width="3" fill="#fff"/><use xlink:href="#I" transform="matrix(1,0,0,1,25,630.107874015748) translate(8.714876543209877 31.027777777777775)"/><path d="M135.4 676.98l120.07 61.57" stroke="#5e5e5e" stroke-width="2" fill="none"/><path d="M135.88 676.1l-.9 1.78-1.43-.73 1.88-1.23.04-.03zM258.55 739h-3.35l.7-1.35z" fill="#5e5e5e"/><path d="M60 520h208.42v63H60z" fill="#fff" fill-opacity="0"/><use xlink:href="#p" transform="matrix(1,0,0,1,65,525) translate(7.512962962963002 13.86666666666666)"/><use xlink:href="#C" transform="matrix(1,0,0,1,65,525) translate(36.83518518518521 13.86666666666666)"/><use xlink:href="#J" transform="matrix(1,0,0,1,65,525) translate(132.8907407407407 13.86666666666666)"/><use xlink:href="#s" transform="matrix(1,0,0,1,65,525) translate(27.59074074074077 34.66666666666665)"/><use xlink:href="#t" transform="matrix(1,0,0,1,65,525) translate(57.924074074074085 34.66666666666665)"/><use xlink:href="#A" transform="matrix(1,0,0,1,65,525) translate(70.92407407407408 34.66666666666665)"/><use xlink:href="#v" transform="matrix(1,0,0,1,65,525) translate(103.13518518518518 34.66666666666665)"/><path d="M209.12 205c0 17.4-33.4 31.5-74.56 31.5C93.38 236.5 60 222.4 60 205s33.38-31.5 74.56-31.5c41.17 0 74.56 14.1 74.56 31.5z" stroke="#fcc438" stroke-width="3" fill="#fff"/><use xlink:href="#K" transform="matrix(1,0,0,1,65,178.51181102362204) translate(2.2222222222222285 30.944444444444443)"/><path d="M194.3 226.16l110.7 8.76" stroke="#5e5e5e" stroke-width="2" fill="none"/><path d="M194.24 227.16l-2.68-.22 2.6-1.3.2-.1zM309.05 234.24l-.06.76h-4.04l.08-1.07z" fill="#5e5e5e"/><path d="M300.62 422.68c2.96-1.48 7.77-1.48 10.73 0l86.28 43.14c2.96 1.48 2.96 3.9 0 5.37l-86.28 43.12c-2.96 1.5-7.77 1.5-10.73 0l-86.28-43.13c-2.96-1.5-2.96-3.9 0-5.38z" stroke="#83bbe5" stroke-width="3" fill="#fff"/><use xlink:href="#g" transform="matrix(1,0,0,1,213.9763779527559,425) translate(79.02907407407407 46.86666666666666)"/><path d="M305.98 318v101.16" stroke="#5e5e5e" stroke-width="2" fill="none"/><path d="M315.98 298.45l-10 20-10-20M305.98 298.45v20M295.98 318.45h20" stroke="#5e5e5e" stroke-width="2" fill="#fff"/><path d="M306.98 420.1l-2 .12v-1.1h2z" fill="#5e5e5e"/><path d="M305.98 517.85V719" stroke="#5e5e5e" stroke-width="2" fill="none"/><path d="M306.98 517.88h-2v-.96l2-.14z" fill="#5e5e5e"/><path d="M315.98 729h-20M305.98 739v-20M315.98 719h-20" stroke="#5e5e5e" stroke-width="2" fill="#fff"/><path d="M60 340h208.42v60H60z" fill="#fff" fill-opacity="0"/><use xlink:href="#i" transform="matrix(1,0,0,1,65,345) translate(0.05000000000002558 13.86666666666666)"/><use xlink:href="#j" transform="matrix(1,0,0,1,65,345) translate(21.716666666666683 13.86666666666666)"/><use xlink:href="#L" transform="matrix(1,0,0,1,65,345) translate(87.58333333333333 13.86666666666666)"/><use xlink:href="#l" transform="matrix(1,0,0,1,65,345) translate(158.0722222222222 13.86666666666666)"/><use xlink:href="#M" transform="matrix(1,0,0,1,65,345) translate(191.29444444444442 13.86666666666666)"/><use xlink:href="#y" transform="matrix(1,0,0,1,65,345) translate(41.144444444444474 34.66666666666665)"/><use xlink:href="#N" transform="matrix(1,0,0,1,65,345) translate(70.46666666666668 34.66666666666665)"/><path d="M660.9 768.5H390.48" stroke="#5e5e5e" stroke-width="2" fill="none"/><path d="M661.72 769.5h-.85v-2h1.2z" fill="#5e5e5e"/><path d="M370.92 758.5l20 10-20 10M370.92 768.5h20M390.92 778.5v-20" stroke="#5e5e5e" stroke-width="2" fill="#fff"/><path d="M1078.5 769H975.56c-.14 0-.25-.1-.25-.25 0-.14-.1-.25-.24-.25H853.12" stroke="#5e5e5e" stroke-width="2" fill="none"/><path d="M1088.5 759v20M1098.5 769h-20M1078.5 759v20" stroke="#5e5e5e" stroke-width="2" fill="#fff"/><path d="M853.14 769.5h-1.2l.36-2h.84z" fill="#5e5e5e"/><path d="M1511.97 785.5c0 17.4-28.2 31.5-63 31.5-34.78 0-63-14.1-63-31.5 0-17.38 28.22-31.48 63-31.48 34.8 0 63 14.1 63 31.5z" stroke="#fcc438" stroke-width="3" fill="#fff"/><g><use xlink:href="#I" transform="matrix(1,0,0,1,1390.984251968504,759.015748031496) translate(8.714876543209877 31.027777777777775)"/></g><path d="M1383.5 785.38l-121-16.25" stroke="#5e5e5e" stroke-width="2" fill="none"/><path d="M1384.52 784.5l-.04 1 .04 1.03-1.2-.16.28-2zM1262.65 768.15l-.27 1.98-.88-.12v-2z" fill="#5e5e5e"/><path d="M145.98 731.5c0 17.4-28.2 31.5-63 31.5C48.2 763 20 748.9 20 731.5S48.2 700 83 700c34.78 0 62.98 14.1 62.98 31.5z" stroke="#fcc438" stroke-width="3" fill="#fff"/><g><use xlink:href="#e" transform="matrix(1,0,0,1,25,705) translate(33.99265432098766 31.027777777777775)"/></g><path d="M146.82 739h108.54" stroke="#5e5e5e" stroke-width="2" fill="none"/><path d="M146.85 740h-1.5l.68-1.43.2-.56h.62zM259.36 739h-4.03v-1h4.03z" fill="#5e5e5e"/><path d="M165.98 811.5c0 17.4-28.2 31.5-63 31.5C68.2 843 40 828.9 40 811.5S68.2 780 103 780c34.78 0 62.98 14.1 62.98 31.5z" stroke="#fcc438" stroke-width="3" fill="#fff"/><g><use xlink:href="#O" transform="matrix(1,0,0,1,45,785) translate(5.65932098765432 31.027777777777775)"/></g><path d="M168.18 810.78l38.6-39.56" stroke="#5e5e5e" stroke-width="2" fill="none"/><path d="M168.92 811.46l-1.5 1.54v-.1l.07-1.4-.05-1.1-.03-.27.07-.07zM207.48 771.94l-1.44-1.4 1.44-1.46z" fill="#5e5e5e"/><path d="M453.2 68.5c0 17.4-28.22 31.5-63 31.5-34.8 0-63-14.1-63-31.5s28.2-31.5 63-31.5c34.78 0 63 14.1 63 31.5z" stroke="#fcc438" stroke-width="3" fill="#fff"/><g><use xlink:href="#P" transform="matrix(1,0,0,1,332.20138524351125,42.00787401574803) translate(37.07907407407408 31.027777777777775)"/></g><path d="M660 13.4c0-4.43 3.58-8 8-8h444c4.42 0 8 3.57 8 8v90c0 4.4-3.58 8-8 8H668c-4.42 0-8-3.6-8-8z" stroke="#000" stroke-opacity="0" fill="#fff" fill-opacity="0"/><g><use xlink:href="#Q" transform="matrix(1,0,0,1,665,10.392125984252004) translate(31.333333333333314 54.677083333333336)"/><use xlink:href="#R" transform="matrix(1,0,0,1,665,10.392125984252004) translate(100.07407407407406 54.677083333333336)"/><use xlink:href="#S" transform="matrix(1,0,0,1,665,10.392125984252004) translate(337.40740740740745 54.677083333333336)"/></g><defs><path d="M92-112c43 4 61-13 61-54s-18-54-61-50v104zm118-54c0 63-50 78-118 74v74l39 5V0H8v-13l28-5v-200l-30-5v-13c88 3 205-20 204 70" id="T"/><path d="M132-132c-21 0-37 9-50 16v100l26 4V0H10v-12l21-4v-133l-21-5v-11h69l2 34c17-18 35-41 71-40v61c-17 3-14-14-20-22" id="U"/><path d="M90-170c54-1 76 32 76 87 1 56-23 87-77 87-53 0-75-32-75-87s23-86 76-87zM89-14c28-2 26-38 26-69s3-69-26-69c-27 0-24 39-24 69s-3 66 24 69" id="V"/><path d="M15-82c-4-69 47-101 113-83l-1-69-17-4v-12h68v234l18 4V0h-63l-4-9C77 23 5-9 15-82zm112-66c-43-16-64 17-61 65 2 33 3 67 32 67 12 0 22-3 29-8v-124" id="W"/><path d="M73-51c-3 31 27 38 51 25v-123l-16-5v-11h66v149l17 4V0h-65l-2-14C94 9 22 18 22-44v-105l-17-5v-11h68v114" id="X"/><path d="M109-18c15 0 31-2 42-6v14c-11 9-31 13-51 13-59 0-86-28-88-86-3-75 66-101 135-80v48h-13c-3-20-7-40-34-37-51 7-55 138 9 134" id="Y"/><path d="M78-41c-2 24 21 26 40 20C122 3 98 2 77 4 5 10 32-84 27-147H6v-11l25-7 21-38h26v38h35v18H78v106" id="Z"/><g id="a"><use transform="matrix(0.06172827160493826,0,0,0.06172827160493826,0,0)" xlink:href="#T"/><use transform="matrix(0.06172827160493826,0,0,0.06172827160493826,13.51849148148148,0)" xlink:href="#U"/><use transform="matrix(0.06172827160493826,0,0,0.06172827160493826,22.901188765432096,0)" xlink:href="#V"/><use transform="matrix(0.06172827160493826,0,0,0.06172827160493826,34.01227765432098,0)" xlink:href="#W"/><use transform="matrix(0.06172827160493826,0,0,0.06172827160493826,46.35793197530863,0)" xlink:href="#X"/><use transform="matrix(0.06172827160493826,0,0,0.06172827160493826,58.70358629629628,0)" xlink:href="#Y"/><use transform="matrix(0.06172827160493826,0,0,0.06172827160493826,68.51838148148147,0)" xlink:href="#Z"/></g><path fill="#333" d="M47-200c-23 0-25-39 0-38 13 0 18 7 20 19-1 11-8 19-20 19zM65-12l28 4v8H8v-8l28-4v-141l-24-4v-8h53v153" id="aa"/><path fill="#333" d="M13-81c0-71 46-101 114-85l-1-72-28-4v-8h57v238c8 3 24-2 21 12h-47l-2-12C80 23 13-1 13-81zm77-74c-37 1-44 33-45 74 0 38 9 66 45 66 14 0 27-3 36-7v-130c-10-1-24-3-36-3" id="ab"/><g id="b"><use transform="matrix(0.061728395061728385,0,0,0.061728395061728385,0,0)" xlink:href="#aa"/><use transform="matrix(0.061728395061728385,0,0,0.061728395061728385,6.1728395061728385,0)" xlink:href="#ab"/><path fill="#333" d="M5.06 1.88H18.4v1.1H5.05z"/></g><path fill="#333" d="M32-163c41-10 102-14 102 39v112c8 3 24-2 21 12h-45l-4-17C83 13 3 13 13-46c-2-50 45-50 92-51 4-36-5-70-42-56-6 2-12 4-16 6-4 7 0 23-15 20v-36zM42-47c0 41 41 33 63 22v-59c-34 1-63-1-63 37" id="ac"/><path fill="#333" d="M164-154L98 4H85L17-153c-7-3-20 0-17-12h77v8l-26 4L99-38l46-115-26-4v-8h61v8" id="ad"/><path fill="#333" d="M65-12l28 4v8H7v-8l28-4v-226l-28-4v-8h58v238" id="ae"/><path fill="#333" d="M53-14c58 12 82-15 82-73 0-52-35-77-82-58v131zM89 4C64 4 42-2 24-9v-229l-24-4v-8h53l-1 94c48-33 114-4 114 69 0 57-23 91-77 91" id="af"/><path fill="#333" d="M84-170c49 0 66 33 63 87H46c-8 60 38 80 95 63v10C128-2 108 4 88 4 34 4 14-29 14-84c-1-54 22-86 70-86zm33 73c12-57-57-82-69-24-1 7-2 15-2 24h71" id="ag"/><g id="c"><use transform="matrix(0.061728395061728385,0,0,0.061728395061728385,0,0)" xlink:href="#ac"/><use transform="matrix(0.061728395061728385,0,0,0.061728395061728385,9.814814814814813,0)" xlink:href="#ad"/><use transform="matrix(0.061728395061728385,0,0,0.061728395061728385,20.925925925925924,0)" xlink:href="#ac"/><use transform="matrix(0.061728395061728385,0,0,0.061728395061728385,30.740740740740737,0)" xlink:href="#aa"/><use transform="matrix(0.061728395061728385,0,0,0.061728395061728385,36.913580246913575,0)" xlink:href="#ae"/><use transform="matrix(0.061728395061728385,0,0,0.061728395061728385,43.08641975308642,0)" xlink:href="#ac"/><use transform="matrix(0.061728395061728385,0,0,0.061728395061728385,52.90123456790123,0)" xlink:href="#af"/><use transform="matrix(0.061728395061728385,0,0,0.061728395061728385,64.01234567901234,0)" xlink:href="#ae"/><use transform="matrix(0.061728395061728385,0,0,0.061728395061728385,70.18518518518518,0)" xlink:href="#ag"/></g><path fill="#333" d="M166-85c3 67-44 102-111 85l1 64 29 4v9H6v-9l21-4v-217c-7-3-22 1-19-12h46l1 9c11-8 26-14 45-14 47 2 64 36 66 85zM56-13c53 14 83-14 78-72 7-53-33-79-78-60v132" id="ah"/><path fill="#333" d="M57-145c16-10 35-24 60-25v45c-19 1-8-30-40-17l-20 6v124l29 4v8H7v-8l21-4v-141c-8-3-24 2-21-12h48" id="ai"/><path fill="#333" d="M124-13C89 8 26 15 26-45v-108c-8-3-24 2-21-12h50v118c-3 37 42 32 69 25v-131l-25-4v-8h54v153c8 3 24-2 21 12h-48" id="aj"/><path fill="#333" d="M45-84c0 64 52 80 104 63 1 25-30 25-55 25-56 0-80-32-80-88 0-76 62-98 131-80v46h-10c-5-15-4-31-23-35-47-10-67 21-67 69" id="ak"/><path fill="#333" d="M126-119c3-38-42-31-69-25v132l23 4v8H7v-8l21-4v-226l-24-4v-8h53l-1 98c31-22 99-31 99 31v109c7 3 23-1 20 12h-71v-8l22-4v-107" id="al"/><path fill="#333" d="M41-130c7 48 86 23 86 84 0 56-69 57-112 41v-40c20 0 9 29 31 31 35 19 77-26 41-50-27-18-72-13-72-59 0-50 58-52 100-41v36c-19 1-8-25-28-25-21-7-50-1-46 23" id="am"/><path fill="#333" d="M-3 46V28h186v18H-3" id="an"/><g id="d"><use transform="matrix(0.061728395061728385,0,0,0.061728395061728385,0,0)" xlink:href="#ah"/><use transform="matrix(0.061728395061728385,0,0,0.061728395061728385,11.111111111111109,0)" xlink:href="#ai"/><use transform="matrix(0.061728395061728385,0,0,0.061728395061728385,18.456790123456788,0)" xlink:href="#aj"/><use transform="matrix(0.061728395061728385,0,0,0.061728395061728385,29.5679012345679,0)" xlink:href="#ak"/><use transform="matrix(0.061728395061728385,0,0,0.061728395061728385,39.38271604938271,0)" xlink:href="#al"/><use transform="matrix(0.061728395061728385,0,0,0.061728395061728385,50.493827160493815,0)" xlink:href="#ac"/><use transform="matrix(0.061728395061728385,0,0,0.061728395061728385,60.30864197530863,0)" xlink:href="#am"/><use transform="matrix(0.061728395061728385,0,0,0.061728395061728385,68.9506172839506,0)" xlink:href="#ag"/><use transform="matrix(0.061728395061728385,0,0,0.061728395061728385,78.76543209876542,0)" xlink:href="#an"/><use transform="matrix(0.061728395061728385,0,0,0.061728395061728385,89.87654320987653,0)" xlink:href="#ah"/><use transform="matrix(0.061728395061728385,0,0,0.061728395061728385,100.98765432098764,0)" xlink:href="#ai"/><use transform="matrix(0.061728395061728385,0,0,0.061728395061728385,108.33333333333333,0)" xlink:href="#aa"/><use transform="matrix(0.061728395061728385,0,0,0.061728395061728385,114.50617283950616,0)" xlink:href="#ak"/><use transform="matrix(0.061728395061728385,0,0,0.061728395061728385,124.32098765432097,0)" xlink:href="#ag"/></g><path fill="#333" d="M125-118c4-37-41-34-68-26v132l23 4v8H8C5-13 21-9 28-12v-141c-7-3-23 1-20-12h47l2 13c31-23 98-29 98 31v109c7 3 23-1 20 12h-72v-8l22-4v-106" id="ao"/><path fill="#333" d="M126-118c4-37-42-32-68-25v131l24 4v8H8C5-13 21-9 28-12v-141c-7-3-23 1-20-12h48l1 13c22-15 77-30 92 2 32-22 104-36 104 29v109c8 3 24-2 21 12h-75v-8l25-4v-106c3-39-45-31-72-24 7 37 1 88 3 130l25 4v8h-78v-8l24-4v-106" id="ap"/><g id="e"><use transform="matrix(0.061728395061728385,0,0,0.061728395061728385,0,0)" xlink:href="#ao"/><use transform="matrix(0.061728395061728385,0,0,0.061728395061728385,11.111111111111109,0)" xlink:href="#ac"/><use transform="matrix(0.061728395061728385,0,0,0.061728395061728385,20.925925925925924,0)" xlink:href="#ap"/><use transform="matrix(0.061728395061728385,0,0,0.061728395061728385,38.20987654320987,0)" xlink:href="#ag"/></g><g id="f"><use transform="matrix(0.061728395061728385,0,0,0.061728395061728385,0,0)" xlink:href="#am"/><use transform="matrix(0.061728395061728385,0,0,0.061728395061728385,8.641975308641975,0)" xlink:href="#ac"/><use transform="matrix(0.061728395061728385,0,0,0.061728395061728385,18.456790123456788,0)" xlink:href="#ae"/><use transform="matrix(0.061728395061728385,0,0,0.061728395061728385,24.629629629629626,0)" xlink:href="#ag"/><use transform="matrix(0.061728395061728385,0,0,0.061728395061728385,34.44444444444444,0)" xlink:href="#an"/><use transform="matrix(0.061728395061728385,0,0,0.061728395061728385,45.55555555555555,0)" xlink:href="#ah"/><use transform="matrix(0.061728395061728385,0,0,0.061728395061728385,56.66666666666666,0)" xlink:href="#ai"/><use transform="matrix(0.061728395061728385,0,0,0.061728395061728385,64.01234567901234,0)" xlink:href="#aa"/><use transform="matrix(0.061728395061728385,0,0,0.061728395061728385,70.18518518518518,0)" xlink:href="#ak"/><use transform="matrix(0.061728395061728385,0,0,0.061728395061728385,79.99999999999999,0)" xlink:href="#ag"/></g><path fill="#202124" d="M110-14l48 5v9H32v-9l48-5v-192l-48 17v-10l69-39h9v224" id="aq"/><path fill="#202124" d="M50-37c14 0 21 9 21 21S62 5 50 5C37 5 28-4 28-16s8-21 22-21zm0-132c12 0 21 9 21 21 0 13-9 22-21 22-13 0-22-9-22-22 0-12 9-21 22-21" id="ar"/><path fill="#202124" d="M203-222l-32-4v-10h81v10l-31 4V0h-17L59-212v198l32 5v9H10v-9l31-5v-208l-31-4v-10h72L203-61v-161" id="as"/><g id="g"><use transform="matrix(0.04814814814814813,0,0,0.04814814814814813,0,0)" xlink:href="#aq"/><use transform="matrix(0.04814814814814813,0,0,0.04814814814814813,8.666666666666663,0)" xlink:href="#ar"/><use transform="matrix(0.04814814814814813,0,0,0.04814814814814813,13.481481481481476,0)" xlink:href="#as"/></g><path d="M92-134c39 3 62-4 62-44 0-37-25-40-62-38v82zm0 115c49 5 80-2 80-50 0-44-34-49-80-46v96zm138-50C230 26 101-4 6 0v-13l30-5v-200l-30-5v-13c79 7 206-26 206 54 0 33-22 49-49 56 39 3 67 18 67 57" id="at"/><path d="M31-163c51-5 127-20 127 40v107l17 4V0h-61l-4-13C82 13 12 12 12-46c0-51 46-52 95-53 9-45-22-69-57-44l-7 20H31v-40zM62-47c0 30 26 34 45 23v-59c-28 0-45 6-45 36" id="au"/><path d="M127-114c3-31-26-38-50-25v123l15 4V0H10v-12l16-4v-133l-16-5v-11h64l2 14c31-23 102-32 102 30v105l17 4V0h-82v-12l14-4v-98" id="av"/><g id="h"><use transform="matrix(0.06172827160493826,0,0,0.06172827160493826,0,0)" xlink:href="#at"/><use transform="matrix(0.06172827160493826,0,0,0.06172827160493826,14.814785185185183,0)" xlink:href="#U"/><use transform="matrix(0.06172827160493826,0,0,0.06172827160493826,24.629580370370366,0)" xlink:href="#au"/><use transform="matrix(0.06172827160493826,0,0,0.06172827160493826,35.74066925925925,0)" xlink:href="#av"/><use transform="matrix(0.06172827160493826,0,0,0.06172827160493826,48.0863235802469,0)" xlink:href="#W"/></g><path fill="#202124" d="M124-13C89 8 26 15 26-45v-108c-8-3-24 2-21-12h50v118c-3 37 42 32 69 25v-131l-25-4v-8h54v153c8 3 24-2 21 12h-48" id="aw"/><path fill="#202124" d="M125-118c4-37-41-34-68-26v132l23 4v8H8C5-13 21-9 28-12v-141c-7-3-23 1-20-12h47l2 13c31-23 98-29 98 31v109c7 3 23-1 20 12h-72v-8l22-4v-106" id="ax"/><g id="i"><use transform="matrix(0.04814814814814813,0,0,0.04814814814814813,0,0)" xlink:href="#aw"/><use transform="matrix(0.04814814814814813,0,0,0.04814814814814813,8.666666666666663,0)" xlink:href="#ax"/></g><path fill="#202124" d="M166-85c3 67-44 102-111 85l1 64 29 4v9H6v-9l21-4v-217c-7-3-22 1-19-12h46l1 9c11-8 26-14 45-14 47 2 64 36 66 85zM56-13c53 14 83-14 78-72 7-53-33-79-78-60v132" id="ay"/><path fill="#202124" d="M57-145c16-10 35-24 60-25v45c-19 1-8-30-40-17l-20 6v124l29 4v8H7v-8l21-4v-141c-8-3-24 2-21-12h48" id="az"/><path fill="#202124" d="M90-170c52 0 76 32 76 87 0 54-24 87-77 87-51 0-75-34-75-87 0-54 24-87 76-87zM89-10c39 0 46-35 46-73 0-39-7-73-46-73-39 1-44 34-44 73s6 72 44 73" id="aA"/><path fill="#202124" d="M13-81c0-71 46-101 114-85l-1-72-28-4v-8h57v238c8 3 24-2 21 12h-47l-2-12C80 23 13-1 13-81zm77-74c-37 1-44 33-45 74 0 38 9 66 45 66 14 0 27-3 36-7v-130c-10-1-24-3-36-3" id="aB"/><path fill="#202124" d="M45-84c0 64 52 80 104 63 1 25-30 25-55 25-56 0-80-32-80-88 0-76 62-98 131-80v46h-10c-5-15-4-31-23-35-47-10-67 21-67 69" id="aC"/><path fill="#202124" d="M54-38c-1 25 24 26 44 20v12C71 10 25 9 25-35v-115H4c-2-14 14-10 21-15l18-38h11v38h38v15H54v112" id="aD"/><g id="j"><use transform="matrix(0.04814814814814813,0,0,0.04814814814814813,0,0)" xlink:href="#ay"/><use transform="matrix(0.04814814814814813,0,0,0.04814814814814813,8.666666666666663,0)" xlink:href="#az"/><use transform="matrix(0.04814814814814813,0,0,0.04814814814814813,14.396296296296287,0)" xlink:href="#aA"/><use transform="matrix(0.04814814814814813,0,0,0.04814814814814813,23.06296296296295,0)" xlink:href="#aB"/><use transform="matrix(0.04814814814814813,0,0,0.04814814814814813,31.729629629629617,0)" xlink:href="#aw"/><use transform="matrix(0.04814814814814813,0,0,0.04814814814814813,40.39629629629628,0)" xlink:href="#aC"/><use transform="matrix(0.04814814814814813,0,0,0.04814814814814813,48.05185185185183,0)" xlink:href="#aD"/><use transform="matrix(0.04814814814814813,0,0,0.04814814814814813,52.866666666666646,0)" xlink:href="#aA"/></g><path fill="#202124" d="M84-170c49 0 66 33 63 87H46c-8 60 38 80 95 63v10C128-2 108 4 88 4 34 4 14-29 14-84c-1-54 22-86 70-86zm33 73c12-57-57-82-69-24-1 7-2 15-2 24h71" id="aE"/><path fill="#202124" d="M41-130c7 48 86 23 86 84 0 56-69 57-112 41v-40c20 0 9 29 31 31 35 19 77-26 41-50-27-18-72-13-72-59 0-50 58-52 100-41v36c-19 1-8-25-28-25-21-7-50-1-46 23" id="aF"/><g id="k"><use transform="matrix(0.04814814814814813,0,0,0.04814814814814813,0,0)" xlink:href="#aE"/><use transform="matrix(0.04814814814814813,0,0,0.04814814814814813,7.655555555555552,0)" xlink:href="#aF"/></g><path fill="#202124" d="M65-12l28 4v8H7v-8l28-4v-226l-28-4v-8h58v238" id="aG"/><g id="l"><use transform="matrix(0.04814814814814813,0,0,0.04814814814814813,0,0)" xlink:href="#aF"/><use transform="matrix(0.04814814814814813,0,0,0.04814814814814813,6.740740740740738,0)" xlink:href="#aA"/><use transform="matrix(0.04814814814814813,0,0,0.04814814814814813,15.407407407407401,0)" xlink:href="#aG"/><use transform="matrix(0.04814814814814813,0,0,0.04814814814814813,20.222222222222214,0)" xlink:href="#aA"/></g><g id="m"><use transform="matrix(0.04814814814814813,0,0,0.04814814814814813,0,0)" xlink:href="#aB"/><use transform="matrix(0.04814814814814813,0,0,0.04814814814814813,8.666666666666663,0)" xlink:href="#aE"/></g><path fill="#202124" d="M32-163c41-10 102-14 102 39v112c8 3 24-2 21 12h-45l-4-17C83 13 3 13 13-46c-2-50 45-50 92-51 4-36-5-70-42-56-6 2-12 4-16 6-4 7 0 23-15 20v-36zM42-47c0 41 41 33 63 22v-59c-34 1-63-1-63 37" id="aH"/><g id="n"><use transform="matrix(0.04814814814814813,0,0,0.04814814814814813,0,0)" xlink:href="#aw"/><use transform="matrix(0.04814814814814813,0,0,0.04814814814814813,8.666666666666663,0)" xlink:href="#ax"/><use transform="matrix(0.04814814814814813,0,0,0.04814814814814813,17.333333333333325,0)" xlink:href="#aH"/></g><path fill="#202124" d="M126-118c4-37-42-32-68-25v131l24 4v8H8C5-13 21-9 28-12v-141c-7-3-23 1-20-12h48l1 13c22-15 77-30 92 2 32-22 104-36 104 29v109c8 3 24-2 21 12h-75v-8l25-4v-106c3-39-45-31-72-24 7 37 1 88 3 130l25 4v8h-78v-8l24-4v-106" id="aI"/><g id="o"><use transform="matrix(0.04814814814814813,0,0,0.04814814814814813,0,0)" xlink:href="#aI"/><use transform="matrix(0.04814814814814813,0,0,0.04814814814814813,13.481481481481476,0)" xlink:href="#aH"/><use transform="matrix(0.04814814814814813,0,0,0.04814814814814813,21.13703703703703,0)" xlink:href="#az"/><use transform="matrix(0.04814814814814813,0,0,0.04814814814814813,26.866666666666656,0)" xlink:href="#aC"/><use transform="matrix(0.04814814814814813,0,0,0.04814814814814813,34.52222222222221,0)" xlink:href="#aH"/></g><g id="p"><use transform="matrix(0.04814814814814813,0,0,0.04814814814814813,0,0)" xlink:href="#aw"/><use transform="matrix(0.04814814814814813,0,0,0.04814814814814813,8.666666666666663,0)" xlink:href="#ax"/><use transform="matrix(0.04814814814814813,0,0,0.04814814814814813,17.333333333333325,0)" xlink:href="#aH"/></g><g id="q"><use transform="matrix(0.04814814814814813,0,0,0.04814814814814813,0,0)" xlink:href="#aI"/><use transform="matrix(0.04814814814814813,0,0,0.04814814814814813,13.481481481481476,0)" xlink:href="#aH"/><use transform="matrix(0.04814814814814813,0,0,0.04814814814814813,21.13703703703703,0)" xlink:href="#az"/><use transform="matrix(0.04814814814814813,0,0,0.04814814814814813,26.866666666666656,0)" xlink:href="#aC"/><use transform="matrix(0.04814814814814813,0,0,0.04814814814814813,34.52222222222221,0)" xlink:href="#aH"/></g><path fill="#202124" d="M47-200c-23 0-25-39 0-38 13 0 18 7 20 19-1 11-8 19-20 19zM65-12l28 4v8H8v-8l28-4v-141l-24-4v-8h53v153" id="aJ"/><g id="r"><use transform="matrix(0.04814814814814813,0,0,0.04814814814814813,0,0)" xlink:href="#aD"/><use transform="matrix(0.04814814814814813,0,0,0.04814814814814813,4.814814814814813,0)" xlink:href="#aJ"/><use transform="matrix(0.04814814814814813,0,0,0.04814814814814813,9.629629629629626,0)" xlink:href="#aE"/><use transform="matrix(0.04814814814814813,0,0,0.04814814814814813,17.285185185185178,0)" xlink:href="#ax"/><use transform="matrix(0.04814814814814813,0,0,0.04814814814814813,25.951851851851842,0)" xlink:href="#aE"/></g><g id="s"><use transform="matrix(0.04814814814814813,0,0,0.04814814814814813,0,0)" xlink:href="#aw"/><use transform="matrix(0.04814814814814813,0,0,0.04814814814814813,8.666666666666663,0)" xlink:href="#ax"/><use transform="matrix(0.04814814814814813,0,0,0.04814814814814813,17.333333333333325,0)" xlink:href="#aA"/></g><use transform="matrix(0.04814814814814813,0,0,0.04814814814814813,0,0)" xlink:href="#aA" id="t"/><g id="u"><use transform="matrix(0.04814814814814813,0,0,0.04814814814814813,0,0)" xlink:href="#aI"/><use transform="matrix(0.04814814814814813,0,0,0.04814814814814813,13.481481481481476,0)" xlink:href="#aH"/><use transform="matrix(0.04814814814814813,0,0,0.04814814814814813,21.13703703703703,0)" xlink:href="#aF"/></g><g id="v"><use transform="matrix(0.04814814814814813,0,0,0.04814814814814813,0,0)" xlink:href="#ay"/><use transform="matrix(0.04814814814814813,0,0,0.04814814814814813,8.666666666666663,0)" xlink:href="#az"/><use transform="matrix(0.04814814814814813,0,0,0.04814814814814813,14.396296296296287,0)" xlink:href="#aA"/><use transform="matrix(0.04814814814814813,0,0,0.04814814814814813,23.06296296296295,0)" xlink:href="#aB"/><use transform="matrix(0.04814814814814813,0,0,0.04814814814814813,31.729629629629617,0)" xlink:href="#aw"/><use transform="matrix(0.04814814814814813,0,0,0.04814814814814813,40.39629629629628,0)" xlink:href="#aC"/><use transform="matrix(0.04814814814814813,0,0,0.04814814814814813,48.05185185185183,0)" xlink:href="#aD"/><use transform="matrix(0.04814814814814813,0,0,0.04814814814814813,52.866666666666646,0)" xlink:href="#aA"/><use transform="matrix(0.04814814814814813,0,0,0.04814814814814813,61.53333333333331,0)" xlink:href="#aF"/></g><path d="M76-116c0 86 71 126 135 84l6-39h16l-1 60C138 21 18 1 18-115c0-117 106-141 210-112l1 57h-16l-5-34c-13-9-32-16-54-16-60 0-78 42-78 104" id="aK"/><path d="M12-83c0-55 22-85 75-86 52-1 66 33 63 88H64c-1 37 6 64 44 63 14 0 28-4 39-6 3 28-28 25-55 27-57 4-80-31-80-86zm90-17c2-26 0-63-27-48-10 9-11 28-11 48h38" id="aL"/><path d="M9 41c2-18 18-26 32-33C29 1 16-9 16-28l29-33c-21-9-31-25-31-51-2-56 61-65 111-53l39-20c13 12-9 24-14 36 35 54-17 114-90 92-17 34 27 28 56 28 36-1 61 12 60 46-2 46-39 62-91 62-38 0-71-6-76-38zm35-3c6 35 97 29 94-9-2-28-50-14-78-17-8 7-15 14-16 26zm20-150c0 22 4 40 23 40 20 0 24-17 24-40 0-24-4-40-24-40-19 0-23 17-23 40" id="aM"/><path d="M81 5L15-149c-7-2-13-5-11-16h84v11l-20 5 39 91 35-91-19-5v-11h53c2 11-4 13-11 15C134-81 111-5 75 58 65 77 34 83 8 74V32h11c0 24 29 35 43 12 7-11 13-25 19-39" id="aN"/><g id="w"><use transform="matrix(0.06172827160493826,0,0,0.06172827160493826,0,0)" xlink:href="#aK"/><use transform="matrix(0.06172827160493826,0,0,0.06172827160493826,15.987622345679009,0)" xlink:href="#au"/><use transform="matrix(0.06172827160493826,0,0,0.06172827160493826,27.098711234567894,0)" xlink:href="#Z"/><use transform="matrix(0.06172827160493826,0,0,0.06172827160493826,34.444375555555546,0)" xlink:href="#aL"/><use transform="matrix(0.06172827160493826,0,0,0.06172827160493826,44.25917074074073,0)" xlink:href="#aM"/><use transform="matrix(0.06172827160493826,0,0,0.06172827160493826,55.370259629629615,0)" xlink:href="#V"/><use transform="matrix(0.06172827160493826,0,0,0.06172827160493826,66.4813485185185,0)" xlink:href="#U"/><use transform="matrix(0.06172827160493826,0,0,0.06172827160493826,76.29614370370368,0)" xlink:href="#aN"/></g><path fill="#202124" d="M141-152c28 39 5 97-54 97-9 0-20-2-27-3L49-35c29 22 130-14 124 52-4 45-38 57-88 61C21 83-8 26 45-2 33-6 22-15 21-31l28-31c-19-9-28-26-28-51-2-51 53-65 100-52l38-20 7 8zM85 64c35 0 61-11 61-42 0-35-57-17-89-21-9 8-16 19-17 34 0 25 19 29 45 29zM52-113c1 26 7 46 35 44 28-1 34-16 35-44 0-26-6-43-34-43s-36 17-36 43" id="aO"/><path fill="#202124" d="M65-12l28 4v8H8v-8l28-4v-141l-24-4v-8h53v153zM34-197c-5 0-12 2-10-5l35-48h37v6" id="aP"/><g id="x"><use transform="matrix(0.04814814814814813,0,0,0.04814814814814813,0,0)" xlink:href="#aC"/><use transform="matrix(0.04814814814814813,0,0,0.04814814814814813,7.655555555555552,0)" xlink:href="#aH"/><use transform="matrix(0.04814814814814813,0,0,0.04814814814814813,15.311111111111105,0)" xlink:href="#aD"/><use transform="matrix(0.04814814814814813,0,0,0.04814814814814813,20.12592592592592,0)" xlink:href="#aE"/><use transform="matrix(0.04814814814814813,0,0,0.04814814814814813,27.78148148148147,0)" xlink:href="#aO"/><use transform="matrix(0.04814814814814813,0,0,0.04814814814814813,36.448148148148135,0)" xlink:href="#aA"/><use transform="matrix(0.04814814814814813,0,0,0.04814814814814813,45.1148148148148,0)" xlink:href="#az"/><use transform="matrix(0.04814814814814813,0,0,0.04814814814814813,50.84444444444442,0)" xlink:href="#aP"/><use transform="matrix(0.04814814814814813,0,0,0.04814814814814813,55.659259259259244,0)" xlink:href="#aH"/></g><g id="y"><use transform="matrix(0.04814814814814813,0,0,0.04814814814814813,0,0)" xlink:href="#aw"/><use transform="matrix(0.04814814814814813,0,0,0.04814814814814813,8.666666666666663,0)" xlink:href="#ax"/><use transform="matrix(0.04814814814814813,0,0,0.04814814814814813,17.333333333333325,0)" xlink:href="#aH"/></g><use transform="matrix(0.04814814814814813,0,0,0.04814814814814813,0,0)" xlink:href="#aA" id="z"/><path fill="#202124" d="M32-163c41-10 102-14 102 39v112c8 3 24-2 21 12h-45l-4-17C83 13 3 13 13-46c-2-50 45-50 92-51 4-36-5-70-42-56-6 2-12 4-16 6-4 7 0 23-15 20v-36zM42-47c0 41 41 33 63 22v-59c-34 1-63-1-63 37zm28-150c-5 0-12 2-10-5l35-48h37v6" id="aQ"/><g id="A"><use transform="matrix(0.04814814814814813,0,0,0.04814814814814813,0,0)" xlink:href="#aI"/><use transform="matrix(0.04814814814814813,0,0,0.04814814814814813,13.481481481481476,0)" xlink:href="#aQ"/><use transform="matrix(0.04814814814814813,0,0,0.04814814814814813,21.13703703703703,0)" xlink:href="#aF"/></g><path fill="#202124" d="M53-14c58 12 82-15 82-73 0-52-35-77-82-58v131zM89 4C64 4 42-2 24-9v-229l-24-4v-8h53l-1 94c48-33 114-4 114 69 0 57-23 91-77 91" id="aR"/><g id="B"><use transform="matrix(0.04814814814814813,0,0,0.04814814814814813,0,0)" xlink:href="#aF"/><use transform="matrix(0.04814814814814813,0,0,0.04814814814814813,6.740740740740738,0)" xlink:href="#aw"/><use transform="matrix(0.04814814814814813,0,0,0.04814814814814813,15.407407407407401,0)" xlink:href="#aR"/><use transform="matrix(0.04814814814814813,0,0,0.04814814814814813,24.074074074074062,0)" xlink:href="#aC"/><use transform="matrix(0.04814814814814813,0,0,0.04814814814814813,31.729629629629617,0)" xlink:href="#aH"/><use transform="matrix(0.04814814814814813,0,0,0.04814814814814813,39.385185185185165,0)" xlink:href="#aD"/><use transform="matrix(0.04814814814814813,0,0,0.04814814814814813,44.199999999999974,0)" xlink:href="#aE"/><use transform="matrix(0.04814814814814813,0,0,0.04814814814814813,51.85555555555552,0)" xlink:href="#aO"/><use transform="matrix(0.04814814814814813,0,0,0.04814814814814813,60.52222222222218,0)" xlink:href="#aA"/><use transform="matrix(0.04814814814814813,0,0,0.04814814814814813,69.18888888888885,0)" xlink:href="#az"/><use transform="matrix(0.04814814814814813,0,0,0.04814814814814813,74.91851851851848,0)" xlink:href="#aP"/><use transform="matrix(0.04814814814814813,0,0,0.04814814814814813,79.73333333333329,0)" xlink:href="#aH"/><use transform="matrix(0.04814814814814813,0,0,0.04814814814814813,87.38888888888884,0)" xlink:href="#aF"/></g><g id="C"><use transform="matrix(0.04814814814814813,0,0,0.04814814814814813,0,0)" xlink:href="#aF"/><use transform="matrix(0.04814814814814813,0,0,0.04814814814814813,6.740740740740738,0)" xlink:href="#aw"/><use transform="matrix(0.04814814814814813,0,0,0.04814814814814813,15.407407407407401,0)" xlink:href="#aR"/><use transform="matrix(0.04814814814814813,0,0,0.04814814814814813,24.074074074074062,0)" xlink:href="#aC"/><use transform="matrix(0.04814814814814813,0,0,0.04814814814814813,31.729629629629617,0)" xlink:href="#aH"/><use transform="matrix(0.04814814814814813,0,0,0.04814814814814813,39.385185185185165,0)" xlink:href="#aD"/><use transform="matrix(0.04814814814814813,0,0,0.04814814814814813,44.199999999999974,0)" xlink:href="#aE"/><use transform="matrix(0.04814814814814813,0,0,0.04814814814814813,51.85555555555552,0)" xlink:href="#aO"/><use transform="matrix(0.04814814814814813,0,0,0.04814814814814813,60.52222222222218,0)" xlink:href="#aA"/><use transform="matrix(0.04814814814814813,0,0,0.04814814814814813,69.18888888888885,0)" xlink:href="#az"/><use transform="matrix(0.04814814814814813,0,0,0.04814814814814813,74.91851851851848,0)" xlink:href="#aP"/><use transform="matrix(0.04814814814814813,0,0,0.04814814814814813,79.73333333333329,0)" xlink:href="#aH"/></g><g id="D"><use transform="matrix(0.04814814814814813,0,0,0.04814814814814813,0,0)" xlink:href="#ay"/><use transform="matrix(0.04814814814814813,0,0,0.04814814814814813,8.666666666666663,0)" xlink:href="#aE"/><use transform="matrix(0.04814814814814813,0,0,0.04814814814814813,16.322222222222216,0)" xlink:href="#az"/><use transform="matrix(0.04814814814814813,0,0,0.04814814814814813,22.051851851851843,0)" xlink:href="#aD"/><use transform="matrix(0.04814814814814813,0,0,0.04814814814814813,26.866666666666656,0)" xlink:href="#aE"/><use transform="matrix(0.04814814814814813,0,0,0.04814814814814813,34.52222222222221,0)" xlink:href="#ax"/><use transform="matrix(0.04814814814814813,0,0,0.04814814814814813,43.188888888888876,0)" xlink:href="#aE"/><use transform="matrix(0.04814814814814813,0,0,0.04814814814814813,50.84444444444442,0)" xlink:href="#aC"/><use transform="matrix(0.04814814814814813,0,0,0.04814814814814813,58.49999999999997,0)" xlink:href="#aE"/></g><use transform="matrix(0.04814814814814813,0,0,0.04814814814814813,0,0)" xlink:href="#aH" id="E"/><g id="F"><use transform="matrix(0.04814814814814813,0,0,0.04814814814814813,0,0)" xlink:href="#aC"/><use transform="matrix(0.04814814814814813,0,0,0.04814814814814813,7.655555555555552,0)" xlink:href="#aH"/><use transform="matrix(0.04814814814814813,0,0,0.04814814814814813,15.311111111111105,0)" xlink:href="#aD"/><use transform="matrix(0.04814814814814813,0,0,0.04814814814814813,20.12592592592592,0)" xlink:href="#aE"/><use transform="matrix(0.04814814814814813,0,0,0.04814814814814813,27.78148148148147,0)" xlink:href="#aO"/><use transform="matrix(0.04814814814814813,0,0,0.04814814814814813,36.448148148148135,0)" xlink:href="#aA"/><use transform="matrix(0.04814814814814813,0,0,0.04814814814814813,45.1148148148148,0)" xlink:href="#az"/><use transform="matrix(0.04814814814814813,0,0,0.04814814814814813,50.84444444444442,0)" xlink:href="#aP"/><use transform="matrix(0.04814814814814813,0,0,0.04814814814814813,55.659259259259244,0)" xlink:href="#aH"/></g><g id="G"><use transform="matrix(0.061728395061728385,0,0,0.061728395061728385,0,0)" xlink:href="#af"/><use transform="matrix(0.061728395061728385,0,0,0.061728395061728385,11.111111111111109,0)" xlink:href="#ai"/><use transform="matrix(0.061728395061728385,0,0,0.061728395061728385,18.456790123456788,0)" xlink:href="#ac"/><use transform="matrix(0.061728395061728385,0,0,0.061728395061728385,28.2716049382716,0)" xlink:href="#ao"/><use transform="matrix(0.061728395061728385,0,0,0.061728395061728385,39.38271604938271,0)" xlink:href="#ab"/><use transform="matrix(0.061728395061728385,0,0,0.061728395061728385,50.493827160493815,0)" xlink:href="#an"/><use transform="matrix(0.061728395061728385,0,0,0.061728395061728385,61.60493827160492,0)" xlink:href="#aa"/><use transform="matrix(0.061728395061728385,0,0,0.061728395061728385,67.77777777777776,0)" xlink:href="#ab"/></g><path d="M185-72C185 13 82 14 19-9v-63h16c2 37 21 58 61 58 46 0 69-51 31-71-42-23-106-23-106-90 0-69 87-70 148-56v56h-16l-7-32c-26-25-110-13-82 35 39 34 121 26 121 100" id="aS"/><path d="M72-18c49 15 64-22 62-69-1-34-4-62-34-63-10-1-23 2-28 6v126zm33 22C77 4 48-3 21-8v-226l-16-4v-12h67c-1 31 2 66-2 94 11-8 28-14 47-14 51 0 70 31 69 83-1 55-26 91-81 91" id="aT"/><g id="H"><use transform="matrix(0.06172827160493826,0,0,0.06172827160493826,0,0)" xlink:href="#aS"/><use transform="matrix(0.06172827160493826,0,0,0.06172827160493826,12.345654320987652,0)" xlink:href="#X"/><use transform="matrix(0.06172827160493826,0,0,0.06172827160493826,24.691308641975304,0)" xlink:href="#aT"/><use transform="matrix(0.06172827160493826,0,0,0.06172827160493826,37.03696296296296,0)" xlink:href="#Y"/><use transform="matrix(0.06172827160493826,0,0,0.06172827160493826,46.85175814814814,0)" xlink:href="#au"/><use transform="matrix(0.06172827160493826,0,0,0.06172827160493826,57.96284703703703,0)" xlink:href="#Z"/><use transform="matrix(0.06172827160493826,0,0,0.06172827160493826,65.30851135802469,0)" xlink:href="#aL"/><use transform="matrix(0.06172827160493826,0,0,0.06172827160493826,75.12330654320988,0)" xlink:href="#aM"/><use transform="matrix(0.06172827160493826,0,0,0.06172827160493826,86.23439543209876,0)" xlink:href="#V"/><use transform="matrix(0.06172827160493826,0,0,0.06172827160493826,97.34548432098765,0)" xlink:href="#U"/><use transform="matrix(0.06172827160493826,0,0,0.06172827160493826,107.16027950617283,0)" xlink:href="#aN"/></g><path fill="#333" d="M54-38c-1 25 24 26 44 20v12C71 10 25 9 25-35v-115H4c-2-14 14-10 21-15l18-38h11v38h38v15H54v112" id="aU"/><path fill="#333" d="M90-170c52 0 76 32 76 87 0 54-24 87-77 87-51 0-75-34-75-87 0-54 24-87 76-87zM89-10c39 0 46-35 46-73 0-39-7-73-46-73-39 1-44 34-44 73s6 72 44 73" id="aV"/><g id="I"><use transform="matrix(0.061728395061728385,0,0,0.061728395061728385,0,0)" xlink:href="#ab"/><use transform="matrix(0.061728395061728385,0,0,0.061728395061728385,11.111111111111109,0)" xlink:href="#ag"/><use transform="matrix(0.061728395061728385,0,0,0.061728395061728385,20.925925925925924,0)" xlink:href="#am"/><use transform="matrix(0.061728395061728385,0,0,0.061728395061728385,29.5679012345679,0)" xlink:href="#ak"/><use transform="matrix(0.061728395061728385,0,0,0.061728395061728385,39.38271604938271,0)" xlink:href="#ai"/><use transform="matrix(0.061728395061728385,0,0,0.061728395061728385,46.728395061728385,0)" xlink:href="#aa"/><use transform="matrix(0.061728395061728385,0,0,0.061728395061728385,52.90123456790123,0)" xlink:href="#ah"/><use transform="matrix(0.061728395061728385,0,0,0.061728395061728385,64.01234567901234,0)" xlink:href="#aU"/><use transform="matrix(0.061728395061728385,0,0,0.061728395061728385,70.18518518518518,0)" xlink:href="#aa"/><use transform="matrix(0.061728395061728385,0,0,0.061728395061728385,76.35802469135801,0)" xlink:href="#aV"/><use transform="matrix(0.061728395061728385,0,0,0.061728395061728385,87.46913580246913,0)" xlink:href="#ao"/></g><g id="J"><use transform="matrix(0.04814814814814813,0,0,0.04814814814814813,0,0)" xlink:href="#aC"/><use transform="matrix(0.04814814814814813,0,0,0.04814814814814813,7.655555555555552,0)" xlink:href="#aA"/><use transform="matrix(0.04814814814814813,0,0,0.04814814814814813,16.322222222222216,0)" xlink:href="#ax"/><use transform="matrix(0.04814814814814813,0,0,0.04814814814814813,24.988888888888876,0)" xlink:href="#aD"/><use transform="matrix(0.04814814814814813,0,0,0.04814814814814813,29.80370370370369,0)" xlink:href="#aJ"/><use transform="matrix(0.04814814814814813,0,0,0.04814814814814813,34.618518518518506,0)" xlink:href="#aE"/><use transform="matrix(0.04814814814814813,0,0,0.04814814814814813,42.27407407407406,0)" xlink:href="#ax"/><use transform="matrix(0.04814814814814813,0,0,0.04814814814814813,50.94074074074072,0)" xlink:href="#aE"/></g><path fill="#333" d="M141-152c28 39 5 97-54 97-9 0-20-2-27-3L49-35c29 22 130-14 124 52-4 45-38 57-88 61C21 83-8 26 45-2 33-6 22-15 21-31l28-31c-19-9-28-26-28-51-2-51 53-65 100-52l38-20 7 8zM85 64c35 0 61-11 61-42 0-35-57-17-89-21-9 8-16 19-17 34 0 25 19 29 45 29zM52-113c1 26 7 46 35 44 28-1 34-16 35-44 0-26-6-43-34-43s-36 17-36 43" id="aW"/><path fill="#333" d="M161-154L85 37C75 66 49 86 8 75V39c18-2 6 24 29 21 30-4 38-32 47-58L21-153c-7-3-20 0-17-12h77v8l-26 4 45 116 43-116-26-4v-8h62v8" id="aX"/><g id="K"><use transform="matrix(0.061728395061728385,0,0,0.061728395061728385,0,0)" xlink:href="#am"/><use transform="matrix(0.061728395061728385,0,0,0.061728395061728385,8.641975308641975,0)" xlink:href="#aj"/><use transform="matrix(0.061728395061728385,0,0,0.061728395061728385,19.75308641975308,0)" xlink:href="#af"/><use transform="matrix(0.061728395061728385,0,0,0.061728395061728385,30.86419753086419,0)" xlink:href="#ak"/><use transform="matrix(0.061728395061728385,0,0,0.061728395061728385,40.679012345679,0)" xlink:href="#ac"/><use transform="matrix(0.061728395061728385,0,0,0.061728395061728385,50.49382716049381,0)" xlink:href="#aU"/><use transform="matrix(0.061728395061728385,0,0,0.061728395061728385,56.66666666666664,0)" xlink:href="#ag"/><use transform="matrix(0.061728395061728385,0,0,0.061728395061728385,66.48148148148145,0)" xlink:href="#aW"/><use transform="matrix(0.061728395061728385,0,0,0.061728395061728385,77.59259259259257,0)" xlink:href="#aV"/><use transform="matrix(0.061728395061728385,0,0,0.061728395061728385,88.70370370370368,0)" xlink:href="#ai"/><use transform="matrix(0.061728395061728385,0,0,0.061728395061728385,96.04938271604937,0)" xlink:href="#aX"/><use transform="matrix(0.061728395061728385,0,0,0.061728395061728385,107.16049382716048,0)" xlink:href="#an"/><use transform="matrix(0.061728395061728385,0,0,0.061728395061728385,118.2716049382716,0)" xlink:href="#aa"/><use transform="matrix(0.061728395061728385,0,0,0.061728395061728385,124.44444444444443,0)" xlink:href="#ab"/></g><g id="L"><use transform="matrix(0.04814814814814813,0,0,0.04814814814814813,0,0)" xlink:href="#ay"/><use transform="matrix(0.04814814814814813,0,0,0.04814814814814813,8.666666666666663,0)" xlink:href="#aE"/><use transform="matrix(0.04814814814814813,0,0,0.04814814814814813,16.322222222222216,0)" xlink:href="#az"/><use transform="matrix(0.04814814814814813,0,0,0.04814814814814813,22.051851851851843,0)" xlink:href="#aD"/><use transform="matrix(0.04814814814814813,0,0,0.04814814814814813,26.866666666666656,0)" xlink:href="#aE"/><use transform="matrix(0.04814814814814813,0,0,0.04814814814814813,34.52222222222221,0)" xlink:href="#ax"/><use transform="matrix(0.04814814814814813,0,0,0.04814814814814813,43.188888888888876,0)" xlink:href="#aE"/><use transform="matrix(0.04814814814814813,0,0,0.04814814814814813,50.84444444444442,0)" xlink:href="#aC"/><use transform="matrix(0.04814814814814813,0,0,0.04814814814814813,58.49999999999997,0)" xlink:href="#aE"/></g><use transform="matrix(0.04814814814814813,0,0,0.04814814814814813,0,0)" xlink:href="#aH" id="M"/><g id="N"><use transform="matrix(0.04814814814814813,0,0,0.04814814814814813,0,0)" xlink:href="#aF"/><use transform="matrix(0.04814814814814813,0,0,0.04814814814814813,6.740740740740738,0)" xlink:href="#aw"/><use transform="matrix(0.04814814814814813,0,0,0.04814814814814813,15.407407407407401,0)" xlink:href="#aR"/><use transform="matrix(0.04814814814814813,0,0,0.04814814814814813,24.074074074074062,0)" xlink:href="#aC"/><use transform="matrix(0.04814814814814813,0,0,0.04814814814814813,31.729629629629617,0)" xlink:href="#aH"/><use transform="matrix(0.04814814814814813,0,0,0.04814814814814813,39.385185185185165,0)" xlink:href="#aD"/><use transform="matrix(0.04814814814814813,0,0,0.04814814814814813,44.199999999999974,0)" xlink:href="#aE"/><use transform="matrix(0.04814814814814813,0,0,0.04814814814814813,51.85555555555552,0)" xlink:href="#aO"/><use transform="matrix(0.04814814814814813,0,0,0.04814814814814813,60.52222222222218,0)" xlink:href="#aA"/><use transform="matrix(0.04814814814814813,0,0,0.04814814814814813,69.18888888888885,0)" xlink:href="#az"/><use transform="matrix(0.04814814814814813,0,0,0.04814814814814813,74.91851851851848,0)" xlink:href="#aP"/><use transform="matrix(0.04814814814814813,0,0,0.04814814814814813,79.73333333333329,0)" xlink:href="#aH"/></g><g id="O"><use transform="matrix(0.061728395061728385,0,0,0.061728395061728385,0,0)" xlink:href="#ak"/><use transform="matrix(0.061728395061728385,0,0,0.061728395061728385,9.814814814814813,0)" xlink:href="#ac"/><use transform="matrix(0.061728395061728385,0,0,0.061728395061728385,19.629629629629626,0)" xlink:href="#aU"/><use transform="matrix(0.061728395061728385,0,0,0.061728395061728385,25.802469135802465,0)" xlink:href="#ag"/><use transform="matrix(0.061728395061728385,0,0,0.061728395061728385,35.61728395061728,0)" xlink:href="#aW"/><use transform="matrix(0.061728395061728385,0,0,0.061728395061728385,46.728395061728385,0)" xlink:href="#aV"/><use transform="matrix(0.061728395061728385,0,0,0.061728395061728385,57.83950617283949,0)" xlink:href="#ai"/><use transform="matrix(0.061728395061728385,0,0,0.061728395061728385,65.18518518518518,0)" xlink:href="#aX"/><use transform="matrix(0.061728395061728385,0,0,0.061728395061728385,76.29629629629629,0)" xlink:href="#an"/><use transform="matrix(0.061728395061728385,0,0,0.061728395061728385,87.4074074074074,0)" xlink:href="#aa"/><use transform="matrix(0.061728395061728385,0,0,0.061728395061728385,93.58024691358024,0)" xlink:href="#ab"/></g><g id="P"><use transform="matrix(0.061728395061728385,0,0,0.061728395061728385,0,0)" xlink:href="#ak"/><use transform="matrix(0.061728395061728385,0,0,0.061728395061728385,9.814814814814813,0)" xlink:href="#aV"/><use transform="matrix(0.061728395061728385,0,0,0.061728395061728385,20.925925925925924,0)" xlink:href="#ab"/><use transform="matrix(0.061728395061728385,0,0,0.061728395061728385,32.03703703703703,0)" xlink:href="#ag"/></g><path fill="#333" d="M6-13l30-5v-200l-30-5v-13h201v60h-16l-6-38-93-2v86h61l6-26h16v73h-16l-6-27H92v91l104-3 10-44h16l-4 66H6v-13" id="aY"/><path fill="#333" d="M222-170c0 37-18 56-47 65l63 87 25 5V0h-76l-66-100H92v82l30 5V0H8v-13l28-5v-200l-30-5v-13c89 5 214-24 216 66zM92-119c45 2 75-3 75-50s-30-49-75-47v97" id="aZ"/><path fill="#333" d="M155 0h-10L58-199v181l32 5V0H6v-13l30-5v-200l-30-5v-13h93l67 155 69-155h94v13l-30 5v200l30 5V0H212v-13l32-5v-181" id="ba"/><g id="Q"><use transform="matrix(0.07407407407407408,0,0,0.07407407407407408,0,0)" xlink:href="#aY"/><use transform="matrix(0.07407407407407408,0,0,0.07407407407407408,17.77777777777778,0)" xlink:href="#aZ"/><use transform="matrix(0.07407407407407408,0,0,0.07407407407407408,36.96296296296296,0)" xlink:href="#ba"/></g><path fill="#333" d="M108-230c-35 27-44 80-44 143s8 116 44 144v20C7 49-17-153 67-223c12-10 25-19 41-27v20" id="bb"/><path fill="#202124" d="M6-13l30-5v-200l-30-5v-13h201v60h-16l-6-38-93-2v86h61l6-26h16v73h-16l-6-27H92v91l104-3 10-44h16l-4 66H6v-13" id="bc"/><path fill="#202124" d="M127-114c3-31-26-38-50-25v123l15 4V0H10v-12l16-4v-133l-16-5v-11h64l2 14c31-23 102-32 102 30v105l17 4V0h-82v-12l14-4v-98" id="bd"/><path fill="#202124" d="M78-41c-2 24 21 26 40 20C122 3 98 2 77 4 5 10 32-84 27-147H6v-11l25-7 21-38h26v38h35v18H78v106" id="be"/><path fill="#202124" d="M77-16l18 4V0H8v-12l18-4v-133l-17-5v-11h68v149zM51-196c-16 0-27-10-27-27s10-27 27-27 27 11 27 27c0 17-10 27-27 27" id="bf"/><path fill="#202124" d="M81 5L15-149c-7-2-13-5-11-16h84v11l-20 5 39 91 35-91-19-5v-11h53c2 11-4 13-11 15C134-81 111-5 75 58 65 77 34 83 8 74V32h11c0 24 29 35 43 12 7-11 13-25 19-39" id="bg"/><path fill="#202124" d="M21 4H-4l83-241h25" id="bh"/><path fill="#202124" d="M222-170c0 37-18 56-47 65l63 87 25 5V0h-76l-66-100H92v82l30 5V0H8v-13l28-5v-200l-30-5v-13c89 5 214-24 216 66zM92-119c45 2 75-3 75-50s-30-49-75-47v97" id="bi"/><path fill="#202124" d="M12-83c0-55 22-85 75-86 52-1 66 33 63 88H64c-1 37 6 64 44 63 14 0 28-4 39-6 3 28-28 25-55 27-57 4-80-31-80-86zm90-17c2-26 0-63-27-48-10 9-11 28-11 48h38" id="bj"/><path fill="#202124" d="M76-16l18 4V0H7v-12l18-4v-218l-17-4v-12h68v234" id="bk"/><path fill="#202124" d="M31-163c51-5 127-20 127 40v107l17 4V0h-61l-4-13C82 13 12 12 12-46c0-51 46-52 95-53 9-45-22-69-57-44l-7 20H31v-40zM62-47c0 30 26 34 45 23v-59c-28 0-45 6-45 36" id="bl"/><path fill="#202124" d="M90-170c54-1 76 32 76 87 1 56-23 87-77 87-53 0-75-32-75-87s23-86 76-87zM89-14c28-2 26-38 26-69s3-69-26-69c-27 0-24 39-24 69s-3 66 24 69" id="bm"/><path fill="#202124" d="M102-142c-14-17-68-15-54 18 24 26 83 17 83 72 0 62-72 62-120 47v-45h12c4 23 16 37 43 37 35 0 39-37 9-46-31-9-65-19-64-61 0-52 59-55 108-45v43h-11" id="bn"/><path fill="#202124" d="M127-114c3-31-26-38-50-25v123l15 4V0H10v-12l16-4v-218l-17-4v-12h68l-1 99c31-23 102-32 102 30v105l17 4V0h-82v-12l14-4v-98" id="bo"/><path fill="#202124" d="M186-86c2 69-46 103-114 85l1 62 25 4v12H5V65l18-4v-210l-18-5v-11h67v8c12-8 26-13 46-13 49 2 67 30 68 84zm-83 71c28 0 31-33 31-69 0-34-2-66-30-66-12 0-23 3-31 7v124c9 2 20 4 30 4" id="bp"/><g id="R"><use transform="matrix(0.07407407407407408,0,0,0.07407407407407408,0,0)" xlink:href="#bb"/><use transform="matrix(0.07407407407407408,0,0,0.07407407407407408,8.814814814814817,0)" xlink:href="#bc"/><use transform="matrix(0.07407407407407408,0,0,0.07407407407407408,26.592592592592595,0)" xlink:href="#bd"/><use transform="matrix(0.07407407407407408,0,0,0.07407407407407408,41.40740740740741,0)" xlink:href="#be"/><use transform="matrix(0.07407407407407408,0,0,0.07407407407407408,50.22222222222223,0)" xlink:href="#bf"/><use transform="matrix(0.07407407407407408,0,0,0.07407407407407408,57.62962962962964,0)" xlink:href="#be"/><use transform="matrix(0.07407407407407408,0,0,0.07407407407407408,66.44444444444446,0)" xlink:href="#bg"/><use transform="matrix(0.07407407407407408,0,0,0.07407407407407408,79.7777777777778,0)" xlink:href="#bh"/><use transform="matrix(0.07407407407407408,0,0,0.07407407407407408,87.18518518518519,0)" xlink:href="#bi"/><use transform="matrix(0.07407407407407408,0,0,0.07407407407407408,106.3703703703704,0)" xlink:href="#bj"/><use transform="matrix(0.07407407407407408,0,0,0.07407407407407408,118.14814814814818,0)" xlink:href="#bk"/><use transform="matrix(0.07407407407407408,0,0,0.07407407407407408,125.55555555555559,0)" xlink:href="#bl"/><use transform="matrix(0.07407407407407408,0,0,0.07407407407407408,138.8888888888889,0)" xlink:href="#be"/><use transform="matrix(0.07407407407407408,0,0,0.07407407407407408,147.70370370370372,0)" xlink:href="#bf"/><use transform="matrix(0.07407407407407408,0,0,0.07407407407407408,155.11111111111114,0)" xlink:href="#bm"/><use transform="matrix(0.07407407407407408,0,0,0.07407407407407408,168.4444444444445,0)" xlink:href="#bd"/><use transform="matrix(0.07407407407407408,0,0,0.07407407407407408,183.2592592592593,0)" xlink:href="#bn"/><use transform="matrix(0.07407407407407408,0,0,0.07407407407407408,193.62962962962968,0)" xlink:href="#bo"/><use transform="matrix(0.07407407407407408,0,0,0.07407407407407408,208.44444444444449,0)" xlink:href="#bf"/><use transform="matrix(0.07407407407407408,0,0,0.07407407407407408,215.8518518518519,0)" xlink:href="#bp"/></g><path fill="#202124" d="M155 0h-10L58-199v181l32 5V0H6v-13l30-5v-200l-30-5v-13h93l67 155 69-155h94v13l-30 5v200l30 5V0H212v-13l32-5v-181" id="bq"/><path fill="#202124" d="M15-82c-4-69 47-101 113-83l-1-69-17-4v-12h68v234l18 4V0h-63l-4-9C77 23 5-9 15-82zm112-66c-43-16-64 17-61 65 2 33 3 67 32 67 12 0 22-3 29-8v-124" id="br"/><path fill="#202124" d="M12-250C113-222 137-19 52 49 40 59 28 69 12 77V57C48 29 56-24 56-87s-9-116-44-143v-20" id="bs"/><g id="S"><use transform="matrix(0.07407407407407408,0,0,0.07407407407407408,0,0)" xlink:href="#bq"/><use transform="matrix(0.07407407407407408,0,0,0.07407407407407408,25.111111111111114,0)" xlink:href="#bm"/><use transform="matrix(0.07407407407407408,0,0,0.07407407407407408,38.44444444444445,0)" xlink:href="#br"/><use transform="matrix(0.07407407407407408,0,0,0.07407407407407408,53.25925925925927,0)" xlink:href="#bj"/><use transform="matrix(0.07407407407407408,0,0,0.07407407407407408,65.03703703703704,0)" xlink:href="#bk"/><use transform="matrix(0.07407407407407408,0,0,0.07407407407407408,72.44444444444444,0)" xlink:href="#bs"/></g></defs></g></svg>