<?xml version="1.0" encoding="utf-8"?>
<!-- Generator: Adobe Illustrator 16.0.0, SVG Export Plug-In . SVG Version: 6.00 Build 0)  -->
<!DOCTYPE svg PUBLIC "-//W3C//DTD SVG 1.1//EN" "http://www.w3.org/Graphics/SVG/1.1/DTD/svg11.dtd">
<svg version="1.1" id="Capa_1" xmlns="http://www.w3.org/2000/svg" xmlns:xlink="http://www.w3.org/1999/xlink" x="0px" y="0px"
	 width="74.978px" height="83.205px" viewBox="0 0 74.978 83.205" enable-background="new 0 0 74.978 83.205" xml:space="preserve">
<g display="none">
</g>
<g display="none">
</g>
<rect x="-724.809" y="-63.331" display="none" fill="#DBF0EF" width="348.99" height="106.367"/>
<g display="none">
</g>
<circle display="none" fill="#DBF0EF" cx="-320.676" cy="204.547" r="90.444"/>
<text transform="matrix(1 0 0 1 -380.2314 199.834)" display="none"><tspan x="0" y="0" display="inline" fill="#4E9A92" font-family="'Poppins-Bold'" font-size="48" letter-spacing="-1">M</tspan><tspan x="42.864" y="0" display="inline" fill="#7CBFB8" font-family="'Poppins-Bold'" font-size="48" letter-spacing="-1">ISK</tspan></text>
<g display="none">
</g>
<text transform="matrix(1 0 0 1 -380.2314 239.8335)" display="none"><tspan x="0" y="0" display="inline" fill="#4E9A92" font-family="'Poppins-Bold'" font-size="48" letter-spacing="-1">B</tspan><tspan x="30.432" y="0" display="inline" fill="#7CBFB8" font-family="'Poppins-Bold'" font-size="48" letter-spacing="-1">ABY</tspan></text>
<g display="none">
	<g display="inline">
		<path fill="#4E9A92" d="M207.137,32.046v33.696h-8.209V45.534l-7.535,20.208h-6.625l-7.584-20.256v20.256h-8.207V32.046h9.695
			l9.455,23.328l9.361-23.328H207.137z"/>
		<path fill="#7CBFB8" d="M220.047,32.046v33.696h-8.207V32.046H220.047z"/>
		<path fill="#7CBFB8" d="M230.367,64.878c-1.951-0.8-3.512-1.984-4.68-3.552c-1.168-1.567-1.785-3.456-1.848-5.664h8.736
			c0.127,1.248,0.559,2.201,1.295,2.856c0.736,0.656,1.695,0.984,2.881,0.984c1.215,0,2.176-0.279,2.879-0.84
			c0.705-0.56,1.057-1.335,1.057-2.328c0-0.832-0.281-1.52-0.84-2.064c-0.561-0.543-1.248-0.991-2.064-1.344
			c-0.816-0.352-1.977-0.751-3.48-1.2c-2.176-0.672-3.951-1.344-5.328-2.016c-1.375-0.672-2.561-1.663-3.551-2.976
			c-0.992-1.312-1.488-3.024-1.488-5.136c0-3.136,1.135-5.592,3.408-7.368c2.271-1.776,5.232-2.664,8.879-2.664
			c3.713,0,6.705,0.888,8.977,2.664c2.271,1.776,3.488,4.248,3.648,7.416h-8.881c-0.064-1.087-0.463-1.944-1.199-2.568
			s-1.68-0.936-2.832-0.936c-0.992,0-1.793,0.264-2.4,0.792c-0.607,0.528-0.912,1.289-0.912,2.28c0,1.088,0.512,1.937,1.537,2.544
			c1.023,0.608,2.623,1.264,4.799,1.968c2.176,0.737,3.943,1.44,5.305,2.112c1.359,0.672,2.535,1.648,3.527,2.928
			c0.992,1.28,1.488,2.928,1.488,4.944c0,1.92-0.488,3.665-1.463,5.232c-0.977,1.568-2.393,2.816-4.248,3.744
			c-1.857,0.929-4.049,1.392-6.576,1.392C234.527,66.078,232.318,65.678,230.367,64.878z"/>
		<path fill="#7CBFB8" d="M272.656,65.742l-11.328-14.88v14.88h-8.209V32.046h8.209V46.83l11.23-14.784h9.648L269.15,48.558
			l13.537,17.184H272.656z"/>
	</g>
	<g display="inline">
		<path fill="#4E9A92" d="M194.08,91.366c1.184,1.52,1.775,3.256,1.775,5.208c0,2.816-0.984,5.048-2.951,6.696
			c-1.969,1.648-4.713,2.472-8.232,2.472h-15.695V72.046h15.168c3.424,0,6.104,0.784,8.039,2.352
			c1.936,1.568,2.904,3.696,2.904,6.384c0,1.984-0.521,3.632-1.561,4.944c-1.039,1.313-2.424,2.225-4.152,2.736
			C191.328,88.878,192.895,89.846,194.08,91.366z M177.184,85.678h5.377c1.344,0,2.375-0.295,3.096-0.888
			c0.719-0.592,1.08-1.464,1.08-2.616c0-1.152-0.361-2.032-1.08-2.64c-0.721-0.607-1.752-0.912-3.096-0.912h-5.377V85.678z
			 M186.424,98.182c0.752-0.624,1.127-1.528,1.127-2.712c0-1.184-0.391-2.112-1.176-2.784c-0.783-0.672-1.863-1.008-3.238-1.008
			h-5.953v7.44h6.049C184.607,99.118,185.672,98.806,186.424,98.182z"/>
		<path fill="#7CBFB8" d="M220.383,99.79h-12.576l-2.016,5.952h-8.592l12.191-33.696h9.504l12.193,33.696h-8.689L220.383,99.79z
			 M218.271,93.454l-4.176-12.336l-4.129,12.336H218.271z"/>
		<path fill="#7CBFB8" d="M258.688,91.366c1.184,1.52,1.775,3.256,1.775,5.208c0,2.816-0.982,5.048-2.951,6.696
			c-1.969,1.648-4.713,2.472-8.232,2.472h-15.695V72.046h15.168c3.424,0,6.104,0.784,8.039,2.352
			c1.936,1.568,2.904,3.696,2.904,6.384c0,1.984-0.52,3.632-1.561,4.944c-1.039,1.313-2.424,2.225-4.15,2.736
			C255.936,88.878,257.504,89.846,258.688,91.366z M241.791,85.678h5.377c1.344,0,2.375-0.295,3.096-0.888
			c0.721-0.592,1.08-1.464,1.08-2.616c0-1.152-0.359-2.032-1.08-2.64c-0.721-0.607-1.752-0.912-3.096-0.912h-5.377V85.678z
			 M251.031,98.182c0.752-0.624,1.129-1.528,1.129-2.712c0-1.184-0.393-2.112-1.176-2.784c-0.785-0.672-1.865-1.008-3.24-1.008
			h-5.953v7.44h6.049C249.215,99.118,250.279,98.806,251.031,98.182z"/>
		<path fill="#7CBFB8" d="M292.912,72.046l-11.664,22.56v11.136h-8.209V94.605l-11.664-22.56h9.313l6.527,14.112l6.48-14.112
			H292.912z"/>
	</g>
</g>
<g display="none">
	<rect x="-761.336" y="356.222" display="inline" fill="#DBF0EF" width="566.929" height="53.184"/>
	<path display="inline" fill="#4E9A92" d="M-431.366,386.814c0,6.627-5.372,12-12,12h-59.505c-6.627,0-12-5.373-12-12v-8
		c0-6.627,5.373-12,12-12h59.505c6.628,0,12,5.373,12,12V386.814z"/>
	<text transform="matrix(1 0 0 1 -757.0146 387.9712)" display="inline"><tspan x="0" y="0" fill="#4E9A92" font-family="'Raleway-SemiBold'" font-size="14">Lactancia</tspan><tspan x="64.398" y="0" fill="#4E9A92" font-family="'Raleway-SemiBold'" font-size="14" letter-spacing="4">	</tspan><tspan x="71.999" y="0" fill="#4E9A92" font-family="'Raleway-SemiBold'" font-size="14" letter-spacing="32">	</tspan><tspan x="107.999" y="0" fill="#4E9A92" font-family="'Raleway-SemiBold'" font-size="14">Primeras Comidas</tspan><tspan x="228.173" y="0" fill="#4E9A92" font-family="'Raleway-SemiBold'" font-size="14" letter-spacing="20">	</tspan><tspan x="251.999" y="0" fill="#FAFDFF" font-family="'Raleway-SemiBold'" font-size="14">Chupetes</tspan><tspan x="315.923" y="0" fill="#4E9A92" font-family="'Raleway-SemiBold'" font-size="14" letter-spacing="4">	</tspan><tspan x="324" y="0" fill="#4E9A92" font-family="'Raleway-SemiBold'" font-size="14" letter-spacing="32">	</tspan><tspan x="360" y="0" fill="#4E9A92" font-family="'Raleway-SemiBold'" font-size="14">Higiene</tspan><tspan x="411.001" y="0" fill="#4E9A92" font-family="'Raleway-SemiBold'" font-size="14" letter-spacing="17">	</tspan><tspan x="432" y="0" fill="#4E9A92" font-family="'Raleway-SemiBold'" font-size="14" letter-spacing="32">	</tspan><tspan x="468" y="0" fill="#4E9A92" font-family="'Raleway-SemiBold'" font-size="14">Paseo</tspan></text>
</g>
<g display="none">
	<rect x="-761.336" y="441.222" display="inline" fill="#DBF0EF" width="566.93" height="53.184"/>
	<path display="inline" fill="#5B74A5" d="M-415.945,471.814c0,6.627-5.373,12-12,12h-59.506c-6.627,0-12-5.373-12-12v-8
		c0-6.627,5.373-12,12-12h59.506c6.627,0,12,5.373,12,12V471.814z"/>
	<text transform="matrix(1 0 0 1 -741.5938 472.9712)" display="inline"><tspan x="0" y="0" fill="#4E9A92" font-family="'Raleway-SemiBold'" font-size="14">Lactancia</tspan><tspan x="64.398" y="0" fill="#4E9A92" font-family="'Raleway-SemiBold'" font-size="14" letter-spacing="4">	</tspan><tspan x="71.999" y="0" fill="#4E9A92" font-family="'Raleway-SemiBold'" font-size="14" letter-spacing="32">	</tspan><tspan x="107.999" y="0" fill="#4E9A92" font-family="'Raleway-SemiBold'" font-size="14">Primeras Comidas</tspan><tspan x="228.172" y="0" fill="#4E9A92" font-family="'Raleway-SemiBold'" font-size="14" letter-spacing="20">	</tspan><tspan x="251.998" y="0" fill="#FAFDFF" font-family="'Raleway-SemiBold'" font-size="14">Chupetes</tspan><tspan x="315.922" y="0" fill="#4E9A92" font-family="'Raleway-SemiBold'" font-size="14" letter-spacing="4">	</tspan><tspan x="324" y="0" fill="#4E9A92" font-family="'Raleway-SemiBold'" font-size="14" letter-spacing="32">	</tspan><tspan x="360" y="0" fill="#4E9A92" font-family="'Raleway-SemiBold'" font-size="14">Higiene</tspan><tspan x="411" y="0" fill="#4E9A92" font-family="'Raleway-SemiBold'" font-size="14" letter-spacing="17">	</tspan><tspan x="432" y="0" fill="#4E9A92" font-family="'Raleway-SemiBold'" font-size="14" letter-spacing="32">	</tspan><tspan x="468" y="0" fill="#4E9A92" font-family="'Raleway-SemiBold'" font-size="14">Paseo</tspan></text>
</g>
<g display="none">
	<circle display="inline" fill="#DBF0EF" cx="-635.067" cy="204.547" r="90.444"/>
	<text transform="matrix(1 0 0 1 -694.623 199.834)" display="inline"><tspan x="0" y="0" fill="#4E9A92" font-family="'Poppins-Bold'" font-size="48" letter-spacing="-1">M</tspan><tspan x="42.863" y="0" fill="#7CBFB8" font-family="'Poppins-Bold'" font-size="48" letter-spacing="-1">ISK</tspan></text>
	<text transform="matrix(1 0 0 1 -684.623 239.8335)" display="inline"><tspan x="0" y="0" fill="#4E9A92" font-family="'Poppins-Bold'" font-size="48" letter-spacing="-1">B</tspan><tspan x="30.432" y="0" fill="#7CBFB8" font-family="'Poppins-Bold'" font-size="48" letter-spacing="-1">ABY</tspan></text>
</g>
<rect x="-1758.043" y="-66.887" display="none" fill="#AEDEDA" stroke="#6E6F71" stroke-miterlimit="10" width="99.213" height="99.212"/>
<rect x="-1658.83" y="-66.887" display="none" fill="#7BC0B9" stroke="#6E6F71" stroke-miterlimit="10" width="99.213" height="99.212"/>
<rect x="-1559.617" y="-66.887" display="none" fill="#4D9A92" stroke="#6E6F71" stroke-miterlimit="10" width="99.213" height="99.212"/>
<rect x="-1857.255" y="-66.887" display="none" fill="#DBF0EF" stroke="#6E6F71" stroke-miterlimit="10" width="99.213" height="99.212"/>
<rect x="-1956.985" y="-66.887" display="none" fill="#FBFEFE" stroke="#6E6F71" stroke-miterlimit="10" width="99.213" height="99.212"/>
<text transform="matrix(1 0 0 1 -1956.4668 -142.3979)" display="none" font-family="'Poppins-Bold'" font-size="24">Colors Palette</text>
<text transform="matrix(1 0 0 1 -1956.9849 -81.3979)" display="none" font-family="'Poppins-Bold'" font-size="18">Primary Color</text>
<text transform="matrix(1 0 0 1 -1937.5547 -14.2412)" display="none" font-family="'Raleway-SemiBold'" font-size="14">#FBFFFE</text>
<text transform="matrix(1 0 0 1 -1843.9795 -14.2412)" display="none" font-family="'Raleway-SemiBold'" font-size="14">#DAF4F1</text>
<text transform="matrix(1 0 0 1 -1741.9795 -14.2412)" display="none" font-family="'Raleway-SemiBold'" font-size="14">#ADDFDA</text>
<text transform="matrix(1 0 0 1 -1639.1309 -14.2412)" display="none" font-family="'Raleway-SemiBold'" font-size="14">#7BC0B9</text>
<text transform="matrix(1 0 0 1 -1538.1309 -14.2412)" display="none" font-family="'Raleway-SemiBold'" font-size="14">#4D9A92</text>
<rect x="-1757.785" y="89.081" display="none" fill="#B5C5E2" stroke="#6E6F71" stroke-miterlimit="10" width="99.212" height="99.212"/>
<rect x="-1658.572" y="89.081" display="none" fill="#879EC6" stroke="#6E6F71" stroke-miterlimit="10" width="99.213" height="99.212"/>
<rect x="-1559.359" y="89.081" display="none" fill="#5A74A5" stroke="#6E6F71" stroke-miterlimit="10" width="99.213" height="99.212"/>
<rect x="-1856.997" y="89.081" display="none" fill="#DEE6F5" stroke="#6E6F71" stroke-miterlimit="10" width="99.212" height="99.212"/>
<rect x="-1956.727" y="89.08" display="none" fill="#FBFDFE" stroke="#6E6F71" stroke-miterlimit="10" width="99.213" height="99.212"/>
<text transform="matrix(1 0 0 1 -1956.9858 74.5698)" display="none" font-family="'Poppins-Bold'" font-size="18">Secondary Color</text>
<text transform="matrix(1 0 0 1 -1937.2964 141.7261)" display="none" font-family="'Raleway-SemiBold'" font-size="14">#FBFCFF</text>
<text transform="matrix(1 0 0 1 -1843.7212 141.7261)" display="none" font-family="'Raleway-SemiBold'" font-size="14">#DEE6F5</text>
<text transform="matrix(1 0 0 1 -1741.7212 141.7261)" display="none" font-family="'Raleway-SemiBold'" font-size="14">#B5C5E3</text>
<text transform="matrix(1 0 0 1 -1638.873 141.7261)" display="none" font-family="'Raleway-SemiBold'" font-size="14">#879EC7</text>
<text transform="matrix(1 0 0 1 -1537.873 141.7261)" display="none" font-family="'Raleway-SemiBold'" font-size="14">#5A74A5</text>
<text transform="matrix(1 0 0 1 -1956.4673 234.0171)" display="none" font-family="'Poppins-Bold'" font-size="18">Accent Color</text>
<rect x="-1956.985" y="248.073" display="none" fill="#F8CC7B" stroke="#6E6F71" stroke-miterlimit="10" width="99.213" height="99.212"/>
<text transform="matrix(1 0 0 1 -1937.5547 300.7192)" display="none" font-family="'Raleway-SemiBold'" font-size="14">#F8CC7B</text>
<g display="none">
</g>
<g display="none">
</g>
<text transform="matrix(1 0 0 1 -1956.2095 389.9858)" display="none" font-family="'Poppins-Bold'" font-size="18">Neutral Color</text>
<rect x="-1956.727" y="404.042" display="none" fill="#666766" stroke="#6E6F71" stroke-miterlimit="10" width="99.213" height="99.212"/>
<text transform="matrix(1 0 0 1 -1937.2969 456.688)" display="none" font-family="'Raleway-SemiBold'" font-size="14">#666666</text>
<text transform="matrix(1 0 0 1 -1956.4668 -142.3979)" display="none" font-family="'Poppins-Bold'" font-size="24">Colors Palette</text>
<text transform="matrix(1 0 0 1 -1341.1865 -142.3979)" display="none" font-family="'Poppins-Bold'" font-size="24">Fonts</text>
<text transform="matrix(1 0 0 1 -725.9063 -142.3979)" display="none" font-family="'Poppins-Bold'" font-size="24">Logo</text>
<text transform="matrix(1 0 0 1 -1956.9849 -81.3979)" display="none" font-family="'Poppins-Bold'" font-size="18">Primary Color</text>
<text transform="matrix(1 0 0 1 -1341.7051 -81.3979)" display="none" font-family="'Poppins-Bold'" font-size="18">Headings</text>
<text transform="matrix(1 0 0 1 -1341.7051 -50.3872)" display="none" font-family="'Poppins-Bold'" font-size="14">Family: Poppins</text>
<text transform="matrix(1 0 0 1 -1341.3594 -16.1104)" display="none" font-family="'Poppins-Regular'" font-size="14">Regular 400</text>
<text transform="matrix(1 0 0 1 -726.4238 -81.3979)" display="none" font-family="'Poppins-Bold'" font-size="18">Horizontal</text>
<text transform="matrix(1 0 0 1 -1341.1875 136.6172)" display="none" font-family="'Poppins-Bold'" font-size="18">Base</text>
<text transform="matrix(1 0 0 1 -1341.1875 167.6279)" display="none" font-family="'Raleway-SemiBold'" font-size="14">Family: Raleway</text>
<text transform="matrix(1 0 0 1 -1341.1875 205.6948)" display="none" font-family="'Raleway-Light'" font-size="14">Light 300</text>
<text transform="matrix(1 0 0 1 -725.9063 84.6021)" display="none" font-family="'Poppins-Bold'" font-size="18">Vertical</text>
<text transform="matrix(1 0 0 1 -711.3535 326.6021)" display="none" font-family="'Poppins-Bold'" font-size="18">Uses</text>
<g display="none">
	<rect x="-761.336" y="527.222" display="inline" fill="#DBF0EF" width="566.929" height="53.184"/>
	<path display="inline" fill="#F8CC7B" d="M-431.366,557.814c0,6.627-5.372,12-12,12h-59.505c-6.627,0-12-5.373-12-12v-8
		c0-6.627,5.373-12,12-12h59.505c6.628,0,12,5.373,12,12V557.814z"/>
	<text transform="matrix(1 0 0 1 -757.0146 558.9712)" display="inline"><tspan x="0" y="0" fill="#4E9A92" font-family="'Raleway-SemiBold'" font-size="14">Lactancia</tspan><tspan x="64.398" y="0" fill="#4E9A92" font-family="'Raleway-SemiBold'" font-size="14" letter-spacing="4">	</tspan><tspan x="71.999" y="0" fill="#4E9A92" font-family="'Raleway-SemiBold'" font-size="14" letter-spacing="32">	</tspan><tspan x="107.999" y="0" fill="#4E9A92" font-family="'Raleway-SemiBold'" font-size="14">Primeras Comidas</tspan><tspan x="228.173" y="0" fill="#4E9A92" font-family="'Raleway-SemiBold'" font-size="14" letter-spacing="20">	</tspan><tspan x="251.999" y="0" fill="#666766" font-family="'Raleway-SemiBold'" font-size="14">Chupetes</tspan><tspan x="315.923" y="0" fill="#4E9A92" font-family="'Raleway-SemiBold'" font-size="14" letter-spacing="4">	</tspan><tspan x="324" y="0" fill="#4E9A92" font-family="'Raleway-SemiBold'" font-size="14" letter-spacing="32">	</tspan><tspan x="360" y="0" fill="#4E9A92" font-family="'Raleway-SemiBold'" font-size="14">Higiene</tspan><tspan x="411.001" y="0" fill="#4E9A92" font-family="'Raleway-SemiBold'" font-size="14" letter-spacing="17">	</tspan><tspan x="432" y="0" fill="#4E9A92" font-family="'Raleway-SemiBold'" font-size="14" letter-spacing="32">	</tspan><tspan x="468" y="0" fill="#4E9A92" font-family="'Raleway-SemiBold'" font-size="14">Paseo</tspan></text>
</g>
<text transform="matrix(1 0 0 1 -1341.3594 23.8896)" display="none" font-family="'Poppins-SemiBold'" font-size="14">Semi-bold 600</text>
<text transform="matrix(1 0 0 1 -1341.3594 63.8896)" display="none" font-family="'Poppins-Bold'" font-size="14">Bold 700</text>
<text transform="matrix(1 0 0 1 -1341.1875 245.6948)" display="none" font-family="'Poppins-Regular'" font-size="14">Regular 400</text>
<g display="none">
	<g display="inline">
		<path fill="#4E9A92" d="M-10.252-185.646v37.064h-9.027v-22.227l-8.291,22.227h-7.283l-8.346-22.28v22.28h-9.027v-37.064h10.666
			l10.4,25.66l10.297-25.66H-10.252z"/>
		<path fill="#7CBFB8" d="M3.951-185.646v37.064h-9.027v-37.064H3.951z"/>
		<path fill="#7CBFB8" d="M15.305-149.533c-2.148-0.879-3.865-2.182-5.148-3.907c-1.287-1.723-1.963-3.801-2.033-6.229h9.609
			c0.141,1.373,0.615,2.42,1.424,3.142c0.811,0.721,1.867,1.083,3.168,1.083c1.338,0,2.396-0.309,3.168-0.924
			c0.775-0.616,1.162-1.47,1.162-2.561c0-0.915-0.309-1.672-0.924-2.271c-0.615-0.598-1.371-1.091-2.27-1.479
			c-0.898-0.387-2.174-0.827-3.828-1.32c-2.395-0.739-4.348-1.477-5.859-2.216c-1.516-0.74-2.816-1.83-3.908-3.274
			s-1.637-3.327-1.637-5.65c0-3.449,1.25-6.15,3.748-8.104s5.756-2.931,9.77-2.931c4.082,0,7.373,0.977,9.873,2.931
			c2.498,1.954,3.834,4.672,4.012,8.157h-9.768c-0.07-1.196-0.512-2.138-1.32-2.825c-0.811-0.686-1.848-1.029-3.115-1.029
			c-1.09,0-1.971,0.291-2.641,0.871c-0.668,0.581-1.002,1.417-1.002,2.508c0,1.198,0.563,2.13,1.689,2.798
			c1.127,0.67,2.887,1.391,5.279,2.165c2.395,0.81,4.338,1.584,5.836,2.323c1.494,0.739,2.789,1.813,3.879,3.22
			c1.092,1.409,1.637,3.221,1.637,5.438c0,2.112-0.535,4.031-1.609,5.755c-1.074,1.725-2.633,3.099-4.674,4.119
			s-4.451,1.53-7.232,1.53C19.879-148.212,17.451-148.652,15.305-149.533z"/>
		<path fill="#7CBFB8" d="M61.818-148.583L49.357-164.95v16.367H40.33v-37.064h9.027v16.262l12.355-16.262h10.611l-14.359,18.162
			l14.889,18.902H61.818z"/>
		<path fill="#4E9A92" d="M113.295-164.394c1.303,1.671,1.953,3.581,1.953,5.728c0,3.098-1.08,5.552-3.246,7.364
			c-2.164,1.814-5.184,2.72-9.055,2.72H85.682v-37.064h16.684c3.768,0,6.715,0.863,8.844,2.587c2.131,1.725,3.195,4.065,3.195,7.022
			c0,2.183-0.572,3.995-1.717,5.438c-1.143,1.444-2.666,2.447-4.566,3.009C110.268-167.131,111.992-166.066,113.295-164.394z
			 M94.711-170.651h5.912c1.479,0,2.615-0.325,3.406-0.977c0.793-0.651,1.188-1.61,1.188-2.877c0-1.268-0.395-2.235-1.188-2.904
			c-0.791-0.668-1.928-1.003-3.406-1.003h-5.912V-170.651z M104.875-156.897c0.824-0.687,1.238-1.681,1.238-2.983
			c0-1.302-0.43-2.323-1.291-3.063c-0.865-0.739-2.051-1.109-3.564-1.109h-6.547v8.185h6.652
			C102.877-155.867,104.047-156.212,104.875-156.897z"/>
		<path fill="#7CBFB8" d="M142.229-155.13h-13.832l-2.217,6.547h-9.453l13.412-37.064h10.455l13.41,37.064h-9.557L142.229-155.13z
			 M139.906-162.099l-4.594-13.569l-4.539,13.569H139.906z"/>
		<path fill="#7CBFB8" d="M184.363-164.394c1.301,1.671,1.953,3.581,1.953,5.728c0,3.098-1.084,5.552-3.248,7.364
			c-2.164,1.814-5.184,2.72-9.055,2.72h-17.266v-37.064h16.686c3.764,0,6.713,0.863,8.844,2.587
			c2.129,1.725,3.193,4.065,3.193,7.022c0,2.183-0.572,3.995-1.717,5.438c-1.143,1.444-2.664,2.447-4.564,3.009
			C181.334-167.131,183.061-166.066,184.363-164.394z M165.777-170.651h5.914c1.479,0,2.611-0.325,3.404-0.977
			c0.791-0.651,1.189-1.61,1.189-2.877c0-1.268-0.398-2.235-1.189-2.904c-0.793-0.668-1.926-1.003-3.404-1.003h-5.914V-170.651z
			 M175.939-156.897c0.828-0.687,1.242-1.681,1.242-2.983c0-1.302-0.432-2.323-1.295-3.063c-0.861-0.739-2.051-1.109-3.563-1.109
			h-6.547v8.185h6.652C173.941-155.867,175.113-156.212,175.939-156.897z"/>
		<path fill="#7CBFB8" d="M222.008-185.646l-12.83,24.815v12.249h-9.029v-12.249l-12.83-24.815h10.244l7.18,15.522l7.127-15.522
			H222.008z"/>
	</g>
	<g display="inline">
		<path fill="#4E9891" d="M-38.732-137.633h-3.637v9.409h-1.738v-9.409h-3.65v-1.525h9.025V-137.633z"/>
		<path fill="#4E9891" d="M-35.453-128.071c-0.627,0-1.193-0.109-1.703-0.328c-0.506-0.219-0.945-0.52-1.314-0.902
			c-0.371-0.381-0.654-0.819-0.855-1.314c-0.199-0.493-0.299-1.021-0.299-1.582c0-0.751,0.174-1.438,0.523-2.063
			c0.348-0.624,0.836-1.127,1.461-1.508c0.627-0.381,1.361-0.57,2.203-0.57c0.84,0,1.566,0.189,2.18,0.571
			c0.609,0.381,1.084,0.882,1.424,1.503c0.34,0.619,0.508,1.285,0.508,1.997c0,0.122-0.006,0.236-0.016,0.343
			s-0.02,0.196-0.031,0.267h-6.451c0.029,0.466,0.162,0.874,0.393,1.224c0.23,0.351,0.525,0.623,0.885,0.82
			c0.359,0.198,0.744,0.297,1.156,0.297c0.451,0,0.879-0.112,1.285-0.339s0.68-0.522,0.824-0.893l1.447,0.415
			c-0.174,0.391-0.439,0.742-0.793,1.055c-0.354,0.314-0.773,0.56-1.256,0.739S-34.889-128.071-35.453-128.071z M-37.871-132.783
			h4.867c-0.031-0.452-0.162-0.853-0.393-1.2c-0.23-0.347-0.523-0.619-0.879-0.814c-0.354-0.197-0.746-0.295-1.178-0.295
			c-0.42,0-0.809,0.098-1.162,0.295c-0.354,0.195-0.645,0.468-0.869,0.814C-37.711-133.635-37.84-133.235-37.871-132.783z"/>
		<path fill="#4E9891" d="M-26.723-130.558c0-0.508,0.146-0.953,0.439-1.334c0.293-0.382,0.695-0.678,1.207-0.886
			c0.516-0.209,1.111-0.313,1.789-0.313c0.359,0,0.725,0.025,1.1,0.076c0.375,0.052,0.705,0.134,0.994,0.247v-0.505
			c0-0.557-0.17-0.991-0.508-1.304c-0.34-0.313-0.826-0.471-1.463-0.471c-0.453,0-0.879,0.08-1.279,0.239s-0.826,0.382-1.277,0.669
			l-0.57-1.139c0.533-0.359,1.07-0.627,1.609-0.802c0.539-0.174,1.105-0.261,1.701-0.261c1.078,0,1.928,0.281,2.549,0.845
			s0.932,1.363,0.932,2.398v2.969c0,0.192,0.033,0.329,0.1,0.411c0.068,0.082,0.182,0.127,0.348,0.138v1.354
			c-0.154,0.031-0.293,0.051-0.418,0.062c-0.121,0.011-0.225,0.015-0.307,0.015c-0.359,0-0.631-0.087-0.816-0.261
			c-0.184-0.175-0.291-0.38-0.324-0.616l-0.045-0.462c-0.35,0.452-0.795,0.801-1.34,1.047c-0.545,0.247-1.094,0.369-1.646,0.369
			c-0.535,0-1.012-0.108-1.434-0.327c-0.42-0.219-0.748-0.517-0.984-0.893C-26.604-129.667-26.723-130.088-26.723-130.558z
			 M-21.594-130.075c0.123-0.131,0.221-0.263,0.293-0.395c0.07-0.131,0.107-0.247,0.107-0.348v-0.909
			c-0.289-0.11-0.59-0.194-0.908-0.249c-0.318-0.056-0.633-0.084-0.939-0.084c-0.617,0-1.117,0.121-1.504,0.364
			c-0.383,0.242-0.576,0.575-0.576,0.999c0,0.233,0.064,0.454,0.193,0.666s0.313,0.385,0.555,0.516
			c0.24,0.132,0.541,0.196,0.9,0.196c0.369,0,0.723-0.071,1.063-0.211C-22.072-129.67-21.799-129.852-21.594-130.075z"/>
		<path fill="#4E9891" d="M-13.803-128.071c-0.625,0-1.193-0.108-1.701-0.327s-0.947-0.521-1.316-0.908s-0.654-0.828-0.854-1.327
			c-0.203-0.499-0.301-1.028-0.301-1.588c0-0.752,0.172-1.438,0.514-2.06c0.346-0.619,0.828-1.119,1.449-1.495
			s1.357-0.563,2.209-0.563c0.822,0,1.537,0.183,2.148,0.546c0.611,0.365,1.061,0.85,1.348,1.456l-1.648,0.522
			c-0.186-0.339-0.443-0.603-0.777-0.793c-0.334-0.189-0.699-0.285-1.1-0.285c-0.453,0-0.859,0.115-1.225,0.343
			c-0.365,0.227-0.654,0.541-0.863,0.941c-0.211,0.399-0.316,0.862-0.316,1.388c0,0.507,0.107,0.966,0.324,1.375
			c0.217,0.41,0.506,0.734,0.871,0.972c0.363,0.237,0.771,0.357,1.223,0.357c0.277,0,0.547-0.049,0.809-0.147
			c0.264-0.097,0.49-0.231,0.686-0.4c0.193-0.169,0.334-0.356,0.416-0.562l1.662,0.492c-0.174,0.4-0.434,0.755-0.775,1.063
			c-0.346,0.308-0.75,0.551-1.219,0.73C-12.707-128.161-13.229-128.071-13.803-128.071z"/>
		<path fill="#4E9891" d="M-5.303-128.071c-0.637,0-1.207-0.108-1.709-0.327c-0.504-0.219-0.936-0.521-1.301-0.908
			s-0.645-0.826-0.838-1.32c-0.195-0.493-0.295-1.019-0.295-1.579c0-0.559,0.1-1.087,0.295-1.587
			c0.193-0.497,0.473-0.938,0.838-1.319c0.365-0.381,0.801-0.681,1.309-0.899c0.51-0.219,1.074-0.328,1.701-0.328
			c0.629,0,1.193,0.109,1.703,0.328c0.508,0.219,0.943,0.519,1.309,0.899c0.363,0.382,0.645,0.822,0.838,1.319
			c0.195,0.5,0.295,1.028,0.295,1.587c0,0.561-0.1,1.086-0.295,1.579c-0.193,0.494-0.475,0.934-0.838,1.32
			c-0.365,0.387-0.801,0.689-1.309,0.908C-4.109-128.179-4.674-128.071-5.303-128.071z M-7.703-132.189
			c0,0.506,0.107,0.961,0.322,1.365c0.215,0.405,0.504,0.725,0.863,0.957c0.357,0.232,0.764,0.35,1.215,0.35
			c0.443,0,0.846-0.12,1.211-0.357c0.363-0.237,0.652-0.562,0.869-0.972c0.215-0.409,0.322-0.862,0.322-1.359
			c0-0.506-0.107-0.961-0.322-1.366c-0.217-0.404-0.506-0.726-0.869-0.964c-0.365-0.238-0.768-0.357-1.211-0.357
			c-0.451,0-0.857,0.122-1.215,0.365c-0.359,0.243-0.648,0.564-0.863,0.965C-7.596-133.165-7.703-132.706-7.703-132.189z"/>
		<path fill="#4E9891" d="M12.67-128.224h-1.693v-4.461c0-0.74-0.123-1.282-0.371-1.628c-0.246-0.346-0.605-0.518-1.078-0.518
			s-0.91,0.174-1.316,0.525c-0.406,0.351-0.689,0.805-0.855,1.362v4.719H5.662v-4.461c0-0.74-0.123-1.282-0.369-1.628
			s-0.6-0.518-1.063-0.518c-0.473,0-0.912,0.171-1.316,0.515c-0.404,0.343-0.697,0.792-0.869,1.348v4.744H0.35v-7.993h1.539v1.616
			c0.318-0.559,0.736-0.988,1.256-1.289c0.518-0.3,1.111-0.449,1.779-0.449s1.193,0.172,1.578,0.519
			c0.385,0.345,0.623,0.778,0.715,1.297c0.35-0.591,0.779-1.041,1.287-1.35c0.508-0.311,1.092-0.466,1.748-0.466
			c0.473,0,0.865,0.086,1.186,0.259c0.318,0.173,0.564,0.409,0.738,0.709c0.176,0.301,0.301,0.646,0.379,1.038
			c0.076,0.392,0.115,0.805,0.115,1.243V-128.224z"/>
		<path fill="#4E9891" d="M19.199-128.071c-0.646,0-1.217-0.152-1.709-0.457c-0.494-0.306-0.883-0.702-1.172-1.19v4.773h-1.693
			v-11.272h1.494v1.449c0.307-0.479,0.707-0.859,1.199-1.145c0.494-0.284,1.043-0.427,1.648-0.427c0.555,0,1.064,0.109,1.525,0.328
			s0.861,0.521,1.201,0.907c0.338,0.387,0.604,0.826,0.793,1.32c0.189,0.493,0.285,1.014,0.285,1.563
			c0,0.764-0.15,1.461-0.455,2.091c-0.303,0.631-0.725,1.132-1.264,1.503C20.516-128.255,19.896-128.071,19.199-128.071z
			 M18.645-129.517c0.359,0,0.684-0.076,0.979-0.229c0.291-0.151,0.543-0.354,0.754-0.607c0.209-0.252,0.371-0.542,0.484-0.866
			c0.113-0.322,0.17-0.656,0.17-1.002c0-0.363-0.063-0.707-0.186-1.031s-0.299-0.607-0.529-0.851
			c-0.232-0.243-0.5-0.435-0.803-0.576s-0.635-0.214-0.992-0.214c-0.217,0-0.441,0.041-0.68,0.122
			c-0.234,0.08-0.455,0.191-0.662,0.332c-0.203,0.142-0.383,0.308-0.537,0.5s-0.262,0.393-0.324,0.604v2.09
			c0.145,0.323,0.334,0.614,0.57,0.872c0.236,0.256,0.508,0.463,0.816,0.62S18.326-129.517,18.645-129.517z"/>
		<path fill="#4E9891" d="M23.711-130.558c0-0.508,0.146-0.953,0.439-1.334c0.293-0.382,0.693-0.678,1.207-0.886
			c0.514-0.209,1.109-0.313,1.787-0.313c0.359,0,0.727,0.025,1.1,0.076c0.375,0.052,0.707,0.134,0.994,0.247v-0.505
			c0-0.557-0.168-0.991-0.506-1.304c-0.34-0.313-0.828-0.471-1.465-0.471c-0.453,0-0.877,0.08-1.279,0.239
			c-0.398,0.159-0.824,0.382-1.275,0.669l-0.57-1.139c0.533-0.359,1.068-0.627,1.607-0.802c0.541-0.174,1.107-0.261,1.703-0.261
			c1.076,0,1.928,0.281,2.549,0.845c0.619,0.563,0.93,1.363,0.93,2.398v2.969c0,0.192,0.035,0.329,0.102,0.411
			s0.182,0.127,0.346,0.138v1.354c-0.152,0.031-0.293,0.051-0.416,0.062s-0.225,0.015-0.307,0.015c-0.359,0-0.633-0.087-0.816-0.261
			c-0.184-0.175-0.291-0.38-0.324-0.616l-0.045-0.462c-0.35,0.452-0.797,0.801-1.34,1.047c-0.545,0.247-1.094,0.369-1.648,0.369
			c-0.533,0-1.012-0.108-1.432-0.327s-0.75-0.517-0.986-0.893C23.828-129.667,23.711-130.088,23.711-130.558z M28.84-130.075
			c0.121-0.131,0.221-0.263,0.291-0.395c0.072-0.131,0.107-0.247,0.107-0.348v-0.909c-0.287-0.11-0.59-0.194-0.908-0.249
			c-0.318-0.056-0.631-0.084-0.939-0.084c-0.615,0-1.117,0.121-1.502,0.364c-0.385,0.242-0.578,0.575-0.578,0.999
			c0,0.233,0.066,0.454,0.193,0.666c0.129,0.212,0.314,0.385,0.555,0.516c0.24,0.132,0.541,0.196,0.9,0.196
			c0.371,0,0.725-0.071,1.064-0.211C28.361-129.67,28.633-129.852,28.84-130.075z"/>
		<path fill="#4E9891" d="M40.203-128.224h-1.695v-4.461c0-0.74-0.119-1.282-0.361-1.628c-0.24-0.346-0.598-0.518-1.068-0.518
			c-0.33,0-0.656,0.08-0.979,0.242c-0.324,0.161-0.615,0.381-0.871,0.658c-0.256,0.278-0.441,0.599-0.553,0.962v4.744H32.98v-7.993
			h1.539v1.616c0.207-0.356,0.477-0.663,0.809-0.922c0.336-0.26,0.713-0.461,1.133-0.604s0.867-0.213,1.34-0.213
			c0.482,0,0.881,0.086,1.193,0.259s0.561,0.409,0.738,0.709c0.182,0.301,0.305,0.646,0.371,1.038c0.066,0.392,0.1,0.805,0.1,1.243
			V-128.224z M37.709-137.696c-0.309,0-0.572-0.056-0.793-0.169c-0.223-0.111-0.422-0.223-0.602-0.331
			c-0.18-0.107-0.383-0.161-0.607-0.161c-0.227,0-0.393,0.057-0.5,0.169c-0.107,0.113-0.178,0.231-0.209,0.354
			s-0.047,0.195-0.047,0.216h-0.953c0-0.082,0.025-0.219,0.076-0.408c0.053-0.19,0.141-0.391,0.27-0.602
			c0.127-0.21,0.297-0.39,0.508-0.538c0.211-0.149,0.475-0.224,0.795-0.224c0.305,0,0.563,0.057,0.768,0.169
			c0.207,0.113,0.404,0.227,0.594,0.34s0.408,0.169,0.654,0.169c0.256,0,0.441-0.059,0.555-0.178
			c0.113-0.117,0.188-0.238,0.223-0.362c0.035-0.122,0.053-0.194,0.053-0.214h0.973c0,0.071-0.029,0.199-0.086,0.384
			c-0.057,0.186-0.152,0.386-0.283,0.601c-0.135,0.216-0.314,0.401-0.541,0.555C38.33-137.773,38.047-137.696,37.709-137.696z"/>
		<path fill="#4E9891" d="M41.59-130.558c0-0.508,0.145-0.953,0.438-1.334c0.293-0.382,0.695-0.678,1.209-0.886
			c0.514-0.209,1.107-0.313,1.785-0.313c0.359,0,0.727,0.025,1.102,0.076c0.375,0.052,0.707,0.134,0.994,0.247v-0.505
			c0-0.557-0.17-0.991-0.508-1.304c-0.338-0.313-0.826-0.471-1.463-0.471c-0.453,0-0.879,0.08-1.279,0.239s-0.826,0.382-1.277,0.669
			l-0.57-1.139c0.533-0.359,1.07-0.627,1.609-0.802c0.537-0.174,1.105-0.261,1.701-0.261c1.078,0,1.928,0.281,2.549,0.845
			s0.932,1.363,0.932,2.398v2.969c0,0.192,0.033,0.329,0.1,0.411s0.184,0.127,0.348,0.138v1.354
			c-0.154,0.031-0.293,0.051-0.416,0.062s-0.227,0.015-0.309,0.015c-0.359,0-0.631-0.087-0.816-0.261
			c-0.184-0.175-0.291-0.38-0.322-0.616l-0.047-0.462c-0.35,0.452-0.795,0.801-1.34,1.047c-0.545,0.247-1.094,0.369-1.648,0.369
			c-0.533,0-1.01-0.108-1.432-0.327c-0.42-0.219-0.75-0.517-0.986-0.893C41.707-129.667,41.59-130.088,41.59-130.558z
			 M46.717-130.075c0.123-0.131,0.221-0.263,0.293-0.395c0.07-0.131,0.107-0.247,0.107-0.348v-0.909
			c-0.287-0.11-0.592-0.194-0.908-0.249c-0.318-0.056-0.633-0.084-0.941-0.084c-0.613,0-1.115,0.121-1.5,0.364
			c-0.385,0.242-0.578,0.575-0.578,0.999c0,0.233,0.064,0.454,0.193,0.666c0.127,0.212,0.313,0.385,0.555,0.516
			c0.24,0.132,0.541,0.196,0.9,0.196c0.369,0,0.725-0.071,1.063-0.211C46.24-129.67,46.51-129.852,46.717-130.075z"/>
		<path fill="#4E9891" d="M63.178-128.224h-1.693v-4.461c0-0.74-0.123-1.282-0.369-1.628c-0.248-0.346-0.607-0.518-1.078-0.518
			c-0.473,0-0.912,0.174-1.318,0.525c-0.404,0.351-0.689,0.805-0.854,1.362v4.719h-1.693v-4.461c0-0.74-0.125-1.282-0.371-1.628
			s-0.6-0.518-1.063-0.518c-0.471,0-0.91,0.171-1.314,0.515c-0.406,0.343-0.697,0.792-0.871,1.348v4.744h-1.693v-7.993h1.539v1.616
			c0.32-0.559,0.736-0.988,1.256-1.289c0.518-0.3,1.109-0.449,1.779-0.449c0.666,0,1.193,0.172,1.576,0.519
			c0.387,0.345,0.623,0.778,0.719,1.297c0.348-0.591,0.777-1.041,1.285-1.35c0.508-0.311,1.09-0.466,1.748-0.466
			c0.471,0,0.865,0.086,1.186,0.259c0.316,0.173,0.564,0.409,0.738,0.709c0.174,0.301,0.301,0.646,0.377,1.038
			c0.078,0.392,0.115,0.805,0.115,1.243V-128.224z"/>
		<path fill="#4E9891" d="M68.754-128.071c-0.639,0-1.207-0.108-1.711-0.327c-0.502-0.219-0.938-0.521-1.301-0.908
			c-0.365-0.387-0.645-0.826-0.84-1.32c-0.193-0.493-0.293-1.019-0.293-1.579c0-0.559,0.1-1.087,0.293-1.587
			c0.195-0.497,0.475-0.938,0.84-1.319c0.363-0.381,0.801-0.681,1.309-0.899c0.51-0.219,1.076-0.328,1.703-0.328
			c0.625,0,1.193,0.109,1.701,0.328s0.943,0.519,1.309,0.899c0.365,0.382,0.643,0.822,0.84,1.319c0.193,0.5,0.291,1.028,0.291,1.587
			c0,0.561-0.098,1.086-0.291,1.579c-0.197,0.494-0.475,0.934-0.84,1.32s-0.801,0.689-1.309,0.908S69.379-128.071,68.754-128.071z
			 M66.35-132.189c0,0.506,0.109,0.961,0.322,1.365c0.219,0.405,0.504,0.725,0.863,0.957s0.766,0.35,1.219,0.35
			c0.441,0,0.844-0.12,1.207-0.357c0.365-0.237,0.654-0.562,0.871-0.972c0.215-0.409,0.322-0.862,0.322-1.359
			c0-0.506-0.107-0.961-0.322-1.366c-0.217-0.404-0.506-0.726-0.871-0.964c-0.363-0.238-0.766-0.357-1.207-0.357
			c-0.453,0-0.859,0.122-1.219,0.365s-0.645,0.564-0.863,0.965C66.459-133.165,66.35-132.706,66.35-132.189z"/>
		<path fill="#4E9891" d="M77.27-128.071c-0.678,0-1.32-0.109-1.926-0.33s-1.123-0.553-1.555-0.994l0.631-1.14
			c0.463,0.411,0.926,0.709,1.393,0.894s0.934,0.276,1.395,0.276c0.473,0,0.857-0.087,1.154-0.264
			c0.299-0.175,0.447-0.434,0.447-0.776c0-0.254-0.078-0.442-0.23-0.563c-0.154-0.123-0.377-0.23-0.67-0.321
			s-0.645-0.193-1.055-0.306c-0.574-0.173-1.059-0.354-1.449-0.541c-0.389-0.188-0.682-0.42-0.877-0.694
			c-0.193-0.274-0.293-0.625-0.293-1.053c0-0.519,0.133-0.961,0.4-1.327c0.266-0.366,0.641-0.646,1.117-0.84
			c0.479-0.193,1.029-0.289,1.656-0.289c0.584,0,1.125,0.09,1.623,0.269c0.498,0.18,0.938,0.46,1.316,0.84l-0.725,1.124
			c-0.357-0.329-0.725-0.569-1.1-0.724s-0.777-0.231-1.207-0.231c-0.248,0-0.484,0.028-0.709,0.084
			c-0.229,0.056-0.414,0.157-0.563,0.305c-0.15,0.148-0.225,0.353-0.225,0.617c0,0.213,0.063,0.385,0.186,0.519
			c0.123,0.132,0.307,0.242,0.555,0.333c0.246,0.093,0.549,0.194,0.908,0.306c0.627,0.183,1.16,0.363,1.602,0.541
			s0.783,0.406,1.025,0.685c0.24,0.28,0.361,0.663,0.361,1.15c0,0.772-0.291,1.374-0.871,1.805
			C79.006-128.286,78.232-128.071,77.27-128.071z"/>
		<path fill="#4E9891" d="M89.42-128.071c-0.629,0-1.195-0.109-1.703-0.328s-0.947-0.52-1.316-0.902
			c-0.371-0.381-0.656-0.819-0.855-1.314c-0.199-0.493-0.301-1.021-0.301-1.582c0-0.751,0.176-1.438,0.525-2.063
			c0.35-0.624,0.838-1.127,1.463-1.508s1.359-0.57,2.203-0.57c0.842,0,1.568,0.189,2.178,0.571c0.611,0.381,1.086,0.882,1.424,1.503
			c0.338,0.619,0.51,1.285,0.51,1.997c0,0.122-0.006,0.236-0.016,0.343c-0.012,0.106-0.021,0.196-0.031,0.267h-6.451
			c0.029,0.466,0.16,0.874,0.393,1.224c0.23,0.351,0.523,0.623,0.883,0.82c0.359,0.198,0.744,0.297,1.156,0.297
			c0.451,0,0.879-0.112,1.285-0.339s0.68-0.522,0.824-0.893l1.447,0.415c-0.174,0.391-0.438,0.742-0.793,1.055
			c-0.354,0.314-0.771,0.56-1.256,0.739C90.506-128.161,89.982-128.071,89.42-128.071z M87.002-132.783h4.865
			c-0.029-0.452-0.162-0.853-0.393-1.2c-0.232-0.347-0.523-0.619-0.877-0.814c-0.355-0.197-0.748-0.295-1.178-0.295
			c-0.422,0-0.811,0.098-1.164,0.295c-0.355,0.195-0.645,0.468-0.869,0.814C87.16-133.635,87.031-133.235,87.002-132.783z"/>
		<path fill="#4E9891" d="M102.154-128.224h-1.695v-4.461c0-0.74-0.121-1.282-0.361-1.628c-0.242-0.346-0.598-0.518-1.07-0.518
			c-0.328,0-0.654,0.08-0.979,0.242c-0.322,0.161-0.613,0.381-0.869,0.658c-0.258,0.278-0.441,0.599-0.555,0.962v4.744h-1.693
			v-7.993h1.539v1.616c0.207-0.356,0.477-0.663,0.809-0.922c0.334-0.26,0.711-0.461,1.133-0.604c0.42-0.143,0.867-0.213,1.34-0.213
			c0.482,0,0.881,0.086,1.193,0.259s0.559,0.409,0.738,0.709c0.18,0.301,0.303,0.646,0.369,1.038
			c0.066,0.392,0.102,0.805,0.102,1.243V-128.224z"/>
		<path fill="#4E9891" d="M110.793-128.071c-0.678,0-1.318-0.109-1.926-0.33c-0.605-0.221-1.123-0.553-1.555-0.994l0.631-1.14
			c0.463,0.411,0.928,0.709,1.395,0.894s0.932,0.276,1.393,0.276c0.471,0,0.857-0.087,1.156-0.264
			c0.297-0.175,0.445-0.434,0.445-0.776c0-0.254-0.076-0.442-0.23-0.563c-0.154-0.123-0.377-0.23-0.67-0.321
			s-0.643-0.193-1.055-0.306c-0.574-0.173-1.059-0.354-1.447-0.541c-0.391-0.188-0.682-0.42-0.879-0.694
			c-0.193-0.274-0.291-0.625-0.291-1.053c0-0.519,0.133-0.961,0.398-1.327c0.268-0.366,0.641-0.646,1.117-0.84
			c0.479-0.193,1.029-0.289,1.656-0.289c0.584,0,1.125,0.09,1.625,0.269c0.496,0.18,0.938,0.46,1.314,0.84l-0.723,1.124
			c-0.359-0.329-0.725-0.569-1.1-0.724c-0.377-0.154-0.779-0.231-1.211-0.231c-0.246,0-0.482,0.028-0.707,0.084
			c-0.227,0.056-0.414,0.157-0.561,0.305c-0.15,0.148-0.225,0.353-0.225,0.617c0,0.213,0.061,0.385,0.184,0.519
			c0.123,0.132,0.309,0.242,0.555,0.333c0.246,0.093,0.551,0.194,0.908,0.306c0.627,0.183,1.16,0.363,1.602,0.541
			c0.443,0.178,0.783,0.406,1.025,0.685c0.24,0.28,0.363,0.663,0.363,1.15c0,0.772-0.293,1.374-0.871,1.805
			C112.531-128.286,111.758-128.071,110.793-128.071z"/>
		<path fill="#4E9891" d="M115.412-131.327v-4.891h1.695v4.549c0,0.712,0.131,1.248,0.393,1.609s0.643,0.542,1.146,0.542
			c0.318,0,0.629-0.065,0.932-0.198c0.303-0.132,0.58-0.326,0.832-0.585c0.252-0.258,0.453-0.57,0.607-0.934v-4.983h1.693v6.088
			c0,0.193,0.037,0.331,0.109,0.412c0.07,0.083,0.189,0.128,0.354,0.139v1.354c-0.174,0.031-0.318,0.051-0.43,0.062
			c-0.113,0.011-0.223,0.015-0.324,0.015c-0.309,0-0.564-0.083-0.771-0.252c-0.205-0.167-0.322-0.384-0.354-0.648l-0.029-0.796
			c-0.361,0.581-0.828,1.022-1.402,1.322c-0.576,0.302-1.207,0.451-1.895,0.451c-0.842,0-1.479-0.274-1.91-0.824
			C115.629-129.446,115.412-130.255,115.412-131.327z"/>
		<path fill="#4E9891" d="M132.32-128.071c-0.625,0-1.193-0.108-1.701-0.327s-0.947-0.521-1.316-0.908s-0.654-0.828-0.854-1.327
			c-0.203-0.499-0.301-1.028-0.301-1.588c0-0.752,0.172-1.438,0.514-2.06c0.346-0.619,0.828-1.119,1.449-1.495
			s1.357-0.563,2.209-0.563c0.822,0,1.539,0.183,2.148,0.546c0.611,0.365,1.061,0.85,1.348,1.456l-1.648,0.522
			c-0.186-0.339-0.441-0.603-0.775-0.793c-0.336-0.189-0.701-0.285-1.102-0.285c-0.453,0-0.859,0.115-1.225,0.343
			c-0.365,0.227-0.654,0.541-0.863,0.941c-0.211,0.399-0.314,0.862-0.314,1.388c0,0.507,0.107,0.966,0.322,1.375
			c0.215,0.41,0.506,0.734,0.871,0.972c0.363,0.237,0.771,0.357,1.223,0.357c0.277,0,0.547-0.049,0.811-0.147
			c0.262-0.097,0.488-0.231,0.684-0.4s0.334-0.356,0.416-0.562l1.662,0.492c-0.174,0.4-0.432,0.755-0.775,1.063
			c-0.346,0.308-0.75,0.551-1.219,0.73C133.416-128.161,132.896-128.071,132.32-128.071z"/>
		<path fill="#4E9891" d="M141.807-134.815c-0.658,0.01-1.238,0.158-1.748,0.446c-0.508,0.287-0.869,0.692-1.086,1.216v4.929h-1.693
			v-7.993h1.57v1.74c0.277-0.554,0.643-0.998,1.094-1.331c0.451-0.334,0.928-0.517,1.432-0.547c0.102,0,0.188,0,0.254,0
			c0.068,0,0.127,0.005,0.178,0.016V-134.815z"/>
		<path fill="#4E9891" d="M146.551-128.071c-0.627,0-1.193-0.109-1.703-0.328c-0.508-0.219-0.947-0.52-1.316-0.902
			c-0.369-0.381-0.654-0.819-0.855-1.314c-0.199-0.493-0.301-1.021-0.301-1.582c0-0.751,0.176-1.438,0.525-2.063
			c0.35-0.624,0.836-1.127,1.463-1.508s1.359-0.57,2.203-0.57c0.84,0,1.568,0.189,2.178,0.571c0.611,0.381,1.086,0.882,1.424,1.503
			c0.338,0.619,0.51,1.285,0.51,1.997c0,0.122-0.006,0.236-0.016,0.343c-0.012,0.106-0.021,0.196-0.031,0.267h-6.453
			c0.033,0.466,0.162,0.874,0.395,1.224c0.229,0.351,0.525,0.623,0.885,0.82c0.357,0.198,0.744,0.297,1.154,0.297
			c0.453,0,0.881-0.112,1.287-0.339c0.404-0.227,0.678-0.522,0.822-0.893l1.447,0.415c-0.174,0.391-0.438,0.742-0.791,1.055
			c-0.355,0.314-0.773,0.56-1.258,0.739C147.639-128.161,147.115-128.071,146.551-128.071z M144.133-132.783H149
			c-0.031-0.452-0.164-0.853-0.393-1.2c-0.232-0.347-0.525-0.619-0.879-0.814c-0.354-0.197-0.748-0.295-1.178-0.295
			c-0.422,0-0.809,0.098-1.164,0.295c-0.354,0.195-0.643,0.468-0.869,0.814C144.291-133.635,144.164-133.235,144.133-132.783z"/>
		<path fill="#4E9891" d="M155.713-128.071c-0.627,0-1.193-0.108-1.703-0.327c-0.508-0.219-0.947-0.521-1.314-0.908
			c-0.371-0.387-0.656-0.828-0.855-1.327c-0.201-0.499-0.301-1.028-0.301-1.588c0-0.752,0.172-1.438,0.516-2.06
			c0.344-0.619,0.826-1.119,1.447-1.495c0.623-0.376,1.359-0.563,2.211-0.563c0.82,0,1.537,0.183,2.148,0.546
			c0.609,0.365,1.059,0.85,1.348,1.456l-1.648,0.522c-0.186-0.339-0.445-0.603-0.779-0.793c-0.332-0.189-0.699-0.285-1.1-0.285
			c-0.453,0-0.859,0.115-1.227,0.343c-0.363,0.227-0.65,0.541-0.861,0.941c-0.209,0.399-0.314,0.862-0.314,1.388
			c0,0.507,0.107,0.966,0.324,1.375c0.215,0.41,0.506,0.734,0.869,0.972s0.771,0.357,1.225,0.357c0.277,0,0.547-0.049,0.807-0.147
			c0.264-0.097,0.492-0.231,0.686-0.4c0.195-0.169,0.334-0.356,0.416-0.562l1.664,0.492c-0.176,0.4-0.434,0.755-0.779,1.063
			c-0.344,0.308-0.748,0.551-1.215,0.73S156.287-128.071,155.713-128.071z"/>
		<path fill="#4E9891" d="M160.67-137.603v-1.862h1.695v1.862H160.67z M160.67-128.224v-8.055h1.695v8.055H160.67z"/>
		<path fill="#4E9891" d="M176.717-128.224h-1.693v-4.461c0-0.74-0.125-1.282-0.369-1.628c-0.248-0.346-0.607-0.518-1.08-0.518
			s-0.91,0.174-1.316,0.525c-0.404,0.351-0.689,0.805-0.854,1.362v4.719h-1.693v-4.461c0-0.74-0.125-1.282-0.371-1.628
			s-0.602-0.518-1.063-0.518c-0.473,0-0.91,0.171-1.316,0.515c-0.406,0.343-0.695,0.792-0.871,1.348v4.744h-1.693v-7.993h1.541
			v1.616c0.318-0.559,0.736-0.988,1.254-1.289c0.52-0.3,1.111-0.449,1.779-0.449s1.193,0.172,1.578,0.519
			c0.387,0.345,0.623,0.778,0.717,1.297c0.348-0.591,0.777-1.041,1.285-1.35c0.508-0.311,1.09-0.466,1.748-0.466
			c0.471,0,0.867,0.086,1.186,0.259s0.566,0.409,0.74,0.709c0.174,0.301,0.301,0.646,0.377,1.038
			c0.076,0.392,0.115,0.805,0.115,1.243V-128.224z"/>
		<path fill="#4E9891" d="M178.674-137.603v-1.862h1.693v1.862H178.674z M178.674-128.224v-8.055h1.693v8.055H178.674z"/>
		<path fill="#4E9891" d="M186.049-128.071c-0.627,0-1.193-0.109-1.703-0.328c-0.508-0.219-0.947-0.52-1.314-0.902
			c-0.371-0.381-0.656-0.819-0.855-1.314c-0.201-0.493-0.301-1.021-0.301-1.582c0-0.751,0.174-1.438,0.523-2.063
			c0.35-0.624,0.838-1.127,1.463-1.508c0.627-0.381,1.361-0.57,2.203-0.57s1.568,0.189,2.18,0.571
			c0.609,0.381,1.084,0.882,1.422,1.503c0.338,0.619,0.51,1.285,0.51,1.997c0,0.122-0.006,0.236-0.016,0.343
			s-0.02,0.196-0.031,0.267h-6.451c0.031,0.466,0.16,0.874,0.393,1.224c0.23,0.351,0.525,0.623,0.885,0.82
			c0.359,0.198,0.744,0.297,1.154,0.297c0.453,0,0.881-0.112,1.287-0.339s0.68-0.522,0.822-0.893l1.447,0.415
			c-0.174,0.391-0.438,0.742-0.791,1.055c-0.355,0.314-0.773,0.56-1.256,0.739S186.613-128.071,186.049-128.071z M183.631-132.783
			h4.865c-0.029-0.452-0.16-0.853-0.391-1.2c-0.232-0.347-0.525-0.619-0.879-0.814c-0.354-0.197-0.746-0.295-1.178-0.295
			c-0.422,0-0.809,0.098-1.162,0.295c-0.355,0.195-0.645,0.468-0.871,0.814C183.789-133.635,183.662-133.235,183.631-132.783z"/>
		<path fill="#4E9891" d="M198.783-128.224h-1.693v-4.461c0-0.74-0.121-1.282-0.361-1.628c-0.242-0.346-0.598-0.518-1.072-0.518
			c-0.328,0-0.652,0.08-0.977,0.242c-0.324,0.161-0.615,0.381-0.869,0.658c-0.258,0.278-0.443,0.599-0.557,0.962v4.744h-1.693
			v-7.993h1.541v1.616c0.205-0.356,0.475-0.663,0.807-0.922c0.334-0.26,0.711-0.461,1.133-0.604c0.42-0.143,0.867-0.213,1.34-0.213
			c0.482,0,0.881,0.086,1.193,0.259s0.559,0.409,0.74,0.709c0.178,0.301,0.301,0.646,0.367,1.038
			c0.068,0.392,0.102,0.805,0.102,1.243V-128.224z"/>
		<path fill="#4E9891" d="M205.174-128.609c-0.143,0.071-0.322,0.148-0.539,0.23c-0.215,0.082-0.459,0.154-0.73,0.216
			c-0.273,0.062-0.553,0.092-0.84,0.092c-0.35,0-0.674-0.061-0.971-0.184s-0.537-0.319-0.715-0.589
			c-0.182-0.271-0.271-0.622-0.271-1.051v-5.014h-1.061v-1.31h1.061v-2.647h1.695v2.647h1.754v1.31h-1.754v4.471
			c0.021,0.275,0.109,0.48,0.27,0.612c0.16,0.133,0.355,0.199,0.592,0.199s0.463-0.041,0.68-0.123
			c0.213-0.083,0.375-0.149,0.477-0.2L205.174-128.609z"/>
		<path fill="#4E9891" d="M209.857-128.071c-0.639,0-1.207-0.108-1.711-0.327s-0.938-0.521-1.301-0.908
			c-0.365-0.387-0.645-0.826-0.84-1.32c-0.193-0.493-0.293-1.019-0.293-1.579c0-0.559,0.1-1.087,0.293-1.587
			c0.195-0.497,0.475-0.938,0.84-1.319c0.363-0.381,0.801-0.681,1.309-0.899s1.074-0.328,1.703-0.328
			c0.625,0,1.193,0.109,1.701,0.328s0.941,0.519,1.309,0.899c0.363,0.382,0.643,0.822,0.838,1.319
			c0.195,0.5,0.293,1.028,0.293,1.587c0,0.561-0.098,1.086-0.293,1.579c-0.195,0.494-0.475,0.934-0.838,1.32
			c-0.367,0.387-0.801,0.689-1.309,0.908S210.482-128.071,209.857-128.071z M207.453-132.189c0,0.506,0.107,0.961,0.322,1.365
			c0.217,0.405,0.504,0.725,0.863,0.957c0.361,0.232,0.766,0.35,1.219,0.35c0.441,0,0.844-0.12,1.207-0.357
			c0.365-0.237,0.654-0.562,0.871-0.972c0.215-0.409,0.322-0.862,0.322-1.359c0-0.506-0.107-0.961-0.322-1.366
			c-0.217-0.404-0.506-0.726-0.871-0.964c-0.363-0.238-0.766-0.357-1.207-0.357c-0.453,0-0.857,0.122-1.219,0.365
			c-0.359,0.243-0.646,0.564-0.863,0.965C207.561-133.165,207.453-132.706,207.453-132.189z"/>
	</g>
</g>
<g display="none">
	
		<g id="SvgjsG1007" transform="matrix(1.6091172564241916,0,0,1.6091172564241916,60.64472869772384,-0.17618763093883236)" display="inline">
		<ellipse fill="#4E9A92" cx="-107.216" cy="-96.74" rx="1.27" ry="1.287"/>
		<ellipse fill="#4E9A92" cx="-93.712" cy="-99.315" rx="1.27" ry="1.288"/>
		<g>
			<path fill="#4E9A92" d="M-102.481-95.686l-0.465-0.235c0.015-0.031,1.54-3.013,5.415-1.294l-0.208,0.483
				C-101.168-98.252-102.43-95.79-102.481-95.686z"/>
		</g>
		<g>
			<path fill="#4E9A92" d="M-101.607-93.978l-0.367-0.372c0.08-0.082,1.987-1.992,3.751-1.227l-0.208,0.485
				C-99.868-95.72-101.59-93.996-101.607-93.978z"/>
		</g>
		<g>
			<path fill="#4E9A92" d="M-99.935-92.425l-0.482-0.198c0.008-0.021,0.205-0.507,0.757-0.739c0.462-0.196,1.024-0.154,1.665,0.126
				l-0.206,0.485c-0.501-0.219-0.922-0.261-1.251-0.127C-99.801-92.736-99.93-92.438-99.935-92.425z"/>
		</g>
		<path fill="#4E9A92" d="M-78.499-79.678c-1.476-3.641-4.025-4.407-5.901-4.407c-0.909,0-1.611,0.181-1.9,0.269
			c-2.648-1.867-4.962-8.064-5.327-9.086c2.015-1.986,2.95-4.985,3.312-8.03c9.289-0.303,10.094-12.064,10.101-12.188
			c0.465-10.883-4.402-11.715-4.593-11.742c-5.24-1.108-10.734,4.552-11.66,5.557c-7.173-2.601-18.26,2.881-18.752,3.127
			c-1.358,0.685-2.298,1.635-2.935,2.735c-1.186-0.019-8.148,0-11.338,3.129c-1.041,1.024-1.572,2.281-1.571,3.759
			c0.007,0.071,0.637,7.249,5.826,11.475c2.525,2.057,5.691,3.092,9.442,3.092c1.011,0,2.062-0.075,3.155-0.225
			c0.865,0.821,1.736,1.416,2.568,1.846c-0.299,1.126-1.754,6.236-3.857,8.164c-1.203-0.644-2.29-0.751-2.322-0.753
			c-6.598-0.225-7.871,6.939-7.886,7.031c-0.477,5.81,6.627,6.599,6.698,6.607c0.31,0.033,0.615,0.051,0.907,0.051
			c1.809,0,3.059-0.645,3.921-1.531c0.607,0.598,2.963,2.672,6.439,2.672c1.761,0,3.81-0.535,6.06-2.062
			c0.91,0.734,5.571,4.042,10.209-0.699c0.921,0.401,1.904,0.526,2.767,0.526c1.719,0,3.124-0.478,3.18-0.498
			c1.826-0.615,3.066-1.661,3.69-3.108C-77.137-76.589-78.445-79.563-78.499-79.678z M-91.965-92.302l-0.157,0.01
			c0,0.004-0.011,0.391-0.303,0.592c-0.209,0.141-0.528,0.16-0.926,0.083c0.475-0.259,0.914-0.554,1.31-0.892
			C-92.017-92.446-91.994-92.378-91.965-92.302z M-94.214-89.991c-0.036-0.01-0.073-0.02-0.109-0.036
			c-0.176-0.077-0.444-0.302-0.715-0.909c0.198-0.055,0.392-0.113,0.578-0.18C-94.461-90.756-94.418-90.295-94.214-89.991z
			 M-82.898-124.342c0.047,0.007,4.609,0.839,4.163,11.196c-0.006,0.115-0.774,11.329-9.519,11.684
			c0.517-5.254-0.566-10.45-0.584-10.542c-0.226-1.306-0.611-2.45-1.142-3.442c0.364-0.99,2.665-6.73,6.864-6.319l0.047-0.525
			c-4.234-0.404-6.571,4.55-7.249,6.263c-0.773-1.212-1.796-2.159-3.078-2.818c-0.177-0.092-0.362-0.172-0.546-0.252
			C-92.724-120.364-87.594-125.337-82.898-124.342z M-122.907-95.485c-5.013-4.081-5.631-11.04-5.636-11.089
			c0-1.308,0.475-2.438,1.413-3.359c2.82-2.768,9.025-2.978,10.697-2.982c-1.126,2.379-0.988,5.342-0.47,7.927
			c-1.294-0.766-5.044-2.663-9.622-2.082l0.064,0.522c5.162-0.656,9.349,2.033,9.71,2.273c0.683,2.95,1.767,5.244,1.79,5.292
			c1.145,2.845,2.482,4.864,3.849,6.297C-115.935-92.102-119.903-93.04-122.907-95.485z M-114.487-99.197
			c-0.059-0.127-6.019-12.715,1.499-16.506c0.124-0.062,12.512-6.195,19.36-2.67c2.306,1.185,3.746,3.36,4.281,6.471
			c0.038,0.171,3.403,16.376-4.746,20.062l-0.296-0.121l-0.032,0.268c-0.257,0.102-0.527,0.188-0.805,0.266
			c-0.362-1.078-0.691-2.959-0.765-6.255l-0.521,0.012c0.112,4.871,0.78,7.605,1.986,8.128c0.663,0.289,1.197-0.192,1.22-0.212
			l0.763-0.706l-1.001,0.255c-0.13,0.034-0.176-0.007-0.198-0.026c-0.158-0.143-0.205-0.595-0.198-0.989
			c0.779,0.259,1.383,0.245,1.802-0.042c0.036-0.025,0.07-0.052,0.102-0.08c0.126,2.027-0.266,3.535-1.166,4.49
			c-1.153,1.219-2.781,1.089-2.818,1.087c-5.287,0-8.036-8.396-8.066-8.481l-0.493,0.163c0.052,0.169,0.691,2.114,1.929,4.136
			C-103.551-89.741-110.227-88.617-114.487-99.197z M-114.532-69.793c-0.273,0-0.56-0.016-0.855-0.048
			c-0.272-0.029-6.665-0.745-6.233-6.018c0.011-0.065,1.149-6.576,7.048-6.576c0.101,0,0.2,0.002,0.293,0.005
			c0.215,0.019,5.288,0.531,5.069,6.529C-109.209-75.652-109.269-69.793-114.532-69.793z M-97.885-70.678
			c-1.357-2.614-0.645-8.29-0.459-9.59c0.019,0.001,0.038,0.004,0.058,0.004c0.676,0,1.341-0.39,1.983-1.159l-0.397-0.34
			c-0.602,0.724-1.198,1.046-1.781,0.958c-1.281-0.199-2.159-2.273-2.168-2.295l-0.478,0.205c0.038,0.09,0.879,2.081,2.267,2.537
			c-0.191,1.303-0.905,6.889,0.425,9.749c-6.501,4.396-11.059,0.222-11.838-0.579c1.552-1.943,1.583-4.666,1.583-4.703
			c0.121-3.329-1.323-5.098-2.77-6.033c2.114-2.072,3.514-6.897,3.866-8.209c1.463,0.657,2.783,0.819,3.725,0.819
			c0.881,0,1.432-0.143,1.45-0.147l-0.053-0.201c1.415,2.213,3.547,4.423,6.426,4.423l0,0c0.016,0.002,0.092,0.008,0.216,0.008
			c0.53,0,1.92-0.118,2.996-1.251c0.973-1.024,1.414-2.591,1.323-4.653c0.904,2.214,2.639,5.932,4.652,7.556
			c-5.62,2.702-3.916,9.436-3.891,9.526c0.521,1.465,1.383,2.37,2.354,2.919C-92.976-66.592-97.408-70.256-97.885-70.678z
			 M-78.742-74.176c-0.56,1.304-1.697,2.252-3.378,2.819c-0.012,0.005-1.38,0.47-3.015,0.47c-2.614,0-4.338-1.125-5.117-3.324
			c-0.072-0.271-1.688-6.684,3.993-9.065c0.008-0.003,0.79-0.28,1.858-0.28c1.718,0,4.054,0.707,5.427,4.088
			C-78.963-79.441-77.704-76.588-78.742-74.176z"/>
	</g>
</g>
<g display="none">
	<g display="inline">
		<path fill="#4E9A92" d="M-645.456-40.234V-3.17h-9.027v-22.227l-8.291,22.227h-7.283l-8.346-22.28v22.28h-9.027v-37.064h10.666
			l10.4,25.66l10.297-25.66H-645.456z"/>
		<path fill="#7CBFB8" d="M-631.253-40.234V-3.17h-9.027v-37.064H-631.253z"/>
		<path fill="#7CBFB8" d="M-619.899-4.121c-2.148-0.879-3.865-2.182-5.148-3.907c-1.287-1.723-1.963-3.801-2.033-6.229h9.609
			c0.141,1.373,0.615,2.42,1.424,3.142c0.811,0.721,1.867,1.083,3.168,1.083c1.338,0,2.396-0.309,3.168-0.924
			c0.775-0.616,1.162-1.47,1.162-2.561c0-0.915-0.309-1.672-0.924-2.271c-0.615-0.598-1.371-1.091-2.27-1.479
			c-0.898-0.387-2.174-0.827-3.828-1.32c-2.395-0.739-4.348-1.477-5.859-2.216c-1.516-0.74-2.816-1.83-3.908-3.274
			s-1.637-3.327-1.637-5.65c0-3.449,1.25-6.15,3.748-8.104s5.756-2.931,9.77-2.931c4.082,0,7.373,0.977,9.873,2.931
			c2.498,1.954,3.834,4.672,4.012,8.157h-9.768c-0.07-1.196-0.512-2.138-1.32-2.825c-0.811-0.686-1.848-1.029-3.115-1.029
			c-1.09,0-1.971,0.291-2.641,0.871c-0.668,0.581-1.002,1.417-1.002,2.508c0,1.198,0.563,2.13,1.689,2.798
			c1.127,0.67,2.887,1.391,5.279,2.165c2.395,0.81,4.338,1.584,5.836,2.323c1.494,0.739,2.789,1.813,3.879,3.22
			c1.092,1.409,1.637,3.221,1.637,5.438c0,2.112-0.535,4.031-1.609,5.755c-1.074,1.725-2.633,3.099-4.674,4.119
			s-4.451,1.53-7.232,1.53C-615.325-2.8-617.753-3.24-619.899-4.121z"/>
		<path fill="#7CBFB8" d="M-573.386-3.17l-12.461-16.367V-3.17h-9.027v-37.064h9.027v16.262l12.355-16.262h10.611l-14.359,18.162
			l14.889,18.902H-573.386z"/>
		<path fill="#4E9A92" d="M-521.909-18.982c1.303,1.671,1.953,3.581,1.953,5.728c0,3.098-1.08,5.552-3.246,7.364
			c-2.164,1.814-5.184,2.72-9.055,2.72h-17.266v-37.064h16.684c3.768,0,6.715,0.863,8.844,2.587
			c2.131,1.725,3.195,4.065,3.195,7.022c0,2.183-0.572,3.995-1.717,5.438c-1.143,1.444-2.666,2.447-4.566,3.009
			C-524.937-21.719-523.212-20.654-521.909-18.982z M-540.493-25.239h5.912c1.479,0,2.615-0.325,3.406-0.977
			c0.793-0.651,1.188-1.61,1.188-2.877c0-1.268-0.395-2.235-1.188-2.904c-0.791-0.668-1.928-1.003-3.406-1.003h-5.912V-25.239z
			 M-530.329-11.485c0.824-0.687,1.238-1.681,1.238-2.983c0-1.302-0.43-2.323-1.291-3.063c-0.865-0.739-2.051-1.109-3.564-1.109
			h-6.547v8.185h6.652C-532.327-10.455-531.157-10.8-530.329-11.485z"/>
		<path fill="#7CBFB8" d="M-492.976-9.718h-13.832l-2.217,6.547h-9.453l13.412-37.064h10.455L-481.2-3.17h-9.557L-492.976-9.718z
			 M-495.298-16.687l-4.594-13.569l-4.539,13.569H-495.298z"/>
		<path fill="#7CBFB8" d="M-450.841-18.982c1.301,1.671,1.953,3.581,1.953,5.728c0,3.098-1.084,5.552-3.248,7.364
			c-2.164,1.814-5.184,2.72-9.055,2.72h-17.266v-37.064h16.686c3.764,0,6.713,0.863,8.844,2.587
			c2.129,1.725,3.193,4.065,3.193,7.022c0,2.183-0.572,3.995-1.717,5.438c-1.143,1.444-2.664,2.447-4.564,3.009
			C-453.87-21.719-452.144-20.654-450.841-18.982z M-469.427-25.239h5.914c1.479,0,2.611-0.325,3.404-0.977
			c0.791-0.651,1.189-1.61,1.189-2.877c0-1.268-0.398-2.235-1.189-2.904c-0.793-0.668-1.926-1.003-3.404-1.003h-5.914V-25.239z
			 M-459.265-11.485c0.828-0.687,1.242-1.681,1.242-2.983c0-1.302-0.432-2.323-1.295-3.063c-0.861-0.739-2.051-1.109-3.563-1.109
			h-6.547v8.185h6.652C-461.263-10.455-460.091-10.8-459.265-11.485z"/>
		<path fill="#7CBFB8" d="M-413.196-40.234l-12.83,24.815V-3.17h-9.029v-12.249l-12.83-24.815h10.244l7.18,15.522l7.127-15.522
			H-413.196z"/>
	</g>
	<g display="inline">
		<path fill="#4E9891" d="M-673.937,7.779h-3.637v9.409h-1.738V7.779h-3.65V6.253h9.025V7.779z"/>
		<path fill="#4E9891" d="M-670.657,17.341c-0.627,0-1.193-0.109-1.703-0.328c-0.506-0.219-0.945-0.52-1.314-0.902
			c-0.371-0.381-0.654-0.819-0.855-1.314c-0.199-0.493-0.299-1.021-0.299-1.582c0-0.751,0.174-1.438,0.523-2.063
			c0.348-0.624,0.836-1.127,1.461-1.508c0.627-0.381,1.361-0.57,2.203-0.57c0.84,0,1.566,0.189,2.18,0.571
			c0.609,0.381,1.084,0.882,1.424,1.503c0.34,0.619,0.508,1.285,0.508,1.997c0,0.122-0.006,0.236-0.016,0.343
			s-0.02,0.196-0.031,0.267h-6.451c0.029,0.466,0.162,0.874,0.393,1.224c0.23,0.351,0.525,0.623,0.885,0.82
			c0.359,0.198,0.744,0.297,1.156,0.297c0.451,0,0.879-0.112,1.285-0.339s0.68-0.522,0.824-0.893l1.447,0.415
			c-0.174,0.391-0.439,0.742-0.793,1.055c-0.354,0.314-0.773,0.56-1.256,0.739S-670.093,17.341-670.657,17.341z M-673.075,12.629
			h4.867c-0.031-0.452-0.162-0.853-0.393-1.2c-0.23-0.347-0.523-0.619-0.879-0.814c-0.354-0.197-0.746-0.295-1.178-0.295
			c-0.42,0-0.809,0.098-1.162,0.295c-0.354,0.195-0.645,0.468-0.869,0.814C-672.915,11.777-673.044,12.177-673.075,12.629z"/>
		<path fill="#4E9891" d="M-661.927,14.854c0-0.508,0.146-0.953,0.439-1.334c0.293-0.382,0.695-0.678,1.207-0.886
			c0.516-0.209,1.111-0.313,1.789-0.313c0.359,0,0.725,0.025,1.1,0.076c0.375,0.052,0.705,0.134,0.994,0.247V12.14
			c0-0.557-0.17-0.991-0.508-1.304c-0.34-0.313-0.826-0.471-1.463-0.471c-0.453,0-0.879,0.08-1.279,0.239s-0.826,0.382-1.277,0.669
			l-0.57-1.139c0.533-0.359,1.07-0.627,1.609-0.802c0.539-0.174,1.105-0.261,1.701-0.261c1.078,0,1.928,0.281,2.549,0.845
			s0.932,1.363,0.932,2.398v2.969c0,0.192,0.033,0.329,0.1,0.411c0.068,0.082,0.182,0.127,0.348,0.138v1.354
			c-0.154,0.031-0.293,0.051-0.418,0.062c-0.121,0.011-0.225,0.015-0.307,0.015c-0.359,0-0.631-0.087-0.816-0.261
			c-0.184-0.175-0.291-0.38-0.324-0.616l-0.045-0.462c-0.35,0.452-0.795,0.801-1.34,1.047c-0.545,0.247-1.094,0.369-1.646,0.369
			c-0.535,0-1.012-0.108-1.434-0.327c-0.42-0.219-0.748-0.517-0.984-0.893C-661.808,15.745-661.927,15.324-661.927,14.854z
			 M-656.798,15.337c0.123-0.131,0.221-0.263,0.293-0.395c0.07-0.131,0.107-0.247,0.107-0.348v-0.909
			c-0.289-0.11-0.59-0.194-0.908-0.249c-0.318-0.056-0.633-0.084-0.939-0.084c-0.617,0-1.117,0.121-1.504,0.364
			c-0.383,0.242-0.576,0.575-0.576,0.999c0,0.233,0.064,0.454,0.193,0.666s0.313,0.385,0.555,0.516
			c0.24,0.132,0.541,0.196,0.9,0.196c0.369,0,0.723-0.071,1.063-0.211C-657.276,15.742-657.003,15.56-656.798,15.337z"/>
		<path fill="#4E9891" d="M-649.007,17.341c-0.625,0-1.193-0.108-1.701-0.327s-0.947-0.521-1.316-0.908s-0.654-0.828-0.854-1.327
			c-0.203-0.499-0.301-1.028-0.301-1.588c0-0.752,0.172-1.438,0.514-2.06c0.346-0.619,0.828-1.119,1.449-1.495
			s1.357-0.563,2.209-0.563c0.822,0,1.537,0.183,2.148,0.546c0.611,0.365,1.061,0.85,1.348,1.456l-1.648,0.522
			c-0.186-0.339-0.443-0.603-0.777-0.793c-0.334-0.189-0.699-0.285-1.1-0.285c-0.453,0-0.859,0.115-1.225,0.343
			c-0.365,0.227-0.654,0.541-0.863,0.941c-0.211,0.399-0.316,0.862-0.316,1.388c0,0.507,0.107,0.966,0.324,1.375
			c0.217,0.41,0.506,0.734,0.871,0.972c0.363,0.237,0.771,0.357,1.223,0.357c0.277,0,0.547-0.049,0.809-0.147
			c0.264-0.097,0.49-0.231,0.686-0.4c0.193-0.169,0.334-0.356,0.416-0.562l1.662,0.492c-0.174,0.4-0.434,0.755-0.775,1.063
			c-0.346,0.308-0.75,0.551-1.219,0.73C-647.911,17.251-648.433,17.341-649.007,17.341z"/>
		<path fill="#4E9891" d="M-640.507,17.341c-0.637,0-1.207-0.108-1.709-0.327c-0.504-0.219-0.936-0.521-1.301-0.908
			s-0.645-0.826-0.838-1.32c-0.195-0.493-0.295-1.019-0.295-1.579c0-0.559,0.1-1.087,0.295-1.587
			c0.193-0.497,0.473-0.938,0.838-1.319c0.365-0.381,0.801-0.681,1.309-0.899c0.51-0.219,1.074-0.328,1.701-0.328
			c0.629,0,1.193,0.109,1.703,0.328c0.508,0.219,0.943,0.519,1.309,0.899c0.363,0.382,0.645,0.822,0.838,1.319
			c0.195,0.5,0.295,1.028,0.295,1.587c0,0.561-0.1,1.086-0.295,1.579c-0.193,0.494-0.475,0.934-0.838,1.32
			c-0.365,0.387-0.801,0.689-1.309,0.908C-639.313,17.233-639.878,17.341-640.507,17.341z M-642.907,13.223
			c0,0.506,0.107,0.961,0.322,1.365c0.215,0.405,0.504,0.725,0.863,0.957c0.357,0.232,0.764,0.35,1.215,0.35
			c0.443,0,0.846-0.12,1.211-0.357c0.363-0.237,0.652-0.562,0.869-0.972c0.215-0.409,0.322-0.862,0.322-1.359
			c0-0.506-0.107-0.961-0.322-1.366c-0.217-0.404-0.506-0.726-0.869-0.964c-0.365-0.238-0.768-0.357-1.211-0.357
			c-0.451,0-0.857,0.122-1.215,0.365c-0.359,0.243-0.648,0.564-0.863,0.965C-642.8,12.248-642.907,12.707-642.907,13.223z"/>
		<path fill="#4E9891" d="M-622.534,17.188h-1.693v-4.461c0-0.74-0.123-1.282-0.371-1.628c-0.246-0.346-0.605-0.518-1.078-0.518
			s-0.91,0.174-1.316,0.525c-0.406,0.351-0.689,0.805-0.855,1.362v4.719h-1.693v-4.461c0-0.74-0.123-1.282-0.369-1.628
			s-0.6-0.518-1.063-0.518c-0.473,0-0.912,0.171-1.316,0.515c-0.404,0.343-0.697,0.792-0.869,1.348v4.744h-1.695V9.195h1.539v1.616
			c0.318-0.559,0.736-0.988,1.256-1.289c0.518-0.3,1.111-0.449,1.779-0.449s1.193,0.172,1.578,0.519
			c0.385,0.345,0.623,0.778,0.715,1.297c0.35-0.591,0.779-1.041,1.287-1.35c0.508-0.311,1.092-0.466,1.748-0.466
			c0.473,0,0.865,0.086,1.186,0.259c0.318,0.173,0.564,0.409,0.738,0.709c0.176,0.301,0.301,0.646,0.379,1.038
			c0.076,0.392,0.115,0.805,0.115,1.243V17.188z"/>
		<path fill="#4E9891" d="M-616.005,17.341c-0.646,0-1.217-0.152-1.709-0.457c-0.494-0.306-0.883-0.702-1.172-1.19v4.773h-1.693
			V9.195h1.494v1.449c0.307-0.479,0.707-0.859,1.199-1.145c0.494-0.284,1.043-0.427,1.648-0.427c0.555,0,1.064,0.109,1.525,0.328
			s0.861,0.521,1.201,0.907c0.338,0.387,0.604,0.826,0.793,1.32c0.189,0.493,0.285,1.014,0.285,1.563
			c0,0.764-0.15,1.461-0.455,2.091c-0.303,0.631-0.725,1.132-1.264,1.503C-614.688,17.157-615.308,17.341-616.005,17.341z
			 M-616.56,15.895c0.359,0,0.684-0.076,0.979-0.229c0.291-0.151,0.543-0.354,0.754-0.607c0.209-0.252,0.371-0.542,0.484-0.866
			c0.113-0.322,0.17-0.656,0.17-1.002c0-0.363-0.063-0.707-0.186-1.031s-0.299-0.607-0.529-0.851
			c-0.232-0.243-0.5-0.435-0.803-0.576s-0.635-0.214-0.992-0.214c-0.217,0-0.441,0.041-0.68,0.122
			c-0.234,0.08-0.455,0.191-0.662,0.332c-0.203,0.142-0.383,0.308-0.537,0.5s-0.262,0.393-0.324,0.604v2.09
			c0.145,0.323,0.334,0.614,0.57,0.872c0.236,0.256,0.508,0.463,0.816,0.62S-616.878,15.895-616.56,15.895z"/>
		<path fill="#4E9891" d="M-611.493,14.854c0-0.508,0.146-0.953,0.439-1.334c0.293-0.382,0.693-0.678,1.207-0.886
			c0.514-0.209,1.109-0.313,1.787-0.313c0.359,0,0.727,0.025,1.1,0.076c0.375,0.052,0.707,0.134,0.994,0.247V12.14
			c0-0.557-0.168-0.991-0.506-1.304c-0.34-0.313-0.828-0.471-1.465-0.471c-0.453,0-0.877,0.08-1.279,0.239
			c-0.398,0.159-0.824,0.382-1.275,0.669l-0.57-1.139c0.533-0.359,1.068-0.627,1.607-0.802c0.541-0.174,1.107-0.261,1.703-0.261
			c1.076,0,1.928,0.281,2.549,0.845c0.619,0.563,0.93,1.363,0.93,2.398v2.969c0,0.192,0.035,0.329,0.102,0.411
			s0.182,0.127,0.346,0.138v1.354c-0.152,0.031-0.293,0.051-0.416,0.062s-0.225,0.015-0.307,0.015c-0.359,0-0.633-0.087-0.816-0.261
			c-0.184-0.175-0.291-0.38-0.324-0.616l-0.045-0.462c-0.35,0.452-0.797,0.801-1.34,1.047c-0.545,0.247-1.094,0.369-1.648,0.369
			c-0.533,0-1.012-0.108-1.432-0.327s-0.75-0.517-0.986-0.893C-611.376,15.745-611.493,15.324-611.493,14.854z M-606.364,15.337
			c0.121-0.131,0.221-0.263,0.291-0.395c0.072-0.131,0.107-0.247,0.107-0.348v-0.909c-0.287-0.11-0.59-0.194-0.908-0.249
			c-0.318-0.056-0.631-0.084-0.939-0.084c-0.615,0-1.117,0.121-1.502,0.364c-0.385,0.242-0.578,0.575-0.578,0.999
			c0,0.233,0.066,0.454,0.193,0.666c0.129,0.212,0.314,0.385,0.555,0.516c0.24,0.132,0.541,0.196,0.9,0.196
			c0.371,0,0.725-0.071,1.064-0.211C-606.843,15.742-606.571,15.56-606.364,15.337z"/>
		<path fill="#4E9891" d="M-595.001,17.188h-1.695v-4.461c0-0.74-0.119-1.282-0.361-1.628c-0.24-0.346-0.598-0.518-1.068-0.518
			c-0.33,0-0.656,0.08-0.979,0.242c-0.324,0.161-0.615,0.381-0.871,0.658c-0.256,0.278-0.441,0.599-0.553,0.962v4.744h-1.695V9.195
			h1.539v1.616c0.207-0.356,0.477-0.663,0.809-0.922c0.336-0.26,0.713-0.461,1.133-0.604s0.867-0.213,1.34-0.213
			c0.482,0,0.881,0.086,1.193,0.259s0.561,0.409,0.738,0.709c0.182,0.301,0.305,0.646,0.371,1.038c0.066,0.392,0.1,0.805,0.1,1.243
			V17.188z M-597.495,7.716c-0.309,0-0.572-0.056-0.793-0.169c-0.223-0.111-0.422-0.223-0.602-0.331
			c-0.18-0.107-0.383-0.161-0.607-0.161c-0.227,0-0.393,0.057-0.5,0.169c-0.107,0.113-0.178,0.231-0.209,0.354
			s-0.047,0.195-0.047,0.216h-0.953c0-0.082,0.025-0.219,0.076-0.408c0.053-0.19,0.141-0.391,0.27-0.602
			c0.127-0.21,0.297-0.39,0.508-0.538c0.211-0.149,0.475-0.224,0.795-0.224c0.305,0,0.563,0.057,0.768,0.169
			c0.207,0.113,0.404,0.227,0.594,0.34s0.408,0.169,0.654,0.169c0.256,0,0.441-0.059,0.555-0.178
			c0.113-0.117,0.188-0.238,0.223-0.362c0.035-0.122,0.053-0.194,0.053-0.214h0.973c0,0.071-0.029,0.199-0.086,0.384
			c-0.057,0.186-0.152,0.386-0.283,0.601c-0.135,0.216-0.314,0.401-0.541,0.555C-596.874,7.639-597.157,7.716-597.495,7.716z"/>
		<path fill="#4E9891" d="M-593.614,14.854c0-0.508,0.145-0.953,0.438-1.334c0.293-0.382,0.695-0.678,1.209-0.886
			c0.514-0.209,1.107-0.313,1.785-0.313c0.359,0,0.727,0.025,1.102,0.076c0.375,0.052,0.707,0.134,0.994,0.247V12.14
			c0-0.557-0.17-0.991-0.508-1.304c-0.338-0.313-0.826-0.471-1.463-0.471c-0.453,0-0.879,0.08-1.279,0.239s-0.826,0.382-1.277,0.669
			l-0.57-1.139c0.533-0.359,1.07-0.627,1.609-0.802c0.537-0.174,1.105-0.261,1.701-0.261c1.078,0,1.928,0.281,2.549,0.845
			s0.932,1.363,0.932,2.398v2.969c0,0.192,0.033,0.329,0.1,0.411s0.184,0.127,0.348,0.138v1.354
			c-0.154,0.031-0.293,0.051-0.416,0.062s-0.227,0.015-0.309,0.015c-0.359,0-0.631-0.087-0.816-0.261
			c-0.184-0.175-0.291-0.38-0.322-0.616l-0.047-0.462c-0.35,0.452-0.795,0.801-1.34,1.047c-0.545,0.247-1.094,0.369-1.648,0.369
			c-0.533,0-1.01-0.108-1.432-0.327c-0.42-0.219-0.75-0.517-0.986-0.893C-593.497,15.745-593.614,15.324-593.614,14.854z
			 M-588.487,15.337c0.123-0.131,0.221-0.263,0.293-0.395c0.07-0.131,0.107-0.247,0.107-0.348v-0.909
			c-0.287-0.11-0.592-0.194-0.908-0.249c-0.318-0.056-0.633-0.084-0.941-0.084c-0.613,0-1.115,0.121-1.5,0.364
			c-0.385,0.242-0.578,0.575-0.578,0.999c0,0.233,0.064,0.454,0.193,0.666c0.127,0.212,0.313,0.385,0.555,0.516
			c0.24,0.132,0.541,0.196,0.9,0.196c0.369,0,0.725-0.071,1.063-0.211C-588.964,15.742-588.694,15.56-588.487,15.337z"/>
		<path fill="#4E9891" d="M-572.026,17.188h-1.693v-4.461c0-0.74-0.123-1.282-0.369-1.628c-0.248-0.346-0.607-0.518-1.078-0.518
			c-0.473,0-0.912,0.174-1.318,0.525c-0.404,0.351-0.689,0.805-0.854,1.362v4.719h-1.693v-4.461c0-0.74-0.125-1.282-0.371-1.628
			s-0.6-0.518-1.063-0.518c-0.471,0-0.91,0.171-1.314,0.515c-0.406,0.343-0.697,0.792-0.871,1.348v4.744h-1.693V9.195h1.539v1.616
			c0.32-0.559,0.736-0.988,1.256-1.289c0.518-0.3,1.109-0.449,1.779-0.449c0.666,0,1.193,0.172,1.576,0.519
			c0.387,0.345,0.623,0.778,0.719,1.297c0.348-0.591,0.777-1.041,1.285-1.35c0.508-0.311,1.09-0.466,1.748-0.466
			c0.471,0,0.865,0.086,1.186,0.259c0.316,0.173,0.564,0.409,0.738,0.709c0.174,0.301,0.301,0.646,0.377,1.038
			c0.078,0.392,0.115,0.805,0.115,1.243V17.188z"/>
		<path fill="#4E9891" d="M-566.45,17.341c-0.639,0-1.207-0.108-1.711-0.327c-0.502-0.219-0.938-0.521-1.301-0.908
			c-0.365-0.387-0.645-0.826-0.84-1.32c-0.193-0.493-0.293-1.019-0.293-1.579c0-0.559,0.1-1.087,0.293-1.587
			c0.195-0.497,0.475-0.938,0.84-1.319c0.363-0.381,0.801-0.681,1.309-0.899c0.51-0.219,1.076-0.328,1.703-0.328
			c0.625,0,1.193,0.109,1.701,0.328s0.943,0.519,1.309,0.899c0.365,0.382,0.643,0.822,0.84,1.319c0.193,0.5,0.291,1.028,0.291,1.587
			c0,0.561-0.098,1.086-0.291,1.579c-0.197,0.494-0.475,0.934-0.84,1.32s-0.801,0.689-1.309,0.908S-565.825,17.341-566.45,17.341z
			 M-568.854,13.223c0,0.506,0.109,0.961,0.322,1.365c0.219,0.405,0.504,0.725,0.863,0.957s0.766,0.35,1.219,0.35
			c0.441,0,0.844-0.12,1.207-0.357c0.365-0.237,0.654-0.562,0.871-0.972c0.215-0.409,0.322-0.862,0.322-1.359
			c0-0.506-0.107-0.961-0.322-1.366c-0.217-0.404-0.506-0.726-0.871-0.964c-0.363-0.238-0.766-0.357-1.207-0.357
			c-0.453,0-0.859,0.122-1.219,0.365s-0.645,0.564-0.863,0.965C-568.745,12.248-568.854,12.707-568.854,13.223z"/>
		<path fill="#4E9891" d="M-557.935,17.341c-0.678,0-1.32-0.109-1.926-0.33s-1.123-0.553-1.555-0.994l0.631-1.14
			c0.463,0.411,0.926,0.709,1.393,0.894s0.934,0.276,1.395,0.276c0.473,0,0.857-0.087,1.154-0.264
			c0.299-0.175,0.447-0.434,0.447-0.776c0-0.254-0.078-0.442-0.23-0.563c-0.154-0.123-0.377-0.23-0.67-0.321
			s-0.645-0.193-1.055-0.306c-0.574-0.173-1.059-0.354-1.449-0.541c-0.389-0.188-0.682-0.42-0.877-0.694
			c-0.193-0.274-0.293-0.625-0.293-1.053c0-0.519,0.133-0.961,0.4-1.327c0.266-0.366,0.641-0.646,1.117-0.84
			c0.479-0.193,1.029-0.289,1.656-0.289c0.584,0,1.125,0.09,1.623,0.269c0.498,0.18,0.938,0.46,1.316,0.84l-0.725,1.124
			c-0.357-0.329-0.725-0.569-1.1-0.724s-0.777-0.231-1.207-0.231c-0.248,0-0.484,0.028-0.709,0.084
			c-0.229,0.056-0.414,0.157-0.563,0.305c-0.15,0.148-0.225,0.353-0.225,0.617c0,0.213,0.063,0.385,0.186,0.519
			c0.123,0.132,0.307,0.242,0.555,0.333c0.246,0.093,0.549,0.194,0.908,0.306c0.627,0.183,1.16,0.363,1.602,0.541
			s0.783,0.406,1.025,0.685c0.24,0.28,0.361,0.663,0.361,1.15c0,0.772-0.291,1.374-0.871,1.805
			C-556.198,17.126-556.972,17.341-557.935,17.341z"/>
		<path fill="#4E9891" d="M-545.784,17.341c-0.629,0-1.195-0.109-1.703-0.328s-0.947-0.52-1.316-0.902
			c-0.371-0.381-0.656-0.819-0.855-1.314c-0.199-0.493-0.301-1.021-0.301-1.582c0-0.751,0.176-1.438,0.525-2.063
			c0.35-0.624,0.838-1.127,1.463-1.508s1.359-0.57,2.203-0.57c0.842,0,1.568,0.189,2.178,0.571c0.611,0.381,1.086,0.882,1.424,1.503
			c0.338,0.619,0.51,1.285,0.51,1.997c0,0.122-0.006,0.236-0.016,0.343c-0.012,0.106-0.021,0.196-0.031,0.267h-6.451
			c0.029,0.466,0.16,0.874,0.393,1.224c0.23,0.351,0.523,0.623,0.883,0.82c0.359,0.198,0.744,0.297,1.156,0.297
			c0.451,0,0.879-0.112,1.285-0.339s0.68-0.522,0.824-0.893l1.447,0.415c-0.174,0.391-0.438,0.742-0.793,1.055
			c-0.354,0.314-0.771,0.56-1.256,0.739C-544.698,17.251-545.222,17.341-545.784,17.341z M-548.202,12.629h4.865
			c-0.029-0.452-0.162-0.853-0.393-1.2c-0.232-0.347-0.523-0.619-0.877-0.814c-0.355-0.197-0.748-0.295-1.178-0.295
			c-0.422,0-0.811,0.098-1.164,0.295c-0.355,0.195-0.645,0.468-0.869,0.814C-548.044,11.777-548.173,12.177-548.202,12.629z"/>
		<path fill="#4E9891" d="M-533.05,17.188h-1.695v-4.461c0-0.74-0.121-1.282-0.361-1.628c-0.242-0.346-0.598-0.518-1.07-0.518
			c-0.328,0-0.654,0.08-0.979,0.242c-0.322,0.161-0.613,0.381-0.869,0.658c-0.258,0.278-0.441,0.599-0.555,0.962v4.744h-1.693V9.195
			h1.539v1.616c0.207-0.356,0.477-0.663,0.809-0.922c0.334-0.26,0.711-0.461,1.133-0.604c0.42-0.143,0.867-0.213,1.34-0.213
			c0.482,0,0.881,0.086,1.193,0.259s0.559,0.409,0.738,0.709c0.18,0.301,0.303,0.646,0.369,1.038
			c0.066,0.392,0.102,0.805,0.102,1.243V17.188z"/>
		<path fill="#4E9891" d="M-524.411,17.341c-0.678,0-1.318-0.109-1.926-0.33c-0.605-0.221-1.123-0.553-1.555-0.994l0.631-1.14
			c0.463,0.411,0.928,0.709,1.395,0.894s0.932,0.276,1.393,0.276c0.471,0,0.857-0.087,1.156-0.264
			c0.297-0.175,0.445-0.434,0.445-0.776c0-0.254-0.076-0.442-0.23-0.563c-0.154-0.123-0.377-0.23-0.67-0.321
			s-0.643-0.193-1.055-0.306c-0.574-0.173-1.059-0.354-1.447-0.541c-0.391-0.188-0.682-0.42-0.879-0.694
			c-0.193-0.274-0.291-0.625-0.291-1.053c0-0.519,0.133-0.961,0.398-1.327c0.268-0.366,0.641-0.646,1.117-0.84
			c0.479-0.193,1.029-0.289,1.656-0.289c0.584,0,1.125,0.09,1.625,0.269c0.496,0.18,0.938,0.46,1.314,0.84l-0.723,1.124
			c-0.359-0.329-0.725-0.569-1.1-0.724c-0.377-0.154-0.779-0.231-1.211-0.231c-0.246,0-0.482,0.028-0.707,0.084
			c-0.227,0.056-0.414,0.157-0.561,0.305c-0.15,0.148-0.225,0.353-0.225,0.617c0,0.213,0.061,0.385,0.184,0.519
			c0.123,0.132,0.309,0.242,0.555,0.333c0.246,0.093,0.551,0.194,0.908,0.306c0.627,0.183,1.16,0.363,1.602,0.541
			c0.443,0.178,0.783,0.406,1.025,0.685c0.24,0.28,0.363,0.663,0.363,1.15c0,0.772-0.293,1.374-0.871,1.805
			C-522.673,17.126-523.446,17.341-524.411,17.341z"/>
		<path fill="#4E9891" d="M-519.792,14.085V9.195h1.695v4.549c0,0.712,0.131,1.248,0.393,1.609s0.643,0.542,1.146,0.542
			c0.318,0,0.629-0.065,0.932-0.198c0.303-0.132,0.58-0.326,0.832-0.585c0.252-0.258,0.453-0.57,0.607-0.934V9.195h1.693v6.088
			c0,0.193,0.037,0.331,0.109,0.412c0.07,0.083,0.189,0.128,0.354,0.139v1.354c-0.174,0.031-0.318,0.051-0.43,0.062
			c-0.113,0.011-0.223,0.015-0.324,0.015c-0.309,0-0.564-0.083-0.771-0.252c-0.205-0.167-0.322-0.384-0.354-0.648l-0.029-0.796
			c-0.361,0.581-0.828,1.022-1.402,1.322c-0.576,0.302-1.207,0.451-1.895,0.451c-0.842,0-1.479-0.274-1.91-0.824
			C-519.575,15.966-519.792,15.157-519.792,14.085z"/>
		<path fill="#4E9891" d="M-502.884,17.341c-0.625,0-1.193-0.108-1.701-0.327s-0.947-0.521-1.316-0.908s-0.654-0.828-0.854-1.327
			c-0.203-0.499-0.301-1.028-0.301-1.588c0-0.752,0.172-1.438,0.514-2.06c0.346-0.619,0.828-1.119,1.449-1.495
			s1.357-0.563,2.209-0.563c0.822,0,1.539,0.183,2.148,0.546c0.611,0.365,1.061,0.85,1.348,1.456l-1.648,0.522
			c-0.186-0.339-0.441-0.603-0.775-0.793c-0.336-0.189-0.701-0.285-1.102-0.285c-0.453,0-0.859,0.115-1.225,0.343
			c-0.365,0.227-0.654,0.541-0.863,0.941c-0.211,0.399-0.314,0.862-0.314,1.388c0,0.507,0.107,0.966,0.322,1.375
			c0.215,0.41,0.506,0.734,0.871,0.972c0.363,0.237,0.771,0.357,1.223,0.357c0.277,0,0.547-0.049,0.811-0.147
			c0.262-0.097,0.488-0.231,0.684-0.4s0.334-0.356,0.416-0.562l1.662,0.492c-0.174,0.4-0.432,0.755-0.775,1.063
			c-0.346,0.308-0.75,0.551-1.219,0.73C-501.788,17.251-502.308,17.341-502.884,17.341z"/>
		<path fill="#4E9891" d="M-493.397,10.597c-0.658,0.01-1.238,0.158-1.748,0.446c-0.508,0.287-0.869,0.692-1.086,1.216v4.929h-1.693
			V9.195h1.57v1.74c0.277-0.554,0.643-0.998,1.094-1.331c0.451-0.334,0.928-0.517,1.432-0.547c0.102,0,0.188,0,0.254,0
			c0.068,0,0.127,0.005,0.178,0.016V10.597z"/>
		<path fill="#4E9891" d="M-488.653,17.341c-0.627,0-1.193-0.109-1.703-0.328c-0.508-0.219-0.947-0.52-1.316-0.902
			c-0.369-0.381-0.654-0.819-0.855-1.314c-0.199-0.493-0.301-1.021-0.301-1.582c0-0.751,0.176-1.438,0.525-2.063
			c0.35-0.624,0.836-1.127,1.463-1.508s1.359-0.57,2.203-0.57c0.84,0,1.568,0.189,2.178,0.571c0.611,0.381,1.086,0.882,1.424,1.503
			c0.338,0.619,0.51,1.285,0.51,1.997c0,0.122-0.006,0.236-0.016,0.343c-0.012,0.106-0.021,0.196-0.031,0.267h-6.453
			c0.033,0.466,0.162,0.874,0.395,1.224c0.229,0.351,0.525,0.623,0.885,0.82c0.357,0.198,0.744,0.297,1.154,0.297
			c0.453,0,0.881-0.112,1.287-0.339c0.404-0.227,0.678-0.522,0.822-0.893l1.447,0.415c-0.174,0.391-0.438,0.742-0.791,1.055
			c-0.355,0.314-0.773,0.56-1.258,0.739C-487.565,17.251-488.089,17.341-488.653,17.341z M-491.071,12.629h4.867
			c-0.031-0.452-0.164-0.853-0.393-1.2c-0.232-0.347-0.525-0.619-0.879-0.814c-0.354-0.197-0.748-0.295-1.178-0.295
			c-0.422,0-0.809,0.098-1.164,0.295c-0.354,0.195-0.643,0.468-0.869,0.814C-490.913,11.777-491.04,12.177-491.071,12.629z"/>
		<path fill="#4E9891" d="M-479.491,17.341c-0.627,0-1.193-0.108-1.703-0.327c-0.508-0.219-0.947-0.521-1.314-0.908
			c-0.371-0.387-0.656-0.828-0.855-1.327c-0.201-0.499-0.301-1.028-0.301-1.588c0-0.752,0.172-1.438,0.516-2.06
			c0.344-0.619,0.826-1.119,1.447-1.495c0.623-0.376,1.359-0.563,2.211-0.563c0.82,0,1.537,0.183,2.148,0.546
			c0.609,0.365,1.059,0.85,1.348,1.456l-1.648,0.522c-0.186-0.339-0.445-0.603-0.779-0.793c-0.332-0.189-0.699-0.285-1.1-0.285
			c-0.453,0-0.859,0.115-1.227,0.343c-0.363,0.227-0.65,0.541-0.861,0.941c-0.209,0.399-0.314,0.862-0.314,1.388
			c0,0.507,0.107,0.966,0.324,1.375c0.215,0.41,0.506,0.734,0.869,0.972s0.771,0.357,1.225,0.357c0.277,0,0.547-0.049,0.807-0.147
			c0.264-0.097,0.492-0.231,0.686-0.4c0.195-0.169,0.334-0.356,0.416-0.562l1.664,0.492c-0.176,0.4-0.434,0.755-0.779,1.063
			c-0.344,0.308-0.748,0.551-1.215,0.73S-478.917,17.341-479.491,17.341z"/>
		<path fill="#4E9891" d="M-474.534,7.809V5.947h1.695v1.862H-474.534z M-474.534,17.188V9.133h1.695v8.055H-474.534z"/>
		<path fill="#4E9891" d="M-458.487,17.188h-1.693v-4.461c0-0.74-0.125-1.282-0.369-1.628c-0.248-0.346-0.607-0.518-1.08-0.518
			s-0.91,0.174-1.316,0.525c-0.404,0.351-0.689,0.805-0.854,1.362v4.719h-1.693v-4.461c0-0.74-0.125-1.282-0.371-1.628
			s-0.602-0.518-1.063-0.518c-0.473,0-0.91,0.171-1.316,0.515c-0.406,0.343-0.695,0.792-0.871,1.348v4.744h-1.693V9.195h1.541v1.616
			c0.318-0.559,0.736-0.988,1.254-1.289c0.52-0.3,1.111-0.449,1.779-0.449s1.193,0.172,1.578,0.519
			c0.387,0.345,0.623,0.778,0.717,1.297c0.348-0.591,0.777-1.041,1.285-1.35c0.508-0.311,1.09-0.466,1.748-0.466
			c0.471,0,0.867,0.086,1.186,0.259s0.566,0.409,0.74,0.709c0.174,0.301,0.301,0.646,0.377,1.038
			c0.076,0.392,0.115,0.805,0.115,1.243V17.188z"/>
		<path fill="#4E9891" d="M-456.53,7.809V5.947h1.693v1.862H-456.53z M-456.53,17.188V9.133h1.693v8.055H-456.53z"/>
		<path fill="#4E9891" d="M-449.155,17.341c-0.627,0-1.193-0.109-1.703-0.328c-0.508-0.219-0.947-0.52-1.314-0.902
			c-0.371-0.381-0.656-0.819-0.855-1.314c-0.201-0.493-0.301-1.021-0.301-1.582c0-0.751,0.174-1.438,0.523-2.063
			c0.35-0.624,0.838-1.127,1.463-1.508c0.627-0.381,1.361-0.57,2.203-0.57s1.568,0.189,2.18,0.571
			c0.609,0.381,1.084,0.882,1.422,1.503c0.338,0.619,0.51,1.285,0.51,1.997c0,0.122-0.006,0.236-0.016,0.343
			s-0.02,0.196-0.031,0.267h-6.451c0.031,0.466,0.16,0.874,0.393,1.224c0.23,0.351,0.525,0.623,0.885,0.82
			c0.359,0.198,0.744,0.297,1.154,0.297c0.453,0,0.881-0.112,1.287-0.339s0.68-0.522,0.822-0.893l1.447,0.415
			c-0.174,0.391-0.438,0.742-0.791,1.055c-0.355,0.314-0.773,0.56-1.256,0.739S-448.591,17.341-449.155,17.341z M-451.573,12.629
			h4.865c-0.029-0.452-0.16-0.853-0.391-1.2c-0.232-0.347-0.525-0.619-0.879-0.814c-0.354-0.197-0.746-0.295-1.178-0.295
			c-0.422,0-0.809,0.098-1.162,0.295c-0.355,0.195-0.645,0.468-0.871,0.814C-451.415,11.777-451.542,12.177-451.573,12.629z"/>
		<path fill="#4E9891" d="M-436.421,17.188h-1.693v-4.461c0-0.74-0.121-1.282-0.361-1.628c-0.242-0.346-0.598-0.518-1.072-0.518
			c-0.328,0-0.652,0.08-0.977,0.242c-0.324,0.161-0.615,0.381-0.869,0.658c-0.258,0.278-0.443,0.599-0.557,0.962v4.744h-1.693V9.195
			h1.541v1.616c0.205-0.356,0.475-0.663,0.807-0.922c0.334-0.26,0.711-0.461,1.133-0.604c0.42-0.143,0.867-0.213,1.34-0.213
			c0.482,0,0.881,0.086,1.193,0.259s0.559,0.409,0.74,0.709c0.178,0.301,0.301,0.646,0.367,1.038
			c0.068,0.392,0.102,0.805,0.102,1.243V17.188z"/>
		<path fill="#4E9891" d="M-430.03,16.803c-0.143,0.071-0.322,0.148-0.539,0.23c-0.215,0.082-0.459,0.154-0.73,0.216
			c-0.273,0.062-0.553,0.092-0.84,0.092c-0.35,0-0.674-0.061-0.971-0.184s-0.537-0.319-0.715-0.589
			c-0.182-0.271-0.271-0.622-0.271-1.051v-5.014h-1.061v-1.31h1.061V6.547h1.695v2.647h1.754v1.31h-1.754v4.471
			c0.021,0.275,0.109,0.48,0.27,0.612c0.16,0.133,0.355,0.199,0.592,0.199s0.463-0.041,0.68-0.123
			c0.213-0.083,0.375-0.149,0.477-0.2L-430.03,16.803z"/>
		<path fill="#4E9891" d="M-425.347,17.341c-0.639,0-1.207-0.108-1.711-0.327s-0.938-0.521-1.301-0.908
			c-0.365-0.387-0.645-0.826-0.84-1.32c-0.193-0.493-0.293-1.019-0.293-1.579c0-0.559,0.1-1.087,0.293-1.587
			c0.195-0.497,0.475-0.938,0.84-1.319c0.363-0.381,0.801-0.681,1.309-0.899s1.074-0.328,1.703-0.328
			c0.625,0,1.193,0.109,1.701,0.328s0.941,0.519,1.309,0.899c0.363,0.382,0.643,0.822,0.838,1.319
			c0.195,0.5,0.293,1.028,0.293,1.587c0,0.561-0.098,1.086-0.293,1.579c-0.195,0.494-0.475,0.934-0.838,1.32
			c-0.367,0.387-0.801,0.689-1.309,0.908S-424.722,17.341-425.347,17.341z M-427.751,13.223c0,0.506,0.107,0.961,0.322,1.365
			c0.217,0.405,0.504,0.725,0.863,0.957c0.361,0.232,0.766,0.35,1.219,0.35c0.441,0,0.844-0.12,1.207-0.357
			c0.365-0.237,0.654-0.562,0.871-0.972c0.215-0.409,0.322-0.862,0.322-1.359c0-0.506-0.107-0.961-0.322-1.366
			c-0.217-0.404-0.506-0.726-0.871-0.964c-0.363-0.238-0.766-0.357-1.207-0.357c-0.453,0-0.857,0.122-1.219,0.365
			c-0.359,0.243-0.646,0.564-0.863,0.965C-427.644,12.248-427.751,12.707-427.751,13.223z"/>
	</g>
</g>
<g display="none">
</g>
<circle display="none" fill="#DBF0EF" cx="-478.456" cy="199.834" r="72.355"/>
<g>
	<g id="SvgjsG1007_1_" transform="matrix(1.6091172564241916,0,0,1.6091172564241916,60.64472869772384,-0.17618763093883236)">
		<ellipse fill="#4E9A92" cx="-17.828" cy="25.804" rx="1.154" ry="1.171"/>
		<ellipse fill="#4E9A92" cx="-5.551" cy="23.463" rx="1.154" ry="1.171"/>
		<g>
			<path fill="#4E9A92" d="M-13.524,26.763l-0.422-0.215c0.013-0.028,1.401-2.739,4.923-1.176l-0.189,0.439
				C-12.33,24.429-13.477,26.667-13.524,26.763z"/>
		</g>
		<g>
			<path fill="#4E9A92" d="M-12.729,28.315l-0.334-0.338c0.073-0.074,1.807-1.811,3.41-1.115l-0.188,0.441
				C-11.149,26.731-12.715,28.299-12.729,28.315z"/>
		</g>
		<g>
			<path fill="#4E9A92" d="M-11.209,29.726l-0.437-0.18c0.007-0.019,0.187-0.461,0.688-0.672c0.42-0.178,0.931-0.139,1.514,0.115
				l-0.187,0.441c-0.456-0.199-0.839-0.237-1.139-0.115C-11.087,29.445-11.205,29.715-11.209,29.726z"/>
		</g>
		<path fill="#4E9A92" d="M8.279,41.315c-1.342-3.31-3.66-4.005-5.366-4.005c-0.827,0-1.464,0.164-1.726,0.245
			c-2.408-1.697-4.51-7.331-4.844-8.26c1.833-1.805,2.682-4.532,3.013-7.299C7.8,21.719,8.532,11.027,8.538,10.914
			C8.961,1.02,4.536,0.264,4.362,0.239c-4.764-1.007-9.758,4.139-10.6,5.052c-6.522-2.364-16.6,2.619-17.048,2.843
			c-1.234,0.623-2.089,1.487-2.668,2.487c-1.078-0.018-7.408-0.001-10.307,2.845c-0.947,0.931-1.429,2.074-1.427,3.417
			c0.006,0.065,0.579,6.59,5.296,10.432c2.295,1.87,5.174,2.811,8.585,2.811c0.918,0,1.874-0.069,2.867-0.205
			c0.788,0.747,1.578,1.288,2.335,1.678c-0.272,1.023-1.594,5.669-3.507,7.422c-1.095-0.585-2.083-0.682-2.111-0.685
			c-6-0.204-7.156,6.308-7.17,6.393c-0.433,5.281,6.024,5.999,6.088,6.006c0.282,0.03,0.56,0.046,0.825,0.046
			c1.643,0,2.78-0.585,3.564-1.391c0.552,0.544,2.695,2.428,5.854,2.428c1.601,0,3.463-0.485,5.509-1.873
			c0.828,0.667,5.065,3.674,9.282-0.635c0.838,0.364,1.731,0.477,2.516,0.477c1.562,0,2.839-0.435,2.89-0.452
			c1.66-0.559,2.788-1.51,3.355-2.825C9.517,44.123,8.328,41.421,8.279,41.315z M-3.963,29.839l-0.143,0.009
			c0,0.004-0.008,0.355-0.276,0.538c-0.189,0.128-0.479,0.146-0.841,0.076c0.432-0.235,0.83-0.504,1.191-0.811
			C-4.012,29.708-3.99,29.77-3.963,29.839z M-6.008,31.94c-0.033-0.008-0.067-0.018-0.1-0.032c-0.16-0.071-0.403-0.275-0.649-0.826
			c0.18-0.051,0.357-0.103,0.526-0.164C-6.233,31.244-6.193,31.662-6.008,31.94z M4.28,0.711c0.042,0.006,4.19,0.763,3.786,10.179
			C8.059,10.993,7.36,21.188-0.589,21.511c0.47-4.776-0.513-9.5-0.532-9.584C-1.324,10.74-1.675,9.7-2.158,8.797
			c0.331-0.899,2.424-6.118,6.24-5.744l0.044-0.477C0.277,2.208-1.849,6.713-2.465,8.27c-0.703-1.102-1.633-1.962-2.798-2.562
			C-5.425,5.625-5.592,5.552-5.76,5.479C-4.653,4.327,0.011-0.194,4.28,0.711z M-32.093,26.945
			c-4.558-3.711-5.119-10.037-5.123-10.081c0-1.189,0.432-2.216,1.284-3.053c2.564-2.516,8.204-2.707,9.725-2.711
			c-1.024,2.163-0.898,4.856-0.427,7.206c-1.176-0.696-4.586-2.421-8.748-1.892l0.058,0.475c4.694-0.597,8.501,1.849,8.829,2.067
			c0.621,2.681,1.606,4.767,1.628,4.81c1.04,2.587,2.256,4.422,3.498,5.724C-25.754,30.021-29.362,29.168-32.093,26.945z
			 M-24.437,23.57c-0.055-0.115-5.473-11.559,1.362-15.006c0.113-0.056,11.374-5.632,17.6-2.428
			c2.096,1.078,3.406,3.054,3.893,5.883c0.034,0.156,3.094,14.888-4.315,18.239l-0.269-0.11l-0.029,0.244
			c-0.233,0.093-0.478,0.171-0.731,0.242c-0.329-0.981-0.628-2.689-0.695-5.686l-0.472,0.011c0.101,4.428,0.709,6.913,1.805,7.39
			c0.602,0.263,1.088-0.175,1.108-0.194l0.694-0.641l-0.91,0.231c-0.118,0.031-0.16-0.007-0.18-0.024
			c-0.143-0.13-0.187-0.541-0.18-0.899c0.708,0.235,1.257,0.223,1.639-0.039c0.033-0.023,0.063-0.047,0.092-0.072
			c0.115,1.843-0.242,3.213-1.061,4.081c-1.047,1.108-2.527,0.991-2.562,0.989c-4.807,0-7.307-7.633-7.331-7.71l-0.449,0.148
			c0.049,0.153,0.628,1.922,1.754,3.76C-14.496,32.167-20.565,33.189-24.437,23.57z M-24.479,50.302
			c-0.249,0-0.51-0.015-0.777-0.043c-0.248-0.026-6.06-0.678-5.667-5.471c0.01-0.059,1.045-5.979,6.408-5.979
			c0.092,0,0.183,0.002,0.266,0.005c0.197,0.017,4.809,0.482,4.61,5.936C-19.639,44.976-19.695,50.302-24.479,50.302z
			 M-9.345,49.498c-1.233-2.378-0.586-7.537-0.416-8.719c0.017,0.001,0.034,0.004,0.052,0.004c0.615,0,1.22-0.354,1.804-1.053
			l-0.36-0.31c-0.549,0.658-1.09,0.951-1.619,0.87c-1.164-0.181-1.963-2.066-1.971-2.086l-0.435,0.186
			c0.034,0.083,0.799,1.892,2.062,2.307c-0.175,1.184-0.825,6.263,0.386,8.863c-5.911,3.995-10.055,0.201-10.763-0.527
			c1.41-1.767,1.438-4.242,1.438-4.275c0.11-3.027-1.203-4.635-2.519-5.485c1.923-1.883,3.196-6.269,3.515-7.463
			c1.33,0.598,2.531,0.745,3.386,0.745c0.802,0,1.301-0.129,1.319-0.134l-0.049-0.183c1.285,2.012,3.224,4.021,5.841,4.021
			c0.001,0,0.001,0,0.001,0c0.013,0.002,0.083,0.008,0.195,0.008c0.482,0,1.745-0.107,2.724-1.137
			c0.885-0.932,1.284-2.355,1.203-4.23c0.822,2.013,2.398,5.394,4.229,6.87c-5.109,2.457-3.559,8.578-3.537,8.659
			c0.472,1.332,1.256,2.155,2.14,2.655C-4.883,53.211-8.912,49.88-9.345,49.498z M8.058,46.317c-0.51,1.186-1.543,2.048-3.071,2.563
			c-0.012,0.005-1.255,0.427-2.741,0.427c-2.378,0-3.945-1.023-4.652-3.022c-0.066-0.247-1.535-6.077,3.63-8.241
			c0.007-0.003,0.719-0.256,1.688-0.256c1.562,0,3.686,0.643,4.934,3.717C7.858,41.531,9.001,44.125,8.058,46.317z"/>
	</g>
</g>
<g display="none">
	
		<g id="SvgjsG1007_2_" transform="matrix(1.6091172564241916,0,0,1.6091172564241916,60.64472869772384,-0.17618763093883236)" display="inline">
		<ellipse fill="#4E9A92" cx="-338.466" cy="124.138" rx="1.154" ry="1.171"/>
		<ellipse fill="#4E9A92" cx="-326.189" cy="121.797" rx="1.154" ry="1.171"/>
		<g>
			<path fill="#4E9A92" d="M-334.162,125.097l-0.422-0.215c0.013-0.028,1.401-2.739,4.923-1.176l-0.189,0.439
				C-332.968,122.763-334.115,125.002-334.162,125.097z"/>
		</g>
		<g>
			<path fill="#4E9A92" d="M-333.367,126.649l-0.334-0.338c0.073-0.074,1.807-1.811,3.41-1.115l-0.188,0.441
				C-331.787,125.066-333.353,126.633-333.367,126.649z"/>
		</g>
		<g>
			<path fill="#4E9A92" d="M-331.848,128.061l-0.437-0.18c0.007-0.019,0.187-0.461,0.688-0.672c0.42-0.178,0.931-0.139,1.514,0.115
				l-0.187,0.441c-0.456-0.199-0.839-0.237-1.139-0.115C-331.725,127.779-331.843,128.049-331.848,128.061z"/>
		</g>
		<path fill="#4E9A92" d="M-312.359,139.65c-1.342-3.311-3.66-4.005-5.366-4.005c-0.827,0-1.464,0.164-1.726,0.245
			c-2.408-1.697-4.51-7.331-4.844-8.26c1.833-1.805,2.682-4.532,3.013-7.299c8.444-0.276,9.176-10.968,9.182-11.081
			c0.424-9.894-4.002-10.65-4.175-10.675c-4.764-1.007-9.758,4.139-10.6,5.052c-6.522-2.364-16.6,2.619-17.048,2.843
			c-1.234,0.623-2.089,1.487-2.668,2.487c-1.078-0.018-7.408-0.001-10.307,2.845c-0.947,0.931-1.429,2.074-1.427,3.417
			c0.006,0.065,0.579,6.59,5.296,10.432c2.295,1.87,5.174,2.811,8.585,2.811c0.918,0,1.874-0.069,2.867-0.205
			c0.788,0.747,1.578,1.288,2.335,1.679c-0.272,1.023-1.594,5.669-3.507,7.421c-1.095-0.585-2.083-0.682-2.111-0.685
			c-6-0.204-7.156,6.309-7.17,6.393c-0.433,5.282,6.024,5.999,6.088,6.006c0.282,0.03,0.56,0.046,0.825,0.046
			c1.643,0,2.78-0.585,3.564-1.391c0.552,0.544,2.695,2.428,5.854,2.428c1.601,0,3.463-0.485,5.509-1.873
			c0.828,0.667,5.065,3.675,9.282-0.635c0.838,0.364,1.731,0.478,2.516,0.478c1.562,0,2.839-0.436,2.89-0.453
			c1.66-0.559,2.788-1.51,3.355-2.826C-311.121,142.457-312.31,139.755-312.359,139.65z M-324.601,128.173l-0.143,0.009
			c0,0.004-0.009,0.355-0.276,0.538c-0.189,0.129-0.479,0.146-0.841,0.076c0.432-0.235,0.83-0.504,1.191-0.811
			C-324.65,128.042-324.628,128.104-324.601,128.173z M-326.647,130.274c-0.033-0.008-0.067-0.018-0.1-0.033
			c-0.16-0.07-0.403-0.275-0.649-0.826c0.18-0.05,0.357-0.104,0.526-0.164C-326.871,129.578-326.831,129.997-326.647,130.274z
			 M-316.358,99.045c0.042,0.006,4.19,0.763,3.786,10.179c-0.006,0.104-0.705,10.299-8.654,10.622c0.47-4.776-0.513-9.5-0.532-9.584
			c-0.204-1.187-0.555-2.227-1.038-3.129c0.331-0.899,2.424-6.118,6.24-5.744l0.044-0.477c-3.849-0.368-5.974,4.137-6.591,5.694
			c-0.703-1.102-1.633-1.962-2.798-2.562c-0.161-0.083-0.329-0.157-0.496-0.229C-325.291,102.661-320.627,98.14-316.358,99.045z
			 M-352.731,125.279c-4.558-3.711-5.119-10.037-5.123-10.081c0-1.189,0.432-2.216,1.284-3.053c2.564-2.516,8.204-2.707,9.725-2.711
			c-1.024,2.163-0.898,4.856-0.427,7.206c-1.176-0.696-4.586-2.421-8.748-1.892l0.058,0.475c4.694-0.597,8.501,1.849,8.829,2.067
			c0.621,2.681,1.606,4.767,1.628,4.81c1.04,2.587,2.256,4.422,3.498,5.724C-346.392,128.355-350,127.502-352.731,125.279z
			 M-345.075,121.904c-0.055-0.115-5.473-11.559,1.362-15.006c0.113-0.056,11.374-5.632,17.6-2.428
			c2.096,1.078,3.406,3.054,3.893,5.883c0.034,0.156,3.094,14.888-4.315,18.239l-0.269-0.11l-0.029,0.244
			c-0.233,0.092-0.478,0.171-0.731,0.242c-0.329-0.981-0.628-2.689-0.695-5.686l-0.472,0.011c0.101,4.428,0.709,6.913,1.805,7.39
			c0.602,0.263,1.088-0.175,1.108-0.194l0.694-0.641l-0.91,0.231c-0.118,0.03-0.16-0.007-0.18-0.024
			c-0.143-0.13-0.187-0.541-0.18-0.899c0.708,0.235,1.257,0.223,1.639-0.039c0.033-0.023,0.063-0.047,0.092-0.072
			c0.115,1.843-0.242,3.213-1.061,4.081c-1.048,1.108-2.527,0.991-2.562,0.989c-4.807,0-7.307-7.633-7.331-7.71l-0.449,0.148
			c0.049,0.153,0.628,1.922,1.754,3.76C-335.135,130.501-341.203,131.523-345.075,121.904z M-345.117,148.636
			c-0.249,0-0.51-0.015-0.777-0.043c-0.248-0.026-6.06-0.678-5.667-5.471c0.01-0.059,1.045-5.979,6.408-5.979
			c0.092,0,0.183,0.002,0.266,0.005c0.197,0.017,4.809,0.482,4.61,5.935C-340.277,143.31-340.333,148.636-345.117,148.636z
			 M-329.983,147.832c-1.233-2.377-0.586-7.537-0.416-8.719c0.017,0.001,0.034,0.005,0.052,0.005c0.615,0,1.22-0.354,1.804-1.054
			l-0.361-0.31c-0.549,0.658-1.09,0.951-1.619,0.87c-1.164-0.181-1.963-2.066-1.971-2.086l-0.435,0.186
			c0.034,0.083,0.799,1.891,2.062,2.306c-0.175,1.185-0.825,6.263,0.386,8.863c-5.911,3.996-10.055,0.201-10.763-0.527
			c1.41-1.767,1.438-4.242,1.438-4.275c0.11-3.027-1.203-4.635-2.519-5.485c1.923-1.883,3.196-6.269,3.515-7.463
			c1.33,0.598,2.531,0.745,3.386,0.745c0.802,0,1.301-0.129,1.319-0.135l-0.049-0.182c1.285,2.011,3.224,4.021,5.841,4.021
			c0.001,0,0.001,0,0.001,0c0.013,0.002,0.083,0.008,0.195,0.008c0.482,0,1.745-0.107,2.724-1.137
			c0.885-0.932,1.284-2.356,1.203-4.231c0.822,2.013,2.398,5.394,4.229,6.87c-5.109,2.457-3.559,8.578-3.537,8.66
			c0.472,1.332,1.256,2.154,2.14,2.655C-325.521,151.545-329.55,148.215-329.983,147.832z M-312.58,144.651
			c-0.51,1.186-1.543,2.048-3.071,2.564c-0.012,0.005-1.255,0.427-2.741,0.427c-2.378,0-3.945-1.023-4.652-3.022
			c-0.066-0.246-1.535-6.076,3.63-8.241c0.007-0.003,0.719-0.256,1.688-0.256c1.562,0,3.686,0.643,4.934,3.717
			C-312.78,139.866-311.637,142.459-312.58,144.651z"/>
	</g>
</g>
</svg>
