<svg viewBox="0 0 264 264" class="css-1j8o68f"><defs id="SvgjsDefs1001"></defs><g id="SvgjsG1007" featurekey="mugSzh-0" transform="matrix(1.6091172564241916,0,0,1.6091172564241916,60.64472869772384,-0.17618763093883236)" fill="#4D9A92"><ellipse xmlns="http://www.w3.org/2000/svg" cx="42.978" cy="49.801" rx="2.232" ry="2.264"></ellipse><ellipse xmlns="http://www.w3.org/2000/svg" cx="66.723" cy="45.273" rx="2.232" ry="2.265"></ellipse><g xmlns="http://www.w3.org/2000/svg"><path d="M51.301,51.655l-0.816-0.415c0.025-0.053,2.709-5.296,9.521-2.275l-0.366,0.85C53.613,47.142,51.393,51.471,51.301,51.655z   "></path></g><g xmlns="http://www.w3.org/2000/svg"><path d="M52.84,54.657l-0.646-0.654c0.142-0.144,3.496-3.503,6.593-2.157l-0.362,0.852C55.896,51.595,52.868,54.626,52.84,54.657z"></path></g><g xmlns="http://www.w3.org/2000/svg"><path d="M55.779,57.387l-0.845-0.348c0.014-0.036,0.361-0.892,1.33-1.299c0.813-0.345,1.801-0.269,2.927,0.222l-0.36,0.852   c-0.884-0.384-1.624-0.459-2.202-0.223C56.015,56.842,55.789,57.365,55.779,57.387z"></path></g><path xmlns="http://www.w3.org/2000/svg" d="M93.469,79.799c-2.598-6.402-7.078-7.746-10.379-7.746c-1.598,0-2.831,0.317-3.338,0.473  c-4.657-3.282-8.723-14.177-9.368-15.975c3.544-3.491,5.187-8.765,5.826-14.117C92.54,41.9,93.956,21.223,93.968,21.005  c0.82-19.134-7.739-20.597-8.074-20.644c-9.213-1.948-18.872,8.004-20.501,9.771C52.78,5.559,33.29,15.197,32.424,15.63  c-2.387,1.204-4.04,2.875-5.16,4.809c-2.083-0.034-14.325-0.001-19.932,5.501c-1.833,1.8-2.763,4.011-2.761,6.608  c0.01,0.126,1.12,12.744,10.241,20.175c4.439,3.617,10.007,5.437,16.604,5.437c1.773,0,3.624-0.134,5.543-0.396  c1.523,1.444,3.052,2.49,4.518,3.245c-0.528,1.979-3.084,10.964-6.783,14.353c-2.118-1.131-4.028-1.319-4.082-1.324  c-11.603-0.395-13.84,12.2-13.866,12.364C15.909,96.616,28.397,98.003,28.52,98.016c0.546,0.058,1.083,0.089,1.597,0.089  c3.179,0,5.375-1.132,6.891-2.69c1.069,1.052,5.211,4.695,11.323,4.695c3.096,0,6.696-0.938,10.653-3.623  c1.602,1.289,9.796,7.106,17.952-1.228c1.619,0.703,3.346,0.923,4.866,0.923c3.021,0,5.49-0.841,5.59-0.875  c3.211-1.081,5.392-2.92,6.487-5.464C95.862,85.229,93.562,80.003,93.469,79.799z M69.793,57.605l-0.278,0.018  c0,0.007-0.015,0.686-0.533,1.04c-0.365,0.248-0.927,0.282-1.625,0.146c0.834-0.455,1.605-0.975,2.302-1.568  C69.698,57.351,69.742,57.471,69.793,57.605z M65.836,61.667c-0.063-0.016-0.127-0.035-0.191-0.063  c-0.309-0.137-0.779-0.532-1.255-1.598c0.347-0.098,0.688-0.2,1.016-0.318C65.403,60.321,65.481,61.131,65.836,61.667z   M85.733,1.272c0.082,0.012,8.104,1.476,7.322,19.685c-0.012,0.201-1.363,19.918-16.737,20.542  c0.908-9.237-0.992-18.373-1.027-18.535c-0.396-2.296-1.074-4.307-2.007-6.052c0.64-1.739,4.686-11.833,12.067-11.109l0.085-0.923  c-7.443-0.711-11.555,8-12.747,11.011c-1.358-2.131-3.158-3.795-5.411-4.954c-0.313-0.161-0.635-0.303-0.959-0.443  C68.459,8.266,77.479-0.478,85.733,1.272z M15.391,52.008c-8.814-7.176-9.899-19.411-9.908-19.497c0-2.299,0.836-4.286,2.484-5.904  c4.957-4.866,15.866-5.236,18.808-5.243c-1.982,4.183-1.737,9.392-0.827,13.936c-2.275-1.346-8.869-4.682-16.918-3.66l0.113,0.919  c9.077-1.154,16.441,3.575,17.076,3.997c1.2,5.185,3.104,9.219,3.146,9.303c2.013,5.002,4.364,8.552,6.766,11.07  C27.649,57.956,20.673,56.306,15.391,52.008z M30.197,45.481c-0.107-0.223-10.584-22.355,2.633-29.021  c0.218-0.109,21.997-10.892,34.038-4.695c4.054,2.084,6.586,5.907,7.527,11.377c0.066,0.301,5.984,28.792-8.345,35.273l-0.52-0.212  l-0.057,0.471c-0.451,0.179-0.925,0.331-1.414,0.467c-0.634-1.897-1.212-5.201-1.345-10.997l-0.913,0.021  c0.197,8.563,1.371,13.37,3.491,14.292c1.166,0.508,2.104-0.339,2.143-0.375l1.344-1.24l-1.761,0.447  c-0.229,0.059-0.309-0.013-0.347-0.046c-0.278-0.252-0.363-1.046-0.348-1.739c1.368,0.455,2.433,0.432,3.169-0.075  c0.063-0.044,0.123-0.09,0.178-0.138c0.224,3.563-0.466,6.214-2.052,7.893c-2.026,2.143-4.886,1.916-4.954,1.912  c-9.296,0-14.131-14.761-14.179-14.91l-0.869,0.287c0.095,0.296,1.214,3.716,3.393,7.271C49.422,62.107,37.684,64.082,30.197,45.481  z M30.117,97.179c-0.48,0-0.985-0.029-1.502-0.084c-0.479-0.051-11.721-1.311-10.96-10.58c0.019-0.115,2.02-11.562,12.392-11.562  c0.177,0,0.354,0.004,0.513,0.009c0.38,0.033,9.302,0.933,8.917,11.479C39.477,86.878,39.369,97.179,30.117,97.179z M59.383,95.623  C57,91.025,58.25,81.046,58.578,78.761c0.034,0.001,0.068,0.008,0.103,0.008c1.188,0,2.359-0.685,3.488-2.037l-0.697-0.599  c-1.062,1.273-2.11,1.84-3.133,1.683c-2.25-0.349-3.795-3.995-3.811-4.033l-0.842,0.36c0.066,0.159,1.546,3.658,3.989,4.461  c-0.338,2.29-1.596,12.111,0.747,17.14c-11.433,7.727-19.445,0.389-20.814-1.019c2.728-3.417,2.781-8.203,2.781-8.268  c0.214-5.854-2.326-8.963-4.87-10.608c3.718-3.641,6.181-12.124,6.798-14.432c2.573,1.156,4.894,1.44,6.548,1.44  c1.552,0,2.517-0.25,2.553-0.26l-0.095-0.353c2.486,3.89,6.234,7.776,11.297,7.776c0.001,0,0.001,0,0.001,0  c0.026,0.004,0.161,0.015,0.379,0.015c0.932,0,3.374-0.207,5.267-2.2c1.71-1.802,2.482-4.555,2.326-8.181  c1.589,3.893,4.638,10.432,8.178,13.286c-9.879,4.751-6.883,16.59-6.839,16.747c0.911,2.575,2.428,4.167,4.138,5.134  C68.014,102.805,60.222,96.363,59.383,95.623z M93.042,89.472c-0.986,2.294-2.984,3.961-5.94,4.957  c-0.023,0.01-2.428,0.826-5.3,0.826c-4.599,0-7.63-1.978-8.998-5.844c-0.126-0.477-2.969-11.752,7.021-15.938  c0.015-0.005,1.389-0.494,3.266-0.494c3.021,0,7.129,1.244,9.541,7.188C92.654,80.217,94.864,85.233,93.042,89.472z"></path></g></svg>