<?xml version="1.0" encoding="utf-8"?>
<!-- Generator: Adobe Illustrator 16.0.0, SVG Export Plug-In . SVG Version: 6.00 Build 0)  -->
<!DOCTYPE svg PUBLIC "-//W3C//DTD SVG 1.1//EN" "http://www.w3.org/Graphics/SVG/1.1/DTD/svg11.dtd">
<svg version="1.1" id="Capa_1" xmlns="http://www.w3.org/2000/svg" xmlns:xlink="http://www.w3.org/1999/xlink" x="0px" y="0px"
	 width="400px" height="100px" viewBox="0 0 400 100" enable-background="new 0 0 400 100" xml:space="preserve">
<g display="none">
</g>
<g display="none">
</g>
<rect x="-665.463" y="-217.249" display="none" fill="#DBF0EF" width="348.99" height="106.367"/>
<g display="none">
</g>
<g display="none">
	<circle display="inline" fill="#DBF0EF" cx="-258.084" cy="50" r="90.444"/>
	<text transform="matrix(1 0 0 1 -317.6396 45.2866)" display="inline"><tspan x="0" y="0" fill="#4E9A92" font-family="'Poppins-Bold'" font-size="48" letter-spacing="-1">M</tspan><tspan x="42.864" y="0" fill="#7CBFB8" font-family="'Poppins-Bold'" font-size="48" letter-spacing="-1">ISK</tspan></text>
	<text transform="matrix(1 0 0 1 -317.6396 85.2861)" display="inline"><tspan x="0" y="0" fill="#4E9A92" font-family="'Poppins-Bold'" font-size="48" letter-spacing="-1">B</tspan><tspan x="30.432" y="0" fill="#7CBFB8" font-family="'Poppins-Bold'" font-size="48" letter-spacing="-1">ABY</tspan></text>
</g>
<g display="none">
	<rect x="-698.744" y="201.675" display="inline" fill="#DBF0EF" width="566.929" height="53.184"/>
	<path display="inline" fill="#4E9A92" d="M-368.774,232.267c0,6.627-5.372,12-12,12h-59.505c-6.627,0-12-5.373-12-12v-8
		c0-6.627,5.373-12,12-12h59.505c6.628,0,12,5.373,12,12V232.267z"/>
	<text transform="matrix(1 0 0 1 -694.4229 233.4238)" display="inline"><tspan x="0" y="0" fill="#4E9A92" font-family="'Raleway-SemiBold'" font-size="14">Lactancia</tspan><tspan x="64.398" y="0" fill="#4E9A92" font-family="'Raleway-SemiBold'" font-size="14" letter-spacing="4">	</tspan><tspan x="71.999" y="0" fill="#4E9A92" font-family="'Raleway-SemiBold'" font-size="14" letter-spacing="32">	</tspan><tspan x="107.999" y="0" fill="#4E9A92" font-family="'Raleway-SemiBold'" font-size="14">Primeras Comidas</tspan><tspan x="228.173" y="0" fill="#4E9A92" font-family="'Raleway-SemiBold'" font-size="14" letter-spacing="20">	</tspan><tspan x="251.999" y="0" fill="#FAFDFF" font-family="'Raleway-SemiBold'" font-size="14">Chupetes</tspan><tspan x="315.923" y="0" fill="#4E9A92" font-family="'Raleway-SemiBold'" font-size="14" letter-spacing="4">	</tspan><tspan x="324" y="0" fill="#4E9A92" font-family="'Raleway-SemiBold'" font-size="14" letter-spacing="32">	</tspan><tspan x="360" y="0" fill="#4E9A92" font-family="'Raleway-SemiBold'" font-size="14">Higiene</tspan><tspan x="411.001" y="0" fill="#4E9A92" font-family="'Raleway-SemiBold'" font-size="14" letter-spacing="17">	</tspan><tspan x="432" y="0" fill="#4E9A92" font-family="'Raleway-SemiBold'" font-size="14" letter-spacing="32">	</tspan><tspan x="468" y="0" fill="#4E9A92" font-family="'Raleway-SemiBold'" font-size="14">Paseo</tspan></text>
</g>
<g display="none">
	<rect x="-698.744" y="286.675" display="inline" fill="#DBF0EF" width="566.93" height="53.184"/>
	<path display="inline" fill="#5B74A5" d="M-353.354,317.267c0,6.627-5.373,12-12,12h-59.506c-6.627,0-12-5.373-12-12v-8
		c0-6.627,5.373-12,12-12h59.506c6.627,0,12,5.373,12,12V317.267z"/>
	<text transform="matrix(1 0 0 1 -679.002 318.4238)" display="inline"><tspan x="0" y="0" fill="#4E9A92" font-family="'Raleway-SemiBold'" font-size="14">Lactancia</tspan><tspan x="64.398" y="0" fill="#4E9A92" font-family="'Raleway-SemiBold'" font-size="14" letter-spacing="4">	</tspan><tspan x="71.999" y="0" fill="#4E9A92" font-family="'Raleway-SemiBold'" font-size="14" letter-spacing="32">	</tspan><tspan x="107.999" y="0" fill="#4E9A92" font-family="'Raleway-SemiBold'" font-size="14">Primeras Comidas</tspan><tspan x="228.172" y="0" fill="#4E9A92" font-family="'Raleway-SemiBold'" font-size="14" letter-spacing="20">	</tspan><tspan x="251.998" y="0" fill="#FAFDFF" font-family="'Raleway-SemiBold'" font-size="14">Chupetes</tspan><tspan x="315.922" y="0" fill="#4E9A92" font-family="'Raleway-SemiBold'" font-size="14" letter-spacing="4">	</tspan><tspan x="324" y="0" fill="#4E9A92" font-family="'Raleway-SemiBold'" font-size="14" letter-spacing="32">	</tspan><tspan x="360" y="0" fill="#4E9A92" font-family="'Raleway-SemiBold'" font-size="14">Higiene</tspan><tspan x="411" y="0" fill="#4E9A92" font-family="'Raleway-SemiBold'" font-size="14" letter-spacing="17">	</tspan><tspan x="432" y="0" fill="#4E9A92" font-family="'Raleway-SemiBold'" font-size="14" letter-spacing="32">	</tspan><tspan x="468" y="0" fill="#4E9A92" font-family="'Raleway-SemiBold'" font-size="14">Paseo</tspan></text>
</g>
<g display="none">
	<circle display="inline" fill="#DBF0EF" cx="-572.476" cy="50" r="90.444"/>
	<text transform="matrix(1 0 0 1 -632.0313 45.2866)" display="inline"><tspan x="0" y="0" fill="#4E9A92" font-family="'Poppins-Bold'" font-size="48" letter-spacing="-1">M</tspan><tspan x="42.863" y="0" fill="#7CBFB8" font-family="'Poppins-Bold'" font-size="48" letter-spacing="-1">ISK</tspan></text>
	<text transform="matrix(1 0 0 1 -622.0313 85.2861)" display="inline"><tspan x="0" y="0" fill="#4E9A92" font-family="'Poppins-Bold'" font-size="48" letter-spacing="-1">B</tspan><tspan x="30.432" y="0" fill="#7CBFB8" font-family="'Poppins-Bold'" font-size="48" letter-spacing="-1">ABY</tspan></text>
</g>
<rect x="-1695.452" y="-221.434" display="none" fill="#AEDEDA" stroke="#6E6F71" stroke-miterlimit="10" width="99.213" height="99.212"/>
<rect x="-1596.238" y="-221.434" display="none" fill="#7BC0B9" stroke="#6E6F71" stroke-miterlimit="10" width="99.213" height="99.212"/>
<rect x="-1497.025" y="-221.434" display="none" fill="#4D9A92" stroke="#6E6F71" stroke-miterlimit="10" width="99.213" height="99.212"/>
<rect x="-1794.664" y="-221.434" display="none" fill="#DBF0EF" stroke="#6E6F71" stroke-miterlimit="10" width="99.213" height="99.212"/>
<rect x="-1894.393" y="-221.435" display="none" fill="#FBFEFE" stroke="#6E6F71" stroke-miterlimit="10" width="99.213" height="99.212"/>
<text transform="matrix(1 0 0 1 -1893.875 -296.9453)" display="none" font-family="'Poppins-Bold'" font-size="24">Colors Palette</text>
<text transform="matrix(1 0 0 1 -1894.3931 -235.9453)" display="none" font-family="'Poppins-Bold'" font-size="18">Primary Color</text>
<text transform="matrix(1 0 0 1 -1874.9629 -168.7886)" display="none" font-family="'Raleway-SemiBold'" font-size="14">#FBFFFE</text>
<text transform="matrix(1 0 0 1 -1781.3877 -168.7886)" display="none" font-family="'Raleway-SemiBold'" font-size="14">#DAF4F1</text>
<text transform="matrix(1 0 0 1 -1679.3877 -168.7886)" display="none" font-family="'Raleway-SemiBold'" font-size="14">#ADDFDA</text>
<text transform="matrix(1 0 0 1 -1576.5391 -168.7886)" display="none" font-family="'Raleway-SemiBold'" font-size="14">#7BC0B9</text>
<text transform="matrix(1 0 0 1 -1475.5391 -168.7886)" display="none" font-family="'Raleway-SemiBold'" font-size="14">#4D9A92</text>
<rect x="-1695.193" y="-65.466" display="none" fill="#B5C5E2" stroke="#6E6F71" stroke-miterlimit="10" width="99.212" height="99.212"/>
<rect x="-1595.98" y="-65.466" display="none" fill="#879EC6" stroke="#6E6F71" stroke-miterlimit="10" width="99.213" height="99.212"/>
<rect x="-1496.768" y="-65.466" display="none" fill="#5A74A5" stroke="#6E6F71" stroke-miterlimit="10" width="99.213" height="99.212"/>
<rect x="-1794.405" y="-65.466" display="none" fill="#DEE6F5" stroke="#6E6F71" stroke-miterlimit="10" width="99.212" height="99.212"/>
<rect x="-1894.135" y="-65.467" display="none" fill="#FBFDFE" stroke="#6E6F71" stroke-miterlimit="10" width="99.213" height="99.212"/>
<text transform="matrix(1 0 0 1 -1894.394 -79.9775)" display="none" font-family="'Poppins-Bold'" font-size="18">Secondary Color</text>
<text transform="matrix(1 0 0 1 -1874.7046 -12.8213)" display="none" font-family="'Raleway-SemiBold'" font-size="14">#FBFCFF</text>
<text transform="matrix(1 0 0 1 -1781.1294 -12.8213)" display="none" font-family="'Raleway-SemiBold'" font-size="14">#DEE6F5</text>
<text transform="matrix(1 0 0 1 -1679.1294 -12.8213)" display="none" font-family="'Raleway-SemiBold'" font-size="14">#B5C5E3</text>
<text transform="matrix(1 0 0 1 -1576.2813 -12.8213)" display="none" font-family="'Raleway-SemiBold'" font-size="14">#879EC7</text>
<text transform="matrix(1 0 0 1 -1475.2813 -12.8213)" display="none" font-family="'Raleway-SemiBold'" font-size="14">#5A74A5</text>
<text transform="matrix(1 0 0 1 -1893.8755 79.4697)" display="none" font-family="'Poppins-Bold'" font-size="18">Accent Color</text>
<rect x="-1894.393" y="93.525" display="none" fill="#F8CC7B" stroke="#6E6F71" stroke-miterlimit="10" width="99.213" height="99.212"/>
<text transform="matrix(1 0 0 1 -1874.9629 146.1719)" display="none" font-family="'Raleway-SemiBold'" font-size="14">#F8CC7B</text>
<g display="none">
</g>
<g display="none">
</g>
<text transform="matrix(1 0 0 1 -1893.6177 235.4385)" display="none" font-family="'Poppins-Bold'" font-size="18">Neutral Color</text>
<rect x="-1894.135" y="249.494" display="none" fill="#666766" stroke="#6E6F71" stroke-miterlimit="10" width="99.213" height="99.212"/>
<text transform="matrix(1 0 0 1 -1874.7051 302.1406)" display="none" font-family="'Raleway-SemiBold'" font-size="14">#666666</text>
<text transform="matrix(1 0 0 1 -1893.875 -296.9453)" display="none" font-family="'Poppins-Bold'" font-size="24">Colors Palette</text>
<text transform="matrix(1 0 0 1 -1278.5947 -296.9453)" display="none" font-family="'Poppins-Bold'" font-size="24">Fonts</text>
<text transform="matrix(1 0 0 1 -663.3145 -296.9453)" display="none" font-family="'Poppins-Bold'" font-size="24">Logo</text>
<text transform="matrix(1 0 0 1 -1894.3931 -235.9453)" display="none" font-family="'Poppins-Bold'" font-size="18">Primary Color</text>
<text transform="matrix(1 0 0 1 -1279.1133 -235.9453)" display="none" font-family="'Poppins-Bold'" font-size="18">Headings</text>
<text transform="matrix(1 0 0 1 -1279.1133 -204.9346)" display="none" font-family="'Poppins-Bold'" font-size="14">Family: Poppins</text>
<text transform="matrix(1 0 0 1 -1278.7676 -170.6577)" display="none" font-family="'Poppins-Regular'" font-size="14">Regular 400</text>
<text transform="matrix(1 0 0 1 -663.832 -235.9453)" display="none" font-family="'Poppins-Bold'" font-size="18">Horizontal</text>
<text transform="matrix(1 0 0 1 -1278.5957 -17.9302)" display="none" font-family="'Poppins-Bold'" font-size="18">Base</text>
<text transform="matrix(1 0 0 1 -1278.5957 13.0806)" display="none" font-family="'Raleway-SemiBold'" font-size="14">Family: Raleway</text>
<text transform="matrix(1 0 0 1 -1278.5957 51.1475)" display="none" font-family="'Raleway-Light'" font-size="14">Light 300</text>
<text transform="matrix(1 0 0 1 -663.3145 -69.9453)" display="none" font-family="'Poppins-Bold'" font-size="18">Vertical</text>
<text transform="matrix(1 0 0 1 -648.7617 172.0547)" display="none" font-family="'Poppins-Bold'" font-size="18">Uses</text>
<g display="none">
	<rect x="-698.744" y="372.675" display="inline" fill="#DBF0EF" width="566.929" height="53.184"/>
	<path display="inline" fill="#F8CC7B" d="M-368.774,403.267c0,6.627-5.372,12-12,12h-59.505c-6.627,0-12-5.373-12-12v-8
		c0-6.627,5.373-12,12-12h59.505c6.628,0,12,5.373,12,12V403.267z"/>
	<text transform="matrix(1 0 0 1 -694.4229 404.4238)" display="inline"><tspan x="0" y="0" fill="#4E9A92" font-family="'Raleway-SemiBold'" font-size="14">Lactancia</tspan><tspan x="64.398" y="0" fill="#4E9A92" font-family="'Raleway-SemiBold'" font-size="14" letter-spacing="4">	</tspan><tspan x="71.999" y="0" fill="#4E9A92" font-family="'Raleway-SemiBold'" font-size="14" letter-spacing="32">	</tspan><tspan x="107.999" y="0" fill="#4E9A92" font-family="'Raleway-SemiBold'" font-size="14">Primeras Comidas</tspan><tspan x="228.173" y="0" fill="#4E9A92" font-family="'Raleway-SemiBold'" font-size="14" letter-spacing="20">	</tspan><tspan x="251.999" y="0" fill="#666766" font-family="'Raleway-SemiBold'" font-size="14">Chupetes</tspan><tspan x="315.923" y="0" fill="#4E9A92" font-family="'Raleway-SemiBold'" font-size="14" letter-spacing="4">	</tspan><tspan x="324" y="0" fill="#4E9A92" font-family="'Raleway-SemiBold'" font-size="14" letter-spacing="32">	</tspan><tspan x="360" y="0" fill="#4E9A92" font-family="'Raleway-SemiBold'" font-size="14">Higiene</tspan><tspan x="411.001" y="0" fill="#4E9A92" font-family="'Raleway-SemiBold'" font-size="14" letter-spacing="17">	</tspan><tspan x="432" y="0" fill="#4E9A92" font-family="'Raleway-SemiBold'" font-size="14" letter-spacing="32">	</tspan><tspan x="468" y="0" fill="#4E9A92" font-family="'Raleway-SemiBold'" font-size="14">Paseo</tspan></text>
</g>
<text transform="matrix(1 0 0 1 -1278.7676 -130.6577)" display="none" font-family="'Poppins-SemiBold'" font-size="14">Semi-bold 600</text>
<text transform="matrix(1 0 0 1 -1278.7676 -90.6577)" display="none" font-family="'Poppins-Bold'" font-size="14">Bold 700</text>
<text transform="matrix(1 0 0 1 -1278.5957 91.1475)" display="none" font-family="'Poppins-Regular'" font-size="14">Regular 400</text>
<g>
	<g>
		<g>
			<path fill="#4E9A92" d="M152.26,19.913v37.064h-9.027V34.75l-8.291,22.227h-7.283l-8.346-22.28v22.28h-9.027V19.913h10.666
				l10.4,25.66l10.297-25.66H152.26z"/>
			<path fill="#7CBFB8" d="M166.463,19.913v37.064h-9.027V19.913H166.463z"/>
			<path fill="#7CBFB8" d="M177.816,56.026c-2.148-0.879-3.865-2.182-5.148-3.907c-1.287-1.723-1.963-3.801-2.033-6.229h9.609
				c0.141,1.373,0.615,2.42,1.424,3.142c0.811,0.721,1.867,1.083,3.168,1.083c1.338,0,2.396-0.309,3.168-0.924
				c0.775-0.616,1.162-1.47,1.162-2.561c0-0.915-0.309-1.672-0.924-2.271c-0.615-0.598-1.371-1.091-2.27-1.479
				c-0.898-0.387-2.174-0.827-3.828-1.32c-2.395-0.739-4.348-1.477-5.859-2.216c-1.516-0.74-2.816-1.83-3.908-3.274
				s-1.637-3.327-1.637-5.65c0-3.449,1.25-6.15,3.748-8.104s5.756-2.931,9.77-2.931c4.082,0,7.373,0.977,9.873,2.931
				c2.498,1.954,3.834,4.672,4.012,8.157h-9.768c-0.07-1.196-0.512-2.138-1.32-2.825c-0.811-0.686-1.848-1.029-3.115-1.029
				c-1.09,0-1.971,0.291-2.641,0.871c-0.668,0.581-1.002,1.417-1.002,2.508c0,1.198,0.563,2.13,1.689,2.798
				c1.127,0.67,2.887,1.391,5.279,2.165c2.395,0.81,4.338,1.584,5.836,2.323c1.494,0.739,2.789,1.813,3.879,3.22
				c1.092,1.409,1.637,3.221,1.637,5.438c0,2.112-0.535,4.031-1.609,5.755c-1.074,1.725-2.633,3.099-4.674,4.119
				s-4.451,1.53-7.232,1.53C182.391,57.347,179.963,56.907,177.816,56.026z"/>
			<path fill="#7CBFB8" d="M224.33,56.977l-12.461-16.367v16.367h-9.027V19.913h9.027v16.262l12.355-16.262h10.611l-14.359,18.162
				l14.889,18.902H224.33z"/>
			<path fill="#4E9A92" d="M275.807,41.165c1.303,1.671,1.953,3.581,1.953,5.728c0,3.098-1.08,5.552-3.246,7.364
				c-2.164,1.814-5.184,2.72-9.055,2.72h-17.266V19.913h16.684c3.768,0,6.715,0.863,8.844,2.587
				c2.131,1.725,3.195,4.065,3.195,7.022c0,2.183-0.572,3.995-1.717,5.438c-1.143,1.444-2.666,2.447-4.566,3.009
				C272.779,38.428,274.504,39.493,275.807,41.165z M257.223,34.908h5.912c1.479,0,2.615-0.325,3.406-0.977
				c0.793-0.651,1.188-1.61,1.188-2.877c0-1.268-0.395-2.235-1.188-2.904c-0.791-0.668-1.928-1.003-3.406-1.003h-5.912V34.908z
				 M267.387,48.662c0.824-0.687,1.238-1.681,1.238-2.983c0-1.302-0.43-2.323-1.291-3.063c-0.865-0.739-2.051-1.109-3.564-1.109
				h-6.547v8.185h6.652C265.389,49.692,266.559,49.347,267.387,48.662z"/>
			<path fill="#7CBFB8" d="M304.74,50.429h-13.832l-2.217,6.547h-9.453l13.412-37.064h10.455l13.41,37.064h-9.557L304.74,50.429z
				 M302.418,43.46l-4.594-13.569l-4.539,13.569H302.418z"/>
			<path fill="#7CBFB8" d="M346.875,41.165c1.301,1.671,1.953,3.581,1.953,5.728c0,3.098-1.084,5.552-3.248,7.364
				c-2.164,1.814-5.184,2.72-9.055,2.72H319.26V19.913h16.686c3.764,0,6.713,0.863,8.844,2.587c2.129,1.725,3.193,4.065,3.193,7.022
				c0,2.183-0.572,3.995-1.717,5.438c-1.143,1.444-2.664,2.447-4.564,3.009C343.846,38.428,345.572,39.493,346.875,41.165z
				 M328.289,34.908h5.914c1.479,0,2.611-0.325,3.404-0.977c0.791-0.651,1.189-1.61,1.189-2.877c0-1.268-0.398-2.235-1.189-2.904
				c-0.793-0.668-1.926-1.003-3.404-1.003h-5.914V34.908z M338.451,48.662c0.828-0.687,1.242-1.681,1.242-2.983
				c0-1.302-0.432-2.323-1.295-3.063c-0.861-0.739-2.051-1.109-3.563-1.109h-6.547v8.185h6.652
				C336.453,49.692,337.625,49.347,338.451,48.662z"/>
			<path fill="#7CBFB8" d="M384.52,19.913l-12.83,24.815v12.249h-9.029V44.728l-12.83-24.815h10.244l7.18,15.522l7.127-15.522
				H384.52z"/>
		</g>
		<g>
			<path fill="#4E9891" d="M123.779,67.926h-3.637v9.409h-1.738v-9.409h-3.65V66.4h9.025V67.926z"/>
			<path fill="#4E9891" d="M127.059,77.488c-0.627,0-1.193-0.109-1.703-0.328c-0.506-0.219-0.945-0.52-1.314-0.902
				c-0.371-0.381-0.654-0.819-0.855-1.314c-0.199-0.493-0.299-1.021-0.299-1.582c0-0.751,0.174-1.438,0.523-2.063
				c0.348-0.624,0.836-1.127,1.461-1.508c0.627-0.381,1.361-0.57,2.203-0.57c0.84,0,1.566,0.189,2.18,0.571
				c0.609,0.381,1.084,0.882,1.424,1.503c0.34,0.619,0.508,1.285,0.508,1.997c0,0.122-0.006,0.236-0.016,0.343
				s-0.02,0.196-0.031,0.267h-6.451c0.029,0.466,0.162,0.874,0.393,1.224c0.23,0.351,0.525,0.623,0.885,0.82
				c0.359,0.198,0.744,0.297,1.156,0.297c0.451,0,0.879-0.112,1.285-0.339s0.68-0.522,0.824-0.893l1.447,0.415
				c-0.174,0.391-0.439,0.742-0.793,1.055c-0.354,0.314-0.773,0.56-1.256,0.739S127.623,77.488,127.059,77.488z M124.641,72.776
				h4.867c-0.031-0.452-0.162-0.853-0.393-1.2c-0.23-0.347-0.523-0.619-0.879-0.814c-0.354-0.197-0.746-0.295-1.178-0.295
				c-0.42,0-0.809,0.098-1.162,0.295c-0.354,0.195-0.645,0.468-0.869,0.814C124.801,71.924,124.672,72.324,124.641,72.776z"/>
			<path fill="#4E9891" d="M135.789,75.001c0-0.508,0.146-0.953,0.439-1.334c0.293-0.382,0.695-0.678,1.207-0.886
				c0.516-0.209,1.111-0.313,1.789-0.313c0.359,0,0.725,0.025,1.1,0.076c0.375,0.052,0.705,0.134,0.994,0.247v-0.505
				c0-0.557-0.17-0.991-0.508-1.304c-0.34-0.313-0.826-0.471-1.463-0.471c-0.453,0-0.879,0.08-1.279,0.239s-0.826,0.382-1.277,0.669
				l-0.57-1.139c0.533-0.359,1.07-0.627,1.609-0.802c0.539-0.174,1.105-0.261,1.701-0.261c1.078,0,1.928,0.281,2.549,0.845
				s0.932,1.363,0.932,2.398v2.969c0,0.192,0.033,0.329,0.1,0.411c0.068,0.082,0.182,0.127,0.348,0.138v1.354
				c-0.154,0.031-0.293,0.051-0.418,0.062c-0.121,0.011-0.225,0.015-0.307,0.015c-0.359,0-0.631-0.087-0.816-0.261
				c-0.184-0.175-0.291-0.38-0.324-0.616l-0.045-0.462c-0.35,0.452-0.795,0.801-1.34,1.047c-0.545,0.247-1.094,0.369-1.646,0.369
				c-0.535,0-1.012-0.108-1.434-0.327c-0.42-0.219-0.748-0.517-0.984-0.893C135.908,75.892,135.789,75.471,135.789,75.001z
				 M140.918,75.484c0.123-0.131,0.221-0.263,0.293-0.395c0.07-0.131,0.107-0.247,0.107-0.348v-0.909
				c-0.289-0.11-0.59-0.194-0.908-0.249c-0.318-0.056-0.633-0.084-0.939-0.084c-0.617,0-1.117,0.121-1.504,0.364
				c-0.383,0.242-0.576,0.575-0.576,0.999c0,0.233,0.064,0.454,0.193,0.666s0.313,0.385,0.555,0.516
				c0.24,0.132,0.541,0.196,0.9,0.196c0.369,0,0.723-0.071,1.063-0.211C140.439,75.889,140.713,75.707,140.918,75.484z"/>
			<path fill="#4E9891" d="M148.709,77.488c-0.625,0-1.193-0.108-1.701-0.327s-0.947-0.521-1.316-0.908s-0.654-0.828-0.854-1.327
				c-0.203-0.499-0.301-1.028-0.301-1.588c0-0.752,0.172-1.438,0.514-2.06c0.346-0.619,0.828-1.119,1.449-1.495
				s1.357-0.563,2.209-0.563c0.822,0,1.537,0.183,2.148,0.546c0.611,0.365,1.061,0.85,1.348,1.456l-1.648,0.522
				c-0.186-0.339-0.443-0.603-0.777-0.793c-0.334-0.189-0.699-0.285-1.1-0.285c-0.453,0-0.859,0.115-1.225,0.343
				c-0.365,0.227-0.654,0.541-0.863,0.941c-0.211,0.399-0.316,0.862-0.316,1.388c0,0.507,0.107,0.966,0.324,1.375
				c0.217,0.41,0.506,0.734,0.871,0.972c0.363,0.237,0.771,0.357,1.223,0.357c0.277,0,0.547-0.049,0.809-0.147
				c0.264-0.097,0.49-0.231,0.686-0.4c0.193-0.169,0.334-0.356,0.416-0.562l1.662,0.492c-0.174,0.4-0.434,0.755-0.775,1.063
				c-0.346,0.308-0.75,0.551-1.219,0.73C149.805,77.398,149.283,77.488,148.709,77.488z"/>
			<path fill="#4E9891" d="M157.209,77.488c-0.637,0-1.207-0.108-1.709-0.327c-0.504-0.219-0.936-0.521-1.301-0.908
				s-0.645-0.826-0.838-1.32c-0.195-0.493-0.295-1.019-0.295-1.579c0-0.559,0.1-1.087,0.295-1.587
				c0.193-0.497,0.473-0.938,0.838-1.319c0.365-0.381,0.801-0.681,1.309-0.899c0.51-0.219,1.074-0.328,1.701-0.328
				c0.629,0,1.193,0.109,1.703,0.328c0.508,0.219,0.943,0.519,1.309,0.899c0.363,0.382,0.645,0.822,0.838,1.319
				c0.195,0.5,0.295,1.028,0.295,1.587c0,0.561-0.1,1.086-0.295,1.579c-0.193,0.494-0.475,0.934-0.838,1.32
				c-0.365,0.387-0.801,0.689-1.309,0.908C158.402,77.38,157.838,77.488,157.209,77.488z M154.809,73.37
				c0,0.506,0.107,0.961,0.322,1.365c0.215,0.405,0.504,0.725,0.863,0.957c0.357,0.232,0.764,0.35,1.215,0.35
				c0.443,0,0.846-0.12,1.211-0.357c0.363-0.237,0.652-0.562,0.869-0.972c0.215-0.409,0.322-0.862,0.322-1.359
				c0-0.506-0.107-0.961-0.322-1.366c-0.217-0.404-0.506-0.726-0.869-0.964c-0.365-0.238-0.768-0.357-1.211-0.357
				c-0.451,0-0.857,0.122-1.215,0.365c-0.359,0.243-0.648,0.564-0.863,0.965C154.916,72.395,154.809,72.854,154.809,73.37z"/>
			<path fill="#4E9891" d="M175.182,77.335h-1.693v-4.461c0-0.74-0.123-1.282-0.371-1.628c-0.246-0.346-0.605-0.518-1.078-0.518
				s-0.91,0.174-1.316,0.525c-0.406,0.351-0.689,0.805-0.855,1.362v4.719h-1.693v-4.461c0-0.74-0.123-1.282-0.369-1.628
				s-0.6-0.518-1.063-0.518c-0.473,0-0.912,0.171-1.316,0.515c-0.404,0.343-0.697,0.792-0.869,1.348v4.744h-1.695v-7.993h1.539
				v1.616c0.318-0.559,0.736-0.988,1.256-1.289c0.518-0.3,1.111-0.449,1.779-0.449s1.193,0.172,1.578,0.519
				c0.385,0.345,0.623,0.778,0.715,1.297c0.35-0.591,0.779-1.041,1.287-1.35c0.508-0.311,1.092-0.466,1.748-0.466
				c0.473,0,0.865,0.086,1.186,0.259c0.318,0.173,0.564,0.409,0.738,0.709c0.176,0.301,0.301,0.646,0.379,1.038
				c0.076,0.392,0.115,0.805,0.115,1.243V77.335z"/>
			<path fill="#4E9891" d="M181.711,77.488c-0.646,0-1.217-0.152-1.709-0.457c-0.494-0.306-0.883-0.702-1.172-1.19v4.773h-1.693
				V69.342h1.494v1.449c0.307-0.479,0.707-0.859,1.199-1.145c0.494-0.284,1.043-0.427,1.648-0.427c0.555,0,1.064,0.109,1.525,0.328
				s0.861,0.521,1.201,0.907c0.338,0.387,0.604,0.826,0.793,1.32c0.189,0.493,0.285,1.014,0.285,1.563
				c0,0.764-0.15,1.461-0.455,2.091c-0.303,0.631-0.725,1.132-1.264,1.503C183.027,77.304,182.408,77.488,181.711,77.488z
				 M181.156,76.042c0.359,0,0.684-0.076,0.979-0.229c0.291-0.151,0.543-0.354,0.754-0.607c0.209-0.252,0.371-0.542,0.484-0.866
				c0.113-0.322,0.17-0.656,0.17-1.002c0-0.363-0.063-0.707-0.186-1.031s-0.299-0.607-0.529-0.851
				c-0.232-0.243-0.5-0.435-0.803-0.576s-0.635-0.214-0.992-0.214c-0.217,0-0.441,0.041-0.68,0.122
				c-0.234,0.08-0.455,0.191-0.662,0.332c-0.203,0.142-0.383,0.308-0.537,0.5s-0.262,0.393-0.324,0.604v2.09
				c0.145,0.323,0.334,0.614,0.57,0.872c0.236,0.256,0.508,0.463,0.816,0.62S180.838,76.042,181.156,76.042z"/>
			<path fill="#4E9891" d="M186.223,75.001c0-0.508,0.146-0.953,0.439-1.334c0.293-0.382,0.693-0.678,1.207-0.886
				c0.514-0.209,1.109-0.313,1.787-0.313c0.359,0,0.727,0.025,1.1,0.076c0.375,0.052,0.707,0.134,0.994,0.247v-0.505
				c0-0.557-0.168-0.991-0.506-1.304c-0.34-0.313-0.828-0.471-1.465-0.471c-0.453,0-0.877,0.08-1.279,0.239
				c-0.398,0.159-0.824,0.382-1.275,0.669l-0.57-1.139c0.533-0.359,1.068-0.627,1.607-0.802c0.541-0.174,1.107-0.261,1.703-0.261
				c1.076,0,1.928,0.281,2.549,0.845c0.619,0.563,0.93,1.363,0.93,2.398v2.969c0,0.192,0.035,0.329,0.102,0.411
				s0.182,0.127,0.346,0.138v1.354c-0.152,0.031-0.293,0.051-0.416,0.062s-0.225,0.015-0.307,0.015
				c-0.359,0-0.633-0.087-0.816-0.261c-0.184-0.175-0.291-0.38-0.324-0.616l-0.045-0.462c-0.35,0.452-0.797,0.801-1.34,1.047
				c-0.545,0.247-1.094,0.369-1.648,0.369c-0.533,0-1.012-0.108-1.432-0.327s-0.75-0.517-0.986-0.893
				C186.34,75.892,186.223,75.471,186.223,75.001z M191.352,75.484c0.121-0.131,0.221-0.263,0.291-0.395
				c0.072-0.131,0.107-0.247,0.107-0.348v-0.909c-0.287-0.11-0.59-0.194-0.908-0.249c-0.318-0.056-0.631-0.084-0.939-0.084
				c-0.615,0-1.117,0.121-1.502,0.364c-0.385,0.242-0.578,0.575-0.578,0.999c0,0.233,0.066,0.454,0.193,0.666
				c0.129,0.212,0.314,0.385,0.555,0.516c0.24,0.132,0.541,0.196,0.9,0.196c0.371,0,0.725-0.071,1.064-0.211
				C190.873,75.889,191.145,75.707,191.352,75.484z"/>
			<path fill="#4E9891" d="M202.715,77.335h-1.695v-4.461c0-0.74-0.119-1.282-0.361-1.628c-0.24-0.346-0.598-0.518-1.068-0.518
				c-0.33,0-0.656,0.08-0.979,0.242c-0.324,0.161-0.615,0.381-0.871,0.658c-0.256,0.278-0.441,0.599-0.553,0.962v4.744h-1.695
				v-7.993h1.539v1.616c0.207-0.356,0.477-0.663,0.809-0.922c0.336-0.26,0.713-0.461,1.133-0.604s0.867-0.213,1.34-0.213
				c0.482,0,0.881,0.086,1.193,0.259s0.561,0.409,0.738,0.709c0.182,0.301,0.305,0.646,0.371,1.038c0.066,0.392,0.1,0.805,0.1,1.243
				V77.335z M200.221,67.863c-0.309,0-0.572-0.056-0.793-0.169c-0.223-0.111-0.422-0.223-0.602-0.331
				c-0.18-0.107-0.383-0.161-0.607-0.161c-0.227,0-0.393,0.057-0.5,0.169c-0.107,0.113-0.178,0.231-0.209,0.354
				s-0.047,0.195-0.047,0.216h-0.953c0-0.082,0.025-0.219,0.076-0.408c0.053-0.19,0.141-0.391,0.27-0.602
				c0.127-0.21,0.297-0.39,0.508-0.538c0.211-0.149,0.475-0.224,0.795-0.224c0.305,0,0.563,0.057,0.768,0.169
				c0.207,0.113,0.404,0.227,0.594,0.34s0.408,0.169,0.654,0.169c0.256,0,0.441-0.059,0.555-0.178
				c0.113-0.117,0.188-0.238,0.223-0.362c0.035-0.122,0.053-0.194,0.053-0.214h0.973c0,0.071-0.029,0.199-0.086,0.384
				c-0.057,0.186-0.152,0.386-0.283,0.601c-0.135,0.216-0.314,0.401-0.541,0.555C200.842,67.786,200.559,67.863,200.221,67.863z"/>
			<path fill="#4E9891" d="M204.102,75.001c0-0.508,0.145-0.953,0.438-1.334c0.293-0.382,0.695-0.678,1.209-0.886
				c0.514-0.209,1.107-0.313,1.785-0.313c0.359,0,0.727,0.025,1.102,0.076c0.375,0.052,0.707,0.134,0.994,0.247v-0.505
				c0-0.557-0.17-0.991-0.508-1.304c-0.338-0.313-0.826-0.471-1.463-0.471c-0.453,0-0.879,0.08-1.279,0.239
				s-0.826,0.382-1.277,0.669l-0.57-1.139c0.533-0.359,1.07-0.627,1.609-0.802c0.537-0.174,1.105-0.261,1.701-0.261
				c1.078,0,1.928,0.281,2.549,0.845s0.932,1.363,0.932,2.398v2.969c0,0.192,0.033,0.329,0.1,0.411s0.184,0.127,0.348,0.138v1.354
				c-0.154,0.031-0.293,0.051-0.416,0.062s-0.227,0.015-0.309,0.015c-0.359,0-0.631-0.087-0.816-0.261
				c-0.184-0.175-0.291-0.38-0.322-0.616l-0.047-0.462c-0.35,0.452-0.795,0.801-1.34,1.047c-0.545,0.247-1.094,0.369-1.648,0.369
				c-0.533,0-1.01-0.108-1.432-0.327c-0.42-0.219-0.75-0.517-0.986-0.893C204.219,75.892,204.102,75.471,204.102,75.001z
				 M209.229,75.484c0.123-0.131,0.221-0.263,0.293-0.395c0.07-0.131,0.107-0.247,0.107-0.348v-0.909
				c-0.287-0.11-0.592-0.194-0.908-0.249c-0.318-0.056-0.633-0.084-0.941-0.084c-0.613,0-1.115,0.121-1.5,0.364
				c-0.385,0.242-0.578,0.575-0.578,0.999c0,0.233,0.064,0.454,0.193,0.666c0.127,0.212,0.313,0.385,0.555,0.516
				c0.24,0.132,0.541,0.196,0.9,0.196c0.369,0,0.725-0.071,1.063-0.211C208.752,75.889,209.021,75.707,209.229,75.484z"/>
			<path fill="#4E9891" d="M225.689,77.335h-1.693v-4.461c0-0.74-0.123-1.282-0.369-1.628c-0.248-0.346-0.607-0.518-1.078-0.518
				c-0.473,0-0.912,0.174-1.318,0.525c-0.404,0.351-0.689,0.805-0.854,1.362v4.719h-1.693v-4.461c0-0.74-0.125-1.282-0.371-1.628
				s-0.6-0.518-1.063-0.518c-0.471,0-0.91,0.171-1.314,0.515c-0.406,0.343-0.697,0.792-0.871,1.348v4.744h-1.693v-7.993h1.539v1.616
				c0.32-0.559,0.736-0.988,1.256-1.289c0.518-0.3,1.109-0.449,1.779-0.449c0.666,0,1.193,0.172,1.576,0.519
				c0.387,0.345,0.623,0.778,0.719,1.297c0.348-0.591,0.777-1.041,1.285-1.35c0.508-0.311,1.09-0.466,1.748-0.466
				c0.471,0,0.865,0.086,1.186,0.259c0.316,0.173,0.564,0.409,0.738,0.709c0.174,0.301,0.301,0.646,0.377,1.038
				c0.078,0.392,0.115,0.805,0.115,1.243V77.335z"/>
			<path fill="#4E9891" d="M231.266,77.488c-0.639,0-1.207-0.108-1.711-0.327c-0.502-0.219-0.938-0.521-1.301-0.908
				c-0.365-0.387-0.645-0.826-0.84-1.32c-0.193-0.493-0.293-1.019-0.293-1.579c0-0.559,0.1-1.087,0.293-1.587
				c0.195-0.497,0.475-0.938,0.84-1.319c0.363-0.381,0.801-0.681,1.309-0.899c0.51-0.219,1.076-0.328,1.703-0.328
				c0.625,0,1.193,0.109,1.701,0.328s0.943,0.519,1.309,0.899c0.365,0.382,0.643,0.822,0.84,1.319
				c0.193,0.5,0.291,1.028,0.291,1.587c0,0.561-0.098,1.086-0.291,1.579c-0.197,0.494-0.475,0.934-0.84,1.32
				s-0.801,0.689-1.309,0.908S231.891,77.488,231.266,77.488z M228.861,73.37c0,0.506,0.109,0.961,0.322,1.365
				c0.219,0.405,0.504,0.725,0.863,0.957s0.766,0.35,1.219,0.35c0.441,0,0.844-0.12,1.207-0.357
				c0.365-0.237,0.654-0.562,0.871-0.972c0.215-0.409,0.322-0.862,0.322-1.359c0-0.506-0.107-0.961-0.322-1.366
				c-0.217-0.404-0.506-0.726-0.871-0.964c-0.363-0.238-0.766-0.357-1.207-0.357c-0.453,0-0.859,0.122-1.219,0.365
				s-0.645,0.564-0.863,0.965C228.971,72.395,228.861,72.854,228.861,73.37z"/>
			<path fill="#4E9891" d="M239.781,77.488c-0.678,0-1.32-0.109-1.926-0.33s-1.123-0.553-1.555-0.994l0.631-1.14
				c0.463,0.411,0.926,0.709,1.393,0.894s0.934,0.276,1.395,0.276c0.473,0,0.857-0.087,1.154-0.264
				c0.299-0.175,0.447-0.434,0.447-0.776c0-0.254-0.078-0.442-0.23-0.563c-0.154-0.123-0.377-0.23-0.67-0.321
				s-0.645-0.193-1.055-0.306c-0.574-0.173-1.059-0.354-1.449-0.541c-0.389-0.188-0.682-0.42-0.877-0.694
				c-0.193-0.274-0.293-0.625-0.293-1.053c0-0.519,0.133-0.961,0.4-1.327c0.266-0.366,0.641-0.646,1.117-0.84
				c0.479-0.193,1.029-0.289,1.656-0.289c0.584,0,1.125,0.09,1.623,0.269c0.498,0.18,0.938,0.46,1.316,0.84l-0.725,1.124
				c-0.357-0.329-0.725-0.569-1.1-0.724s-0.777-0.231-1.207-0.231c-0.248,0-0.484,0.028-0.709,0.084
				c-0.229,0.056-0.414,0.157-0.563,0.305c-0.15,0.148-0.225,0.353-0.225,0.617c0,0.213,0.063,0.385,0.186,0.519
				c0.123,0.132,0.307,0.242,0.555,0.333c0.246,0.093,0.549,0.194,0.908,0.306c0.627,0.183,1.16,0.363,1.602,0.541
				s0.783,0.406,1.025,0.685c0.24,0.28,0.361,0.663,0.361,1.15c0,0.772-0.291,1.374-0.871,1.805
				C241.518,77.273,240.744,77.488,239.781,77.488z"/>
			<path fill="#4E9891" d="M251.932,77.488c-0.629,0-1.195-0.109-1.703-0.328s-0.947-0.52-1.316-0.902
				c-0.371-0.381-0.656-0.819-0.855-1.314c-0.199-0.493-0.301-1.021-0.301-1.582c0-0.751,0.176-1.438,0.525-2.063
				c0.35-0.624,0.838-1.127,1.463-1.508s1.359-0.57,2.203-0.57c0.842,0,1.568,0.189,2.178,0.571
				c0.611,0.381,1.086,0.882,1.424,1.503c0.338,0.619,0.51,1.285,0.51,1.997c0,0.122-0.006,0.236-0.016,0.343
				c-0.012,0.106-0.021,0.196-0.031,0.267h-6.451c0.029,0.466,0.16,0.874,0.393,1.224c0.23,0.351,0.523,0.623,0.883,0.82
				c0.359,0.198,0.744,0.297,1.156,0.297c0.451,0,0.879-0.112,1.285-0.339s0.68-0.522,0.824-0.893l1.447,0.415
				c-0.174,0.391-0.438,0.742-0.793,1.055c-0.354,0.314-0.771,0.56-1.256,0.739C253.018,77.398,252.494,77.488,251.932,77.488z
				 M249.514,72.776h4.865c-0.029-0.452-0.162-0.853-0.393-1.2c-0.232-0.347-0.523-0.619-0.877-0.814
				c-0.355-0.197-0.748-0.295-1.178-0.295c-0.422,0-0.811,0.098-1.164,0.295c-0.355,0.195-0.645,0.468-0.869,0.814
				C249.672,71.924,249.543,72.324,249.514,72.776z"/>
			<path fill="#4E9891" d="M264.666,77.335h-1.695v-4.461c0-0.74-0.121-1.282-0.361-1.628c-0.242-0.346-0.598-0.518-1.07-0.518
				c-0.328,0-0.654,0.08-0.979,0.242c-0.322,0.161-0.613,0.381-0.869,0.658c-0.258,0.278-0.441,0.599-0.555,0.962v4.744h-1.693
				v-7.993h1.539v1.616c0.207-0.356,0.477-0.663,0.809-0.922c0.334-0.26,0.711-0.461,1.133-0.604c0.42-0.143,0.867-0.213,1.34-0.213
				c0.482,0,0.881,0.086,1.193,0.259s0.559,0.409,0.738,0.709c0.18,0.301,0.303,0.646,0.369,1.038
				c0.066,0.392,0.102,0.805,0.102,1.243V77.335z"/>
			<path fill="#4E9891" d="M273.305,77.488c-0.678,0-1.318-0.109-1.926-0.33c-0.605-0.221-1.123-0.553-1.555-0.994l0.631-1.14
				c0.463,0.411,0.928,0.709,1.395,0.894s0.932,0.276,1.393,0.276c0.471,0,0.857-0.087,1.156-0.264
				c0.297-0.175,0.445-0.434,0.445-0.776c0-0.254-0.076-0.442-0.23-0.563c-0.154-0.123-0.377-0.23-0.67-0.321
				s-0.643-0.193-1.055-0.306c-0.574-0.173-1.059-0.354-1.447-0.541c-0.391-0.188-0.682-0.42-0.879-0.694
				c-0.193-0.274-0.291-0.625-0.291-1.053c0-0.519,0.133-0.961,0.398-1.327c0.268-0.366,0.641-0.646,1.117-0.84
				c0.479-0.193,1.029-0.289,1.656-0.289c0.584,0,1.125,0.09,1.625,0.269c0.496,0.18,0.938,0.46,1.314,0.84l-0.723,1.124
				c-0.359-0.329-0.725-0.569-1.1-0.724c-0.377-0.154-0.779-0.231-1.211-0.231c-0.246,0-0.482,0.028-0.707,0.084
				c-0.227,0.056-0.414,0.157-0.561,0.305c-0.15,0.148-0.225,0.353-0.225,0.617c0,0.213,0.061,0.385,0.184,0.519
				c0.123,0.132,0.309,0.242,0.555,0.333c0.246,0.093,0.551,0.194,0.908,0.306c0.627,0.183,1.16,0.363,1.602,0.541
				c0.443,0.178,0.783,0.406,1.025,0.685c0.24,0.28,0.363,0.663,0.363,1.15c0,0.772-0.293,1.374-0.871,1.805
				C275.043,77.273,274.27,77.488,273.305,77.488z"/>
			<path fill="#4E9891" d="M277.924,74.232v-4.891h1.695v4.549c0,0.712,0.131,1.248,0.393,1.609s0.643,0.542,1.146,0.542
				c0.318,0,0.629-0.065,0.932-0.198c0.303-0.132,0.58-0.326,0.832-0.585c0.252-0.258,0.453-0.57,0.607-0.934v-4.983h1.693v6.088
				c0,0.193,0.037,0.331,0.109,0.412c0.07,0.083,0.189,0.128,0.354,0.139v1.354c-0.174,0.031-0.318,0.051-0.43,0.062
				c-0.113,0.011-0.223,0.015-0.324,0.015c-0.309,0-0.564-0.083-0.771-0.252c-0.205-0.167-0.322-0.384-0.354-0.648l-0.029-0.796
				c-0.361,0.581-0.828,1.022-1.402,1.322c-0.576,0.302-1.207,0.451-1.895,0.451c-0.842,0-1.479-0.274-1.91-0.824
				C278.141,76.113,277.924,75.304,277.924,74.232z"/>
			<path fill="#4E9891" d="M294.832,77.488c-0.625,0-1.193-0.108-1.701-0.327s-0.947-0.521-1.316-0.908s-0.654-0.828-0.854-1.327
				c-0.203-0.499-0.301-1.028-0.301-1.588c0-0.752,0.172-1.438,0.514-2.06c0.346-0.619,0.828-1.119,1.449-1.495
				s1.357-0.563,2.209-0.563c0.822,0,1.539,0.183,2.148,0.546c0.611,0.365,1.061,0.85,1.348,1.456l-1.648,0.522
				c-0.186-0.339-0.441-0.603-0.775-0.793c-0.336-0.189-0.701-0.285-1.102-0.285c-0.453,0-0.859,0.115-1.225,0.343
				c-0.365,0.227-0.654,0.541-0.863,0.941c-0.211,0.399-0.314,0.862-0.314,1.388c0,0.507,0.107,0.966,0.322,1.375
				c0.215,0.41,0.506,0.734,0.871,0.972c0.363,0.237,0.771,0.357,1.223,0.357c0.277,0,0.547-0.049,0.811-0.147
				c0.262-0.097,0.488-0.231,0.684-0.4s0.334-0.356,0.416-0.562l1.662,0.492c-0.174,0.4-0.432,0.755-0.775,1.063
				c-0.346,0.308-0.75,0.551-1.219,0.73C295.928,77.398,295.408,77.488,294.832,77.488z"/>
			<path fill="#4E9891" d="M304.318,70.744c-0.658,0.01-1.238,0.158-1.748,0.446c-0.508,0.287-0.869,0.692-1.086,1.216v4.929h-1.693
				v-7.993h1.57v1.74c0.277-0.554,0.643-0.998,1.094-1.331c0.451-0.334,0.928-0.517,1.432-0.547c0.102,0,0.188,0,0.254,0
				c0.068,0,0.127,0.005,0.178,0.016V70.744z"/>
			<path fill="#4E9891" d="M309.063,77.488c-0.627,0-1.193-0.109-1.703-0.328c-0.508-0.219-0.947-0.52-1.316-0.902
				c-0.369-0.381-0.654-0.819-0.855-1.314c-0.199-0.493-0.301-1.021-0.301-1.582c0-0.751,0.176-1.438,0.525-2.063
				c0.35-0.624,0.836-1.127,1.463-1.508s1.359-0.57,2.203-0.57c0.84,0,1.568,0.189,2.178,0.571c0.611,0.381,1.086,0.882,1.424,1.503
				c0.338,0.619,0.51,1.285,0.51,1.997c0,0.122-0.006,0.236-0.016,0.343c-0.012,0.106-0.021,0.196-0.031,0.267h-6.453
				c0.033,0.466,0.162,0.874,0.395,1.224c0.229,0.351,0.525,0.623,0.885,0.82c0.357,0.198,0.744,0.297,1.154,0.297
				c0.453,0,0.881-0.112,1.287-0.339c0.404-0.227,0.678-0.522,0.822-0.893l1.447,0.415c-0.174,0.391-0.438,0.742-0.791,1.055
				c-0.355,0.314-0.773,0.56-1.258,0.739C310.15,77.398,309.627,77.488,309.063,77.488z M306.645,72.776h4.867
				c-0.031-0.452-0.164-0.853-0.393-1.2c-0.232-0.347-0.525-0.619-0.879-0.814c-0.354-0.197-0.748-0.295-1.178-0.295
				c-0.422,0-0.809,0.098-1.164,0.295c-0.354,0.195-0.643,0.468-0.869,0.814C306.803,71.924,306.676,72.324,306.645,72.776z"/>
			<path fill="#4E9891" d="M318.225,77.488c-0.627,0-1.193-0.108-1.703-0.327c-0.508-0.219-0.947-0.521-1.314-0.908
				c-0.371-0.387-0.656-0.828-0.855-1.327c-0.201-0.499-0.301-1.028-0.301-1.588c0-0.752,0.172-1.438,0.516-2.06
				c0.344-0.619,0.826-1.119,1.447-1.495c0.623-0.376,1.359-0.563,2.211-0.563c0.82,0,1.537,0.183,2.148,0.546
				c0.609,0.365,1.059,0.85,1.348,1.456l-1.648,0.522c-0.186-0.339-0.445-0.603-0.779-0.793c-0.332-0.189-0.699-0.285-1.1-0.285
				c-0.453,0-0.859,0.115-1.227,0.343c-0.363,0.227-0.65,0.541-0.861,0.941c-0.209,0.399-0.314,0.862-0.314,1.388
				c0,0.507,0.107,0.966,0.324,1.375c0.215,0.41,0.506,0.734,0.869,0.972s0.771,0.357,1.225,0.357c0.277,0,0.547-0.049,0.807-0.147
				c0.264-0.097,0.492-0.231,0.686-0.4c0.195-0.169,0.334-0.356,0.416-0.562l1.664,0.492c-0.176,0.4-0.434,0.755-0.779,1.063
				c-0.344,0.308-0.748,0.551-1.215,0.73S318.799,77.488,318.225,77.488z"/>
			<path fill="#4E9891" d="M323.182,67.956v-1.862h1.695v1.862H323.182z M323.182,77.335V69.28h1.695v8.055H323.182z"/>
			<path fill="#4E9891" d="M339.229,77.335h-1.693v-4.461c0-0.74-0.125-1.282-0.369-1.628c-0.248-0.346-0.607-0.518-1.08-0.518
				s-0.91,0.174-1.316,0.525c-0.404,0.351-0.689,0.805-0.854,1.362v4.719h-1.693v-4.461c0-0.74-0.125-1.282-0.371-1.628
				s-0.602-0.518-1.063-0.518c-0.473,0-0.91,0.171-1.316,0.515c-0.406,0.343-0.695,0.792-0.871,1.348v4.744h-1.693v-7.993h1.541
				v1.616c0.318-0.559,0.736-0.988,1.254-1.289c0.52-0.3,1.111-0.449,1.779-0.449s1.193,0.172,1.578,0.519
				c0.387,0.345,0.623,0.778,0.717,1.297c0.348-0.591,0.777-1.041,1.285-1.35c0.508-0.311,1.09-0.466,1.748-0.466
				c0.471,0,0.867,0.086,1.186,0.259s0.566,0.409,0.74,0.709c0.174,0.301,0.301,0.646,0.377,1.038
				c0.076,0.392,0.115,0.805,0.115,1.243V77.335z"/>
			<path fill="#4E9891" d="M341.186,67.956v-1.862h1.693v1.862H341.186z M341.186,77.335V69.28h1.693v8.055H341.186z"/>
			<path fill="#4E9891" d="M348.561,77.488c-0.627,0-1.193-0.109-1.703-0.328c-0.508-0.219-0.947-0.52-1.314-0.902
				c-0.371-0.381-0.656-0.819-0.855-1.314c-0.201-0.493-0.301-1.021-0.301-1.582c0-0.751,0.174-1.438,0.523-2.063
				c0.35-0.624,0.838-1.127,1.463-1.508c0.627-0.381,1.361-0.57,2.203-0.57s1.568,0.189,2.18,0.571
				c0.609,0.381,1.084,0.882,1.422,1.503c0.338,0.619,0.51,1.285,0.51,1.997c0,0.122-0.006,0.236-0.016,0.343
				s-0.02,0.196-0.031,0.267h-6.451c0.031,0.466,0.16,0.874,0.393,1.224c0.23,0.351,0.525,0.623,0.885,0.82
				c0.359,0.198,0.744,0.297,1.154,0.297c0.453,0,0.881-0.112,1.287-0.339s0.68-0.522,0.822-0.893l1.447,0.415
				c-0.174,0.391-0.438,0.742-0.791,1.055c-0.355,0.314-0.773,0.56-1.256,0.739S349.125,77.488,348.561,77.488z M346.143,72.776
				h4.865c-0.029-0.452-0.16-0.853-0.391-1.2c-0.232-0.347-0.525-0.619-0.879-0.814c-0.354-0.197-0.746-0.295-1.178-0.295
				c-0.422,0-0.809,0.098-1.162,0.295c-0.355,0.195-0.645,0.468-0.871,0.814C346.301,71.924,346.174,72.324,346.143,72.776z"/>
			<path fill="#4E9891" d="M361.295,77.335h-1.693v-4.461c0-0.74-0.121-1.282-0.361-1.628c-0.242-0.346-0.598-0.518-1.072-0.518
				c-0.328,0-0.652,0.08-0.977,0.242c-0.324,0.161-0.615,0.381-0.869,0.658c-0.258,0.278-0.443,0.599-0.557,0.962v4.744h-1.693
				v-7.993h1.541v1.616c0.205-0.356,0.475-0.663,0.807-0.922c0.334-0.26,0.711-0.461,1.133-0.604c0.42-0.143,0.867-0.213,1.34-0.213
				c0.482,0,0.881,0.086,1.193,0.259s0.559,0.409,0.74,0.709c0.178,0.301,0.301,0.646,0.367,1.038
				c0.068,0.392,0.102,0.805,0.102,1.243V77.335z"/>
			<path fill="#4E9891" d="M367.686,76.95c-0.143,0.071-0.322,0.148-0.539,0.23c-0.215,0.082-0.459,0.154-0.73,0.216
				c-0.273,0.062-0.553,0.092-0.84,0.092c-0.35,0-0.674-0.061-0.971-0.184s-0.537-0.319-0.715-0.589
				c-0.182-0.271-0.271-0.622-0.271-1.051v-5.014h-1.061v-1.31h1.061v-2.647h1.695v2.647h1.754v1.31h-1.754v4.471
				c0.021,0.275,0.109,0.48,0.27,0.612c0.16,0.133,0.355,0.199,0.592,0.199s0.463-0.041,0.68-0.123
				c0.213-0.083,0.375-0.149,0.477-0.2L367.686,76.95z"/>
			<path fill="#4E9891" d="M372.369,77.488c-0.639,0-1.207-0.108-1.711-0.327s-0.938-0.521-1.301-0.908
				c-0.365-0.387-0.645-0.826-0.84-1.32c-0.193-0.493-0.293-1.019-0.293-1.579c0-0.559,0.1-1.087,0.293-1.587
				c0.195-0.497,0.475-0.938,0.84-1.319c0.363-0.381,0.801-0.681,1.309-0.899s1.074-0.328,1.703-0.328
				c0.625,0,1.193,0.109,1.701,0.328s0.941,0.519,1.309,0.899c0.363,0.382,0.643,0.822,0.838,1.319
				c0.195,0.5,0.293,1.028,0.293,1.587c0,0.561-0.098,1.086-0.293,1.579c-0.195,0.494-0.475,0.934-0.838,1.32
				c-0.367,0.387-0.801,0.689-1.309,0.908S372.994,77.488,372.369,77.488z M369.965,73.37c0,0.506,0.107,0.961,0.322,1.365
				c0.217,0.405,0.504,0.725,0.863,0.957c0.361,0.232,0.766,0.35,1.219,0.35c0.441,0,0.844-0.12,1.207-0.357
				c0.365-0.237,0.654-0.562,0.871-0.972c0.215-0.409,0.322-0.862,0.322-1.359c0-0.506-0.107-0.961-0.322-1.366
				c-0.217-0.404-0.506-0.726-0.871-0.964c-0.363-0.238-0.766-0.357-1.207-0.357c-0.453,0-0.857,0.122-1.219,0.365
				c-0.359,0.243-0.646,0.564-0.863,0.965C370.072,72.395,369.965,72.854,369.965,73.37z"/>
		</g>
	</g>
	<g>
		<g id="SvgjsG1007" transform="matrix(1.6091172564241916,0,0,1.6091172564241916,60.64472869772384,-0.17618763093883236)">
			<ellipse fill="#4E9A92" cx="-6.222" cy="31.006" rx="1.27" ry="1.287"/>
			<ellipse fill="#4E9A92" cx="7.283" cy="28.431" rx="1.27" ry="1.288"/>
			<g>
				<path fill="#4E9A92" d="M-1.487,32.061l-0.465-0.235c0.015-0.031,1.54-3.013,5.415-1.294l-0.208,0.483
					C-0.174,29.494-1.436,31.956-1.487,32.061z"/>
			</g>
			<g>
				<path fill="#4E9A92" d="M-0.613,33.768l-0.367-0.372c0.08-0.082,1.987-1.992,3.751-1.227l-0.208,0.485
					C1.126,32.027-0.596,33.751-0.613,33.768z"/>
			</g>
			<g>
				<path fill="#4E9A92" d="M1.059,35.321l-0.482-0.198c0.008-0.021,0.205-0.507,0.757-0.739C1.797,34.188,2.359,34.231,3,34.511
					l-0.206,0.485c-0.501-0.219-0.922-0.261-1.251-0.127C1.193,35.011,1.064,35.309,1.059,35.321z"/>
			</g>
			<path fill="#4E9A92" d="M22.495,48.069c-1.476-3.641-4.025-4.407-5.901-4.407c-0.909,0-1.611,0.181-1.9,0.269
				c-2.648-1.867-4.962-8.064-5.327-9.086c2.015-1.986,2.95-4.985,3.312-8.03c9.289-0.303,10.094-12.064,10.101-12.188
				c0.465-10.883-4.402-11.715-4.593-11.742c-5.24-1.108-10.734,4.552-11.66,5.557c-7.173-2.601-18.26,2.881-18.752,3.127
				c-1.358,0.685-2.298,1.635-2.935,2.735c-1.186-0.019-8.148,0-11.338,3.129c-1.041,1.024-1.572,2.281-1.571,3.759
				c0.007,0.071,0.637,7.249,5.826,11.475c2.525,2.057,5.691,3.092,9.442,3.092c1.011,0,2.062-0.075,3.155-0.225
				c0.865,0.821,1.736,1.416,2.568,1.846c-0.299,1.126-1.754,6.236-3.857,8.164c-1.203-0.644-2.29-0.751-2.322-0.753
				c-6.598-0.225-7.871,6.939-7.886,7.031c-0.477,5.81,6.627,6.599,6.698,6.607c0.31,0.033,0.615,0.051,0.907,0.051
				c1.809,0,3.059-0.645,3.921-1.531c0.607,0.598,2.963,2.672,6.439,2.672c1.761,0,3.81-0.535,6.06-2.062
				c0.91,0.734,5.571,4.042,10.209-0.699c0.921,0.401,1.904,0.526,2.767,0.526c1.719,0,3.124-0.478,3.18-0.498
				c1.826-0.615,3.066-1.661,3.69-3.108C23.857,51.157,22.55,48.184,22.495,48.069z M9.029,35.445l-0.157,0.01
				c0,0.004-0.011,0.391-0.303,0.592c-0.209,0.141-0.528,0.16-0.926,0.083c0.475-0.259,0.914-0.554,1.31-0.892
				C8.977,35.3,9,35.369,9.029,35.445z M6.78,37.756c-0.036-0.01-0.073-0.02-0.109-0.036c-0.176-0.077-0.444-0.302-0.715-0.909
				c0.198-0.055,0.392-0.113,0.578-0.18C6.534,36.99,6.576,37.451,6.78,37.756z M18.096,3.405c0.047,0.007,4.609,0.839,4.163,11.196
				c-0.006,0.115-0.774,11.329-9.519,11.684c0.517-5.254-0.566-10.45-0.584-10.542c-0.226-1.306-0.611-2.45-1.142-3.442
				c0.364-0.99,2.665-6.73,6.864-6.319l0.047-0.525c-4.234-0.404-6.571,4.55-7.249,6.263c-0.773-1.212-1.796-2.159-3.078-2.818
				C7.422,8.81,7.238,8.73,7.053,8.649C8.271,7.383,13.4,2.409,18.096,3.405z M-21.913,32.261
				c-5.013-4.081-5.631-11.04-5.636-11.089c0-1.308,0.475-2.438,1.413-3.359c2.82-2.768,9.025-2.978,10.697-2.982
				c-1.126,2.379-0.988,5.342-0.47,7.927c-1.294-0.766-5.044-2.663-9.622-2.082l0.064,0.522c5.162-0.656,9.349,2.033,9.71,2.273
				c0.683,2.95,1.767,5.244,1.79,5.292c1.145,2.845,2.482,4.864,3.849,6.297C-14.941,35.645-18.909,34.706-21.913,32.261z
				 M-13.493,28.549c-0.059-0.127-6.019-12.715,1.499-16.506c0.124-0.062,12.512-6.195,19.36-2.67
				c2.306,1.185,3.746,3.36,4.281,6.471c0.038,0.171,3.403,16.376-4.746,20.062l-0.296-0.121l-0.032,0.268
				c-0.257,0.102-0.527,0.188-0.805,0.266c-0.362-1.078-0.691-2.959-0.765-6.255l-0.521,0.012c0.112,4.871,0.78,7.605,1.986,8.128
				c0.663,0.289,1.197-0.192,1.22-0.212l0.763-0.706L7.451,37.54c-0.13,0.034-0.176-0.007-0.198-0.026
				c-0.158-0.143-0.205-0.595-0.198-0.989c0.779,0.259,1.383,0.245,1.802-0.042c0.036-0.025,0.07-0.052,0.102-0.08
				c0.126,2.027-0.266,3.535-1.166,4.49c-1.153,1.219-2.781,1.089-2.818,1.087c-5.287,0-8.036-8.396-8.066-8.481l-0.493,0.163
				c0.052,0.169,0.691,2.114,1.929,4.136C-2.556,38.006-9.232,39.129-13.493,28.549z M-13.538,57.954
				c-0.273,0-0.56-0.016-0.855-0.048c-0.272-0.029-6.665-0.745-6.233-6.018c0.011-0.065,1.149-6.576,7.048-6.576
				c0.101,0,0.2,0.002,0.293,0.005c0.215,0.019,5.288,0.531,5.069,6.529C-8.215,52.094-8.275,57.954-13.538,57.954z M3.11,57.068
				c-1.357-2.614-0.645-8.29-0.459-9.59c0.019,0.001,0.038,0.004,0.058,0.004c0.676,0,1.341-0.39,1.983-1.159l-0.397-0.34
				c-0.602,0.724-1.198,1.046-1.781,0.958c-1.281-0.199-2.159-2.273-2.168-2.295l-0.478,0.205c0.038,0.09,0.879,2.081,2.267,2.537
				c-0.191,1.303-0.905,6.889,0.425,9.749c-6.501,4.396-11.059,0.222-11.838-0.579c1.552-1.943,1.583-4.666,1.583-4.703
				c0.121-3.329-1.323-5.098-2.77-6.033c2.114-2.072,3.514-6.897,3.866-8.209c1.463,0.657,2.783,0.819,3.725,0.819
				c0.881,0,1.432-0.143,1.45-0.147l-0.053-0.201c1.415,2.213,3.547,4.423,6.426,4.423l0,0c0.016,0.002,0.092,0.008,0.216,0.008
				c0.53,0,1.92-0.118,2.996-1.251c0.973-1.024,1.414-2.591,1.323-4.653c0.904,2.214,2.639,5.932,4.652,7.556
				c-5.62,2.702-3.916,9.436-3.891,9.526c0.521,1.465,1.383,2.37,2.354,2.919C8.018,61.154,3.587,57.49,3.11,57.068z M22.252,53.571
				c-0.56,1.304-1.697,2.252-3.378,2.819c-0.012,0.005-1.38,0.47-3.015,0.47c-2.614,0-4.338-1.125-5.117-3.324
				c-0.072-0.271-1.688-6.684,3.993-9.065c0.008-0.003,0.79-0.28,1.858-0.28c1.718,0,4.054,0.707,5.427,4.088
				C22.031,48.306,23.29,51.159,22.252,53.571z"/>
		</g>
	</g>
</g>
<g display="none">
</g>
<g display="none">
	<circle display="inline" fill="#DBF0EF" cx="-208.084" cy="-201.325" r="72.355"/>
	<g display="inline">
		<g id="SvgjsG1007_1_" transform="matrix(1.6091172564241916,0,0,1.6091172564241916,60.64472869772384,-0.17618763093883236)">
			<ellipse fill="#4E9A92" cx="-170.441" cy="-125.166" rx="1.154" ry="1.171"/>
			<ellipse fill="#4E9A92" cx="-158.164" cy="-127.507" rx="1.154" ry="1.171"/>
			<g>
				<path fill="#4E9A92" d="M-166.137-124.207l-0.422-0.215c0.013-0.028,1.401-2.739,4.923-1.176l-0.189,0.439
					C-164.943-126.541-166.09-124.302-166.137-124.207z"/>
			</g>
			<g>
				<path fill="#4E9A92" d="M-165.342-122.655l-0.334-0.338c0.073-0.074,1.807-1.811,3.41-1.115l-0.188,0.441
					C-163.762-124.238-165.328-122.671-165.342-122.655z"/>
			</g>
			<g>
				<path fill="#4E9A92" d="M-163.823-121.243l-0.437-0.18c0.007-0.019,0.187-0.461,0.688-0.672c0.42-0.178,0.931-0.139,1.514,0.115
					l-0.187,0.441c-0.456-0.199-0.839-0.237-1.139-0.115C-163.7-121.525-163.818-121.255-163.823-121.243z"/>
			</g>
			<path fill="#4E9A92" d="M-144.334-109.654c-1.342-3.31-3.66-4.005-5.366-4.005c-0.827,0-1.464,0.164-1.726,0.245
				c-2.408-1.697-4.51-7.331-4.844-8.26c1.833-1.805,2.682-4.532,3.013-7.299c8.444-0.276,9.176-10.968,9.182-11.081
				c0.424-9.894-4.002-10.65-4.175-10.675c-4.764-1.007-9.758,4.139-10.6,5.052c-6.522-2.364-16.6,2.619-17.048,2.843
				c-1.234,0.623-2.089,1.487-2.668,2.487c-1.078-0.018-7.408-0.001-10.307,2.845c-0.947,0.931-1.429,2.074-1.427,3.417
				c0.006,0.065,0.579,6.59,5.296,10.432c2.295,1.87,5.174,2.811,8.585,2.811c0.918,0,1.874-0.069,2.867-0.205
				c0.788,0.747,1.578,1.288,2.335,1.678c-0.272,1.023-1.594,5.669-3.507,7.422c-1.095-0.585-2.083-0.682-2.111-0.685
				c-6-0.204-7.156,6.308-7.17,6.393c-0.433,5.281,6.024,5.999,6.088,6.006c0.282,0.03,0.56,0.046,0.825,0.046
				c1.643,0,2.78-0.585,3.564-1.391c0.552,0.544,2.695,2.428,5.854,2.428c1.601,0,3.463-0.485,5.509-1.873
				c0.828,0.667,5.065,3.674,9.282-0.635c0.838,0.364,1.731,0.477,2.516,0.477c1.562,0,2.839-0.435,2.89-0.452
				c1.66-0.559,2.788-1.51,3.355-2.825C-143.096-106.847-144.285-109.549-144.334-109.654z M-156.576-121.131l-0.143,0.009
				c0,0.004-0.008,0.355-0.276,0.538c-0.189,0.128-0.479,0.146-0.841,0.076c0.432-0.235,0.83-0.504,1.191-0.811
				C-156.625-121.262-156.603-121.2-156.576-121.131z M-158.621-119.03c-0.033-0.008-0.067-0.018-0.1-0.032
				c-0.16-0.071-0.403-0.275-0.649-0.826c0.18-0.051,0.357-0.103,0.526-0.164C-158.846-119.726-158.806-119.307-158.621-119.03z
				 M-148.333-150.259c0.042,0.006,4.19,0.763,3.786,10.179c-0.006,0.104-0.705,10.299-8.654,10.622
				c0.47-4.776-0.513-9.5-0.532-9.584c-0.204-1.187-0.555-2.227-1.038-3.129c0.331-0.899,2.424-6.118,6.24-5.744l0.044-0.477
				c-3.849-0.368-5.974,4.137-6.591,5.694c-0.703-1.102-1.633-1.962-2.798-2.562c-0.161-0.083-0.329-0.157-0.496-0.229
				C-157.266-146.642-152.602-151.164-148.333-150.259z M-184.706-124.024c-4.558-3.711-5.119-10.037-5.123-10.081
				c0-1.189,0.432-2.216,1.284-3.053c2.564-2.516,8.204-2.707,9.725-2.711c-1.024,2.163-0.898,4.856-0.427,7.206
				c-1.176-0.696-4.586-2.421-8.748-1.892l0.058,0.475c4.694-0.597,8.501,1.849,8.829,2.067c0.621,2.681,1.606,4.767,1.628,4.81
				c1.04,2.587,2.256,4.422,3.498,5.724C-178.367-120.949-181.975-121.802-184.706-124.024z M-177.05-127.399
				c-0.055-0.115-5.473-11.56,1.362-15.006c0.113-0.056,11.374-5.632,17.6-2.428c2.096,1.078,3.406,3.054,3.893,5.883
				c0.034,0.156,3.094,14.888-4.315,18.239l-0.269-0.11l-0.029,0.244c-0.233,0.093-0.478,0.171-0.731,0.242
				c-0.329-0.981-0.628-2.689-0.695-5.686l-0.472,0.011c0.101,4.428,0.709,6.913,1.805,7.39c0.602,0.263,1.088-0.175,1.108-0.194
				l0.694-0.641l-0.91,0.231c-0.118,0.031-0.16-0.007-0.18-0.024c-0.143-0.13-0.187-0.541-0.18-0.899
				c0.708,0.235,1.257,0.223,1.639-0.039c0.033-0.023,0.063-0.047,0.092-0.072c0.115,1.843-0.242,3.213-1.061,4.081
				c-1.048,1.108-2.527,0.991-2.562,0.989c-4.807,0-7.307-7.633-7.331-7.71l-0.449,0.148c0.049,0.153,0.628,1.922,1.754,3.76
				C-167.109-118.802-173.178-117.781-177.05-127.399z M-177.092-100.668c-0.249,0-0.51-0.015-0.777-0.043
				c-0.248-0.026-6.06-0.678-5.667-5.471c0.01-0.059,1.045-5.979,6.408-5.979c0.092,0,0.183,0.002,0.266,0.005
				c0.197,0.017,4.809,0.482,4.61,5.936C-172.252-105.994-172.308-100.668-177.092-100.668z M-161.958-101.472
				c-1.233-2.378-0.586-7.537-0.416-8.719c0.017,0.001,0.034,0.004,0.052,0.004c0.615,0,1.22-0.354,1.804-1.053l-0.36-0.31
				c-0.549,0.658-1.09,0.951-1.619,0.87c-1.164-0.181-1.963-2.066-1.971-2.086l-0.435,0.186c0.034,0.083,0.799,1.892,2.062,2.307
				c-0.175,1.184-0.825,6.263,0.386,8.863c-5.911,3.995-10.055,0.201-10.763-0.527c1.41-1.767,1.438-4.242,1.438-4.275
				c0.11-3.027-1.203-4.635-2.519-5.485c1.923-1.883,3.196-6.269,3.515-7.463c1.33,0.598,2.531,0.745,3.386,0.745
				c0.802,0,1.301-0.129,1.319-0.134l-0.049-0.183c1.285,2.012,3.224,4.021,5.841,4.021c0.001,0,0.001,0,0.001,0
				c0.013,0.002,0.083,0.008,0.195,0.008c0.482,0,1.745-0.107,2.724-1.137c0.885-0.932,1.284-2.355,1.203-4.23
				c0.822,2.013,2.398,5.394,4.229,6.87c-5.109,2.457-3.559,8.578-3.537,8.659c0.472,1.332,1.256,2.155,2.14,2.655
				C-157.496-97.758-161.525-101.089-161.958-101.472z M-144.555-104.652c-0.51,1.186-1.543,2.048-3.071,2.563
				c-0.012,0.005-1.255,0.427-2.741,0.427c-2.378,0-3.945-1.023-4.652-3.022c-0.066-0.247-1.535-6.077,3.63-8.241
				c0.007-0.003,0.719-0.256,1.688-0.256c1.562,0,3.686,0.643,4.934,3.717C-144.755-109.438-143.612-106.845-144.555-104.652z"/>
		</g>
	</g>
</g>
</svg>
